SplineFontDB: 3.0
FontName: mnicmp-LightItalic
FullName: mnicmp Light Italic
FamilyName: mnicmp
Weight: Light
Copyright: Copyright (c) 2017, Stewart C. Russell - @scruss
UComments: "2017-2-4: Created with FontForge (http://fontforge.org)"
Version: 001.000
ItalicAngle: -12.08
UnderlinePosition: -100
UnderlineWidth: 50
Ascent: 800
Descent: 200
InvalidEm: 0
LayerCount: 2
Layer: 0 0 "Back" 1
Layer: 1 0 "Fore" 0
XUID: [1021 830 -1990243205 9274840]
StyleMap: 0x0001
FSType: 0
OS2Version: 0
OS2_WeightWidthSlopeOnly: 0
OS2_UseTypoMetrics: 1
CreationTime: 1486248497
ModificationTime: 1486414868
PfmFamily: 49
TTFWeight: 300
TTFWidth: 5
LineGap: 90
VLineGap: 0
OS2TypoAscent: 0
OS2TypoAOffset: 1
OS2TypoDescent: 0
OS2TypoDOffset: 1
OS2TypoLinegap: 90
OS2WinAscent: 0
OS2WinAOffset: 1
OS2WinDescent: 0
OS2WinDOffset: 1
HheadAscent: 0
HheadAOffset: 1
HheadDescent: 0
HheadDOffset: 1
OS2Vendor: 'PfEd'
MarkAttachClasses: 1
DEI: 91125

StartChar: glyph0
Encoding: 8593 8593 0
Width: 600
VWidth: 0
UnlinkRmOvrlpSave: 1
Flags: W
HStem: 220 60<180.106 237.894> 303 60<198.106 255.894> 387 60<216.106 273.894> 470 60<234.106 291.894> 553 60<91.1064 148.894 251.106 308.894 411.106 468.894> 637 60<162.106 219.894 269.106 326.894 376.106 433.894> 720 60<287.106 344.894>
VStem: 90 60<554.106 611.894> 161 60<638.106 695.894> 179 60<221.106 278.894> 197 60<304.106 361.894> 215 60<388.106 445.894> 233 60<471.106 528.894> 250 60<554.106 611.894> 268 60<638.106 695.894> 286 60<721.106 778.894> 375 60<638.106 695.894> 410 60<554.106 611.894>
LayerCount: 2
Back
Fore
SplineSet
239 250 m 0xff40
 239 233 226 220 209 220 c 0
 192 220 179 233 179 250 c 0
 179 267 192 280 209 280 c 0
 226 280 239 267 239 250 c 0xff40
257 333 m 0xff20
 257 316 244 303 227 303 c 0
 210 303 197 316 197 333 c 0
 197 350 210 363 227 363 c 0
 244 363 257 350 257 333 c 0xff20
275 417 m 0xff10
 275 400 262 387 245 387 c 0
 228 387 215 400 215 417 c 0
 215 434 228 447 245 447 c 0
 262 447 275 434 275 417 c 0xff10
293 500 m 0xff08
 293 483 280 470 263 470 c 0
 246 470 233 483 233 500 c 0
 233 517 246 530 263 530 c 0
 280 530 293 517 293 500 c 0xff08
470 583 m 0xff0040
 470 566 457 553 440 553 c 0
 423 553 410 566 410 583 c 0
 410 600 423 613 440 613 c 0
 457 613 470 600 470 583 c 0xff0040
310 583 m 0xff04
 310 566 297 553 280 553 c 0
 263 553 250 566 250 583 c 0
 250 600 263 613 280 613 c 0
 297 613 310 600 310 583 c 0xff04
150 583 m 0
 150 566 137 553 120 553 c 0
 103 553 90 566 90 583 c 0
 90 600 103 613 120 613 c 0
 137 613 150 600 150 583 c 0
435 667 m 0xff0080
 435 650 422 637 405 637 c 0
 388 637 375 650 375 667 c 0
 375 684 388 697 405 697 c 0
 422 697 435 684 435 667 c 0xff0080
328 667 m 0xff02
 328 650 315 637 298 637 c 0
 281 637 268 650 268 667 c 0
 268 684 281 697 298 697 c 0
 315 697 328 684 328 667 c 0xff02
221 667 m 0xff80
 221 650 208 637 191 637 c 0
 174 637 161 650 161 667 c 0
 161 684 174 697 191 697 c 0
 208 697 221 684 221 667 c 0xff80
346 750 m 0xff01
 346 733 333 720 316 720 c 0
 299 720 286 733 286 750 c 0
 286 767 299 780 316 780 c 0
 333 780 346 767 346 750 c 0xff01
EndSplineSet
EndChar

StartChar: glyph1
Encoding: 8216 8216 1
Width: 600
VWidth: 0
UnlinkRmOvrlpSave: 1
Flags: W
HStem: 553 60<127.106 184.894> 637 60<91.1064 148.894> 720 60<109.106 166.894>
VStem: 90 60<638.106 695.894> 108 60<721.106 778.894> 126 60<554.106 611.894>
LayerCount: 2
Back
Fore
SplineSet
186 583 m 0xe4
 186 566 173 553 156 553 c 0
 139 553 126 566 126 583 c 0
 126 600 139 613 156 613 c 0
 173 613 186 600 186 583 c 0xe4
150 667 m 0xf0
 150 650 137 637 120 637 c 0
 103 637 90 650 90 667 c 0
 90 684 103 697 120 697 c 0
 137 697 150 684 150 667 c 0xf0
168 750 m 0xe8
 168 733 155 720 138 720 c 0
 121 720 108 733 108 750 c 0
 108 767 121 780 138 780 c 0
 155 780 168 767 168 750 c 0xe8
EndSplineSet
EndChar

StartChar: glyph2
Encoding: 8220 8220 2
Width: 600
VWidth: 0
UnlinkRmOvrlpSave: 1
Flags: W
HStem: 553 60<126.106 183.894 286.106 343.894> 637 60<91.1064 148.894 251.106 308.894> 720 60<109.106 166.894 269.106 326.894>
VStem: 90 60<638.106 695.894> 108 60<721.106 778.894> 125 60<554.106 611.894> 250 60<638.106 695.894> 268 60<721.106 778.894> 285 60<554.106 611.894>
LayerCount: 2
Back
Fore
SplineSet
345 583 m 0xe080
 345 566 332 553 315 553 c 0
 298 553 285 566 285 583 c 0
 285 600 298 613 315 613 c 0
 332 613 345 600 345 583 c 0xe080
185 583 m 0xe4
 185 566 172 553 155 553 c 0
 138 553 125 566 125 583 c 0
 125 600 138 613 155 613 c 0
 172 613 185 600 185 583 c 0xe4
310 667 m 0xe2
 310 650 297 637 280 637 c 0
 263 637 250 650 250 667 c 0
 250 684 263 697 280 697 c 0
 297 697 310 684 310 667 c 0xe2
150 667 m 0xf0
 150 650 137 637 120 637 c 0
 103 637 90 650 90 667 c 0
 90 684 103 697 120 697 c 0
 137 697 150 684 150 667 c 0xf0
328 750 m 0xe1
 328 733 315 720 298 720 c 0
 281 720 268 733 268 750 c 0
 268 767 281 780 298 780 c 0
 315 780 328 767 328 750 c 0xe1
168 750 m 0xe8
 168 733 155 720 138 720 c 0
 121 720 108 733 108 750 c 0
 108 767 121 780 138 780 c 0
 155 780 168 767 168 750 c 0xe8
EndSplineSet
EndChar

StartChar: dollar
Encoding: 36 36 4
Width: 600
VWidth: 0
UnlinkRmOvrlpSave: 1
Flags: W
HStem: 220 60<180.106 237.894> 303 60<91.1064 148.894 198.106 255.894 305.106 362.894> 387 60<216.106 273.894 376.106 433.894> 470 60<127.106 184.894 234.106 291.894 341.106 398.894> 553 60<91.1064 148.894 251.106 308.894> 637 60<162.106 219.894 269.106 326.894 376.106 433.894> 720 60<287.106 344.894>
VStem: 90 60<304.106 361.894 554.106 611.894> 126 60<471.106 528.894> 161 60<638.106 695.894> 179 60<221.106 278.894> 197 60<304.106 361.894> 215 60<388.106 445.894> 233 60<471.106 528.894> 250 60<554.106 611.894> 268 60<638.106 695.894> 286 60<721.106 778.894> 304 60<304.106 361.894> 340 60<471.106 528.894> 375 60<388.106 445.894 638.106 695.894>
LayerCount: 2
Back
Fore
SplineSet
239 250 m 0xfe20
 239 233 226 220 209 220 c 0
 192 220 179 233 179 250 c 0
 179 267 192 280 209 280 c 0
 226 280 239 267 239 250 c 0xfe20
364 333 m 0xfe0040
 364 316 351 303 334 303 c 0
 317 303 304 316 304 333 c 0
 304 350 317 363 334 363 c 0
 351 363 364 350 364 333 c 0xfe0040
257 333 m 0xfe10
 257 316 244 303 227 303 c 0
 210 303 197 316 197 333 c 0
 197 350 210 363 227 363 c 0
 244 363 257 350 257 333 c 0xfe10
150 333 m 0xff
 150 316 137 303 120 303 c 0
 103 303 90 316 90 333 c 0
 90 350 103 363 120 363 c 0
 137 363 150 350 150 333 c 0xff
435 417 m 0xfe0010
 435 400 422 387 405 387 c 0
 388 387 375 400 375 417 c 0
 375 434 388 447 405 447 c 0
 422 447 435 434 435 417 c 0xfe0010
275 417 m 0xfe08
 275 400 262 387 245 387 c 0
 228 387 215 400 215 417 c 0
 215 434 228 447 245 447 c 0
 262 447 275 434 275 417 c 0xfe08
400 500 m 0xfe0020
 400 483 387 470 370 470 c 0
 353 470 340 483 340 500 c 0
 340 517 353 530 370 530 c 0
 387 530 400 517 400 500 c 0xfe0020
293 500 m 0xfe04
 293 483 280 470 263 470 c 0
 246 470 233 483 233 500 c 0
 233 517 246 530 263 530 c 0
 280 530 293 517 293 500 c 0xfe04
186 500 m 0xfe80
 186 483 173 470 156 470 c 0
 139 470 126 483 126 500 c 0
 126 517 139 530 156 530 c 0
 173 530 186 517 186 500 c 0xfe80
310 583 m 0xfe02
 310 566 297 553 280 553 c 0
 263 553 250 566 250 583 c 0
 250 600 263 613 280 613 c 0
 297 613 310 600 310 583 c 0xfe02
150 583 m 0xff
 150 566 137 553 120 553 c 0
 103 553 90 566 90 583 c 0
 90 600 103 613 120 613 c 0
 137 613 150 600 150 583 c 0xff
435 667 m 0xfe0010
 435 650 422 637 405 637 c 0
 388 637 375 650 375 667 c 0
 375 684 388 697 405 697 c 0
 422 697 435 684 435 667 c 0xfe0010
328 667 m 0xfe01
 328 650 315 637 298 637 c 0
 281 637 268 650 268 667 c 0
 268 684 281 697 298 697 c 0
 315 697 328 684 328 667 c 0xfe01
221 667 m 0xfe40
 221 650 208 637 191 637 c 0
 174 637 161 650 161 667 c 0
 161 684 174 697 191 697 c 0
 208 697 221 684 221 667 c 0xfe40
346 750 m 0xfe0080
 346 733 333 720 316 720 c 0
 299 720 286 733 286 750 c 0
 286 767 299 780 316 780 c 0
 333 780 346 767 346 750 c 0xfe0080
EndSplineSet
EndChar

StartChar: section
Encoding: 167 167 5
Width: 600
VWidth: 0
UnlinkRmOvrlpSave: 1
Flags: W
HStem: 220 60<91.1064 148.894 198.106 255.894> 303 60<269.106 326.894> 387 60<234.106 291.894 340.106 397.894> 470 60<198.106 255.894 412.106 469.894> 553 60<269.106 326.894 375.106 432.894> 637 60<340.106 397.894> 720 60<411.106 468.894 518.106 575.894>
VStem: 90 60<221.106 278.894> 197 60<221.106 278.894 471.106 528.894> 233 60<388.106 445.894> 268 60<304.106 361.894 554.106 611.894> 339 60<388.106 445.894 638.106 695.894> 374 60<554.106 611.894> 411 60<471.106 528.894 721.312 778.688> 517 60<721.106 778.894>
LayerCount: 2
Back
Fore
SplineSet
257 250 m 0xff82
 257 233 244 220 227 220 c 0
 210 220 197 233 197 250 c 0
 197 267 210 280 227 280 c 0
 244 280 257 267 257 250 c 0xff82
150 250 m 0
 150 233 137 220 120 220 c 0
 103 220 90 233 90 250 c 0
 90 267 103 280 120 280 c 0
 137 280 150 267 150 250 c 0
328 333 m 0xff22
 328 316 315 303 298 303 c 0
 281 303 268 316 268 333 c 0
 268 350 281 363 298 363 c 0
 315 363 328 350 328 333 c 0xff22
399 417 m 0xff12
 399 400 386 387 369 387 c 0
 352 387 339 400 339 417 c 0
 339 434 352 447 369 447 c 0
 386 447 399 434 399 417 c 0xff12
293 417 m 0xff42
 293 400 280 387 263 387 c 0
 246 387 233 400 233 417 c 0
 233 434 246 447 263 447 c 0
 280 447 293 434 293 417 c 0xff42
471 500 m 0xff06
 471 483 458 470 441 470 c 0
 424 470 411 483 411 500 c 0
 411 517 424 530 441 530 c 0
 458 530 471 517 471 500 c 0xff06
257 500 m 0xff82
 257 483 244 470 227 470 c 0
 210 470 197 483 197 500 c 0
 197 517 210 530 227 530 c 0
 244 530 257 517 257 500 c 0xff82
434 583 m 0xff0a
 434 566 421 553 404 553 c 0
 387 553 374 566 374 583 c 0
 374 600 387 613 404 613 c 0
 421 613 434 600 434 583 c 0xff0a
328 583 m 0xff22
 328 566 315 553 298 553 c 0
 281 553 268 566 268 583 c 0
 268 600 281 613 298 613 c 0
 315 613 328 600 328 583 c 0xff22
399 667 m 0xff12
 399 650 386 637 369 637 c 0
 352 637 339 650 339 667 c 0
 339 684 352 697 369 697 c 0
 386 697 399 684 399 667 c 0xff12
577 750 m 0
 577 733 564 720 547 720 c 0
 530 720 517 733 517 750 c 0
 517 767 530 780 547 780 c 0
 564 780 577 767 577 750 c 0
470 750 m 0
 470 733 457 720 440 720 c 0
 423 720 410 733 410 750 c 0
 410 767 423 780 440 780 c 0
 457 780 470 767 470 750 c 0
EndSplineSet
EndChar

StartChar: parenleft
Encoding: 40 40 6
Width: 600
VWidth: 0
UnlinkRmOvrlpSave: 1
Flags: W
HStem: 220 60<161.106 218.894> 303 60<126.106 183.894> 387 60<91.1064 148.894> 470 60<109.106 166.894> 553 60<126.106 183.894> 637 60<197.106 254.894> 720 60<268.106 325.894>
VStem: 90 60<388.106 445.894> 108 60<471.106 528.894> 125 60<304.106 361.894 554.106 611.894> 160 60<221.106 278.894> 196 60<638.106 695.894> 267 60<721.106 778.894>
LayerCount: 2
Back
Fore
SplineSet
220 250 m 0xfe28
 220 233 207 220 190 220 c 0
 173 220 160 233 160 250 c 0
 160 267 173 280 190 280 c 0
 207 280 220 267 220 250 c 0xfe28
185 333 m 0xfe48
 185 316 172 303 155 303 c 0
 138 303 125 316 125 333 c 0
 125 350 138 363 155 363 c 0
 172 363 185 350 185 333 c 0xfe48
150 417 m 0xff08
 150 400 137 387 120 387 c 0
 103 387 90 400 90 417 c 0
 90 434 103 447 120 447 c 0
 137 447 150 434 150 417 c 0xff08
168 500 m 0xfe88
 168 483 155 470 138 470 c 0
 121 470 108 483 108 500 c 0
 108 517 121 530 138 530 c 0
 155 530 168 517 168 500 c 0xfe88
185 583 m 0xfe48
 185 566 172 553 155 553 c 0
 138 553 125 566 125 583 c 0
 125 600 138 613 155 613 c 0
 172 613 185 600 185 583 c 0xfe48
256 667 m 0xfe18
 256 650 243 637 226 637 c 0
 209 637 196 650 196 667 c 0
 196 684 209 697 226 697 c 0
 243 697 256 684 256 667 c 0xfe18
327 750 m 0
 327 733 314 720 297 720 c 0
 280 720 267 733 267 750 c 0
 267 767 280 780 297 780 c 0
 314 780 327 767 327 750 c 0
EndSplineSet
EndChar

StartChar: comma
Encoding: 44 44 7
Width: 600
VWidth: 0
UnlinkRmOvrlpSave: 1
Flags: W
HStem: 220 60<91.1064 148.894> 303 60<162.106 219.894> 387 60<127.106 184.894 233.106 290.894> 470 60<145.106 202.894 251.106 308.894>
VStem: 90 60<221.106 278.894> 126 60<388.106 445.894> 144 60<471.106 528.894> 161 60<304.106 361.894> 232 60<388.106 445.894> 250 60<471.106 528.894>
LayerCount: 2
Back
Fore
SplineSet
150 250 m 0xf8
 150 233 137 220 120 220 c 0
 103 220 90 233 90 250 c 0
 90 267 103 280 120 280 c 0
 137 280 150 267 150 250 c 0xf8
221 333 m 0xf1
 221 316 208 303 191 303 c 0
 174 303 161 316 161 333 c 0
 161 350 174 363 191 363 c 0
 208 363 221 350 221 333 c 0xf1
292 417 m 0xf080
 292 400 279 387 262 387 c 0
 245 387 232 400 232 417 c 0
 232 434 245 447 262 447 c 0
 279 447 292 434 292 417 c 0xf080
186 417 m 0xf4
 186 400 173 387 156 387 c 0
 139 387 126 400 126 417 c 0
 126 434 139 447 156 447 c 0
 173 447 186 434 186 417 c 0xf4
310 500 m 0xf040
 310 483 297 470 280 470 c 0
 263 470 250 483 250 500 c 0
 250 517 263 530 280 530 c 0
 297 530 310 517 310 500 c 0xf040
204 500 m 0xf2
 204 483 191 470 174 470 c 0
 157 470 144 483 144 500 c 0
 144 517 157 530 174 530 c 0
 191 530 204 517 204 500 c 0xf2
EndSplineSet
EndChar

StartChar: zero
Encoding: 48 48 8
Width: 600
VWidth: 0
UnlinkRmOvrlpSave: 1
Flags: W
HStem: 220 60<162.106 219.894 268.106 325.894> 303 60<126.106 183.894 340.106 397.894> 387 60<91.1064 148.894 411.106 468.894> 470 60<109.106 166.894 429.106 486.894> 553 60<126.106 183.894 446.106 503.894> 637 60<197.106 254.894 411.106 468.894> 720 60<269.106 326.894 375.106 432.894>
VStem: 90 60<388.106 445.894> 108 60<471.106 528.894> 125 60<304.106 361.894 554.106 611.894> 161 60<221.106 278.894> 196 60<638.106 695.894> 267 60<221.106 278.894 721.312 778.688> 339 60<304.106 361.894> 374 60<721.106 778.894> 410 60<388.106 445.894 638.106 695.894> 428 60<471.106 528.894> 445 60<554.106 611.894>
LayerCount: 2
Back
Fore
SplineSet
327 250 m 0xfe08
 327 233 314 220 297 220 c 0
 280 220 267 233 267 250 c 0
 267 267 280 280 297 280 c 0
 314 280 327 267 327 250 c 0xfe08
221 250 m 0xfe28
 221 233 208 220 191 220 c 0
 174 220 161 233 161 250 c 0
 161 267 174 280 191 280 c 0
 208 280 221 267 221 250 c 0xfe28
399 333 m 0xfe0c
 399 316 386 303 369 303 c 0
 352 303 339 316 339 333 c 0
 339 350 352 363 369 363 c 0
 386 363 399 350 399 333 c 0xfe0c
185 333 m 0xfe48
 185 316 172 303 155 303 c 0
 138 303 125 316 125 333 c 0
 125 350 138 363 155 363 c 0
 172 363 185 350 185 333 c 0xfe48
470 417 m 0xfe09
 470 400 457 387 440 387 c 0
 423 387 410 400 410 417 c 0
 410 434 423 447 440 447 c 0
 457 447 470 434 470 417 c 0xfe09
150 417 m 0xff08
 150 400 137 387 120 387 c 0
 103 387 90 400 90 417 c 0
 90 434 103 447 120 447 c 0
 137 447 150 434 150 417 c 0xff08
488 500 m 0xfe0880
 488 483 475 470 458 470 c 0
 441 470 428 483 428 500 c 0
 428 517 441 530 458 530 c 0
 475 530 488 517 488 500 c 0xfe0880
168 500 m 0xfe88
 168 483 155 470 138 470 c 0
 121 470 108 483 108 500 c 0
 108 517 121 530 138 530 c 0
 155 530 168 517 168 500 c 0xfe88
505 583 m 0xfe0840
 505 566 492 553 475 553 c 0
 458 553 445 566 445 583 c 0
 445 600 458 613 475 613 c 0
 492 613 505 600 505 583 c 0xfe0840
185 583 m 0xfe48
 185 566 172 553 155 553 c 0
 138 553 125 566 125 583 c 0
 125 600 138 613 155 613 c 0
 172 613 185 600 185 583 c 0xfe48
470 667 m 0xfe09
 470 650 457 637 440 637 c 0
 423 637 410 650 410 667 c 0
 410 684 423 697 440 697 c 0
 457 697 470 684 470 667 c 0xfe09
256 667 m 0xfe18
 256 650 243 637 226 637 c 0
 209 637 196 650 196 667 c 0
 196 684 209 697 226 697 c 0
 243 697 256 684 256 667 c 0xfe18
434 750 m 0xfe0a
 434 733 421 720 404 720 c 0
 387 720 374 733 374 750 c 0
 374 767 387 780 404 780 c 0
 421 780 434 767 434 750 c 0xfe0a
328 750 m 0
 328 733 315 720 298 720 c 0
 281 720 268 733 268 750 c 0
 268 767 281 780 298 780 c 0
 315 780 328 767 328 750 c 0
EndSplineSet
EndChar

StartChar: glyph9
Encoding: 9785 9785 9
Width: 600
VWidth: 0
UnlinkRmOvrlpSave: 1
Flags: W
HStem: 303 60<91.1064 148.894 411.106 468.894> 387 60<162.106 219.894 269.106 326.894 376.106 433.894> 637 60<215.106 272.894 429.106 486.894>
VStem: 90 60<304.106 361.894> 161 60<388.106 445.894> 214 60<638.106 695.894> 268 60<388.106 445.894> 375 60<388.106 445.894> 410 60<304.106 361.894> 428 60<638.106 695.894>
LayerCount: 2
Back
Fore
SplineSet
470 333 m 0xf080
 470 316 457 303 440 303 c 0
 423 303 410 316 410 333 c 0
 410 350 423 363 440 363 c 0
 457 363 470 350 470 333 c 0xf080
150 333 m 0
 150 316 137 303 120 303 c 0
 103 303 90 316 90 333 c 0
 90 350 103 363 120 363 c 0
 137 363 150 350 150 333 c 0
435 417 m 0xf1
 435 400 422 387 405 387 c 0
 388 387 375 400 375 417 c 0
 375 434 388 447 405 447 c 0
 422 447 435 434 435 417 c 0xf1
328 417 m 0xf2
 328 400 315 387 298 387 c 0
 281 387 268 400 268 417 c 0
 268 434 281 447 298 447 c 0
 315 447 328 434 328 417 c 0xf2
221 417 m 0xf8
 221 400 208 387 191 387 c 0
 174 387 161 400 161 417 c 0
 161 434 174 447 191 447 c 0
 208 447 221 434 221 417 c 0xf8
488 667 m 0xf040
 488 650 475 637 458 637 c 0
 441 637 428 650 428 667 c 0
 428 684 441 697 458 697 c 0
 475 697 488 684 488 667 c 0xf040
274 667 m 0xf4
 274 650 261 637 244 637 c 0
 227 637 214 650 214 667 c 0
 214 684 227 697 244 697 c 0
 261 697 274 684 274 667 c 0xf4
EndSplineSet
EndChar

StartChar: four
Encoding: 52 52 10
Width: 600
VWidth: 0
UnlinkRmOvrlpSave: 1
Flags: W
HStem: 220 60<322.106 379.894> 303 60<340.106 397.894> 387 60<91.1064 148.894 198.106 255.894 304.106 361.894 411.106 468.894> 470 60<162.106 219.894 376.106 433.894> 553 60<233.106 290.894 393.106 450.894> 637 60<304.106 361.894 411.106 468.894> 720 60<375.106 432.894>
VStem: 90 60<388.106 445.894> 161 60<471.106 528.894> 197 60<388.106 445.894> 232 60<554.106 611.894> 303 60<388.106 445.894 638.106 695.894> 321 60<221.106 278.894> 339 60<304.106 361.894> 375 60<471.106 528.894 721.312 778.688> 392 60<554.106 611.894> 410 60<388.106 445.894 638.106 695.894>
LayerCount: 2
Back
Fore
SplineSet
381 250 m 0xff08
 381 233 368 220 351 220 c 0
 334 220 321 233 321 250 c 0
 321 267 334 280 351 280 c 0
 368 280 381 267 381 250 c 0xff08
399 333 m 0xff04
 399 316 386 303 369 303 c 0
 352 303 339 316 339 333 c 0
 339 350 352 363 369 363 c 0
 386 363 399 350 399 333 c 0xff04
470 417 m 0xff0080
 470 400 457 387 440 387 c 0
 423 387 410 400 410 417 c 0
 410 434 423 447 440 447 c 0
 457 447 470 434 470 417 c 0xff0080
363 417 m 0xff10
 363 400 350 387 333 387 c 0
 316 387 303 400 303 417 c 0
 303 434 316 447 333 447 c 0
 350 447 363 434 363 417 c 0xff10
257 417 m 0xff40
 257 400 244 387 227 387 c 0
 210 387 197 400 197 417 c 0
 197 434 210 447 227 447 c 0
 244 447 257 434 257 417 c 0xff40
150 417 m 0
 150 400 137 387 120 387 c 0
 103 387 90 400 90 417 c 0
 90 434 103 447 120 447 c 0
 137 447 150 434 150 417 c 0
435 500 m 0xff02
 435 483 422 470 405 470 c 0
 388 470 375 483 375 500 c 0
 375 517 388 530 405 530 c 0
 422 530 435 517 435 500 c 0xff02
221 500 m 0xff80
 221 483 208 470 191 470 c 0
 174 470 161 483 161 500 c 0
 161 517 174 530 191 530 c 0
 208 530 221 517 221 500 c 0xff80
452 583 m 0xff01
 452 566 439 553 422 553 c 0
 405 553 392 566 392 583 c 0
 392 600 405 613 422 613 c 0
 439 613 452 600 452 583 c 0xff01
292 583 m 0xff20
 292 566 279 553 262 553 c 0
 245 553 232 566 232 583 c 0
 232 600 245 613 262 613 c 0
 279 613 292 600 292 583 c 0xff20
470 667 m 0xff0080
 470 650 457 637 440 637 c 0
 423 637 410 650 410 667 c 0
 410 684 423 697 440 697 c 0
 457 697 470 684 470 667 c 0xff0080
363 667 m 0xff10
 363 650 350 637 333 637 c 0
 316 637 303 650 303 667 c 0
 303 684 316 697 333 697 c 0
 350 697 363 684 363 667 c 0xff10
434 750 m 0
 434 733 421 720 404 720 c 0
 387 720 374 733 374 750 c 0
 374 767 387 780 404 780 c 0
 421 780 434 767 434 750 c 0
EndSplineSet
EndChar

StartChar: periodcentered
Encoding: 183 183 11
Width: 600
VWidth: 0
UnlinkRmOvrlpSave: 1
Flags: W
HStem: 387 60<127.106 184.894 233.106 290.894> 470 60<91.1064 148.894 198.106 255.894 305.106 362.894> 553 60<162.106 219.894 268.106 325.894>
VStem: 90 60<471.106 528.894> 126 60<388.106 445.894> 161 60<554.106 611.894> 197 60<471.106 528.894> 232 60<388.106 445.894> 267 60<554.106 611.894> 304 60<471.106 528.894>
CounterMasks: 1 e0
LayerCount: 2
Back
Fore
SplineSet
292 417 m 0xe1
 292 400 279 387 262 387 c 0
 245 387 232 400 232 417 c 0
 232 434 245 447 262 447 c 0
 279 447 292 434 292 417 c 0xe1
186 417 m 0xe8
 186 400 173 387 156 387 c 0
 139 387 126 400 126 417 c 0
 126 434 139 447 156 447 c 0
 173 447 186 434 186 417 c 0xe8
364 500 m 0xe040
 364 483 351 470 334 470 c 0
 317 470 304 483 304 500 c 0
 304 517 317 530 334 530 c 0
 351 530 364 517 364 500 c 0xe040
257 500 m 0xe2
 257 483 244 470 227 470 c 0
 210 470 197 483 197 500 c 0
 197 517 210 530 227 530 c 0
 244 530 257 517 257 500 c 0xe2
150 500 m 0xf0
 150 483 137 470 120 470 c 0
 103 470 90 483 90 500 c 0
 90 517 103 530 120 530 c 0
 137 530 150 517 150 500 c 0xf0
327 583 m 0xe080
 327 566 314 553 297 553 c 0
 280 553 267 566 267 583 c 0
 267 600 280 613 297 613 c 0
 314 613 327 600 327 583 c 0xe080
221 583 m 0xe4
 221 566 208 553 191 553 c 0
 174 553 161 566 161 583 c 0
 161 600 174 613 191 613 c 0
 208 613 221 600 221 583 c 0xe4
EndSplineSet
EndChar

StartChar: eight
Encoding: 56 56 12
Width: 600
VWidth: 0
UnlinkRmOvrlpSave: 1
Flags: W
HStem: 220 60<126.106 183.894 233.106 290.894 340.106 397.894> 303 60<91.1064 148.894 411.106 468.894> 387 60<109.106 166.894 429.106 486.894> 470 60<180.106 237.894 287.106 344.894 394.106 451.894> 553 60<144.106 201.894 464.106 521.894> 637 60<162.106 219.894 482.106 539.894> 720 60<233.106 290.894 340.106 397.894 447.106 504.894>
VStem: 90 60<304.106 361.894> 108 60<388.106 445.894> 125 60<221.106 278.894> 143 60<554.106 611.894> 161 60<638.106 695.894> 179 60<471.106 528.894> 232 60<221.106 278.894 721.106 778.894> 286 60<471.106 528.894> 339 60<221.106 278.894 721.106 778.894> 393 60<471.106 528.894> 410 60<304.106 361.894> 428 60<388.106 445.894> 446 60<721.106 778.894> 463 60<554.106 611.894> 481 60<638.106 695.894>
LayerCount: 2
Back
Fore
SplineSet
399 250 m 0xfe01
 399 233 386 220 369 220 c 0
 352 220 339 233 339 250 c 0
 339 267 352 280 369 280 c 0
 386 280 399 267 399 250 c 0xfe01
292 250 m 0xfe04
 292 233 279 220 262 220 c 0
 245 220 232 233 232 250 c 0
 232 267 245 280 262 280 c 0
 279 280 292 267 292 250 c 0xfe04
185 250 m 0xfe40
 185 233 172 220 155 220 c 0
 138 220 125 233 125 250 c 0
 125 267 138 280 155 280 c 0
 172 280 185 267 185 250 c 0xfe40
470 333 m 0xfe0040
 470 316 457 303 440 303 c 0
 423 303 410 316 410 333 c 0
 410 350 423 363 440 363 c 0
 457 363 470 350 470 333 c 0xfe0040
150 333 m 0xff
 150 316 137 303 120 303 c 0
 103 303 90 316 90 333 c 0
 90 350 103 363 120 363 c 0
 137 363 150 350 150 333 c 0xff
488 417 m 0xfe0020
 488 400 475 387 458 387 c 0
 441 387 428 400 428 417 c 0
 428 434 441 447 458 447 c 0
 475 447 488 434 488 417 c 0xfe0020
168 417 m 0xfe80
 168 400 155 387 138 387 c 0
 121 387 108 400 108 417 c 0
 108 434 121 447 138 447 c 0
 155 447 168 434 168 417 c 0xfe80
453 500 m 0xfe0080
 453 483 440 470 423 470 c 0
 406 470 393 483 393 500 c 0
 393 517 406 530 423 530 c 0
 440 530 453 517 453 500 c 0xfe0080
346 500 m 0xfe02
 346 483 333 470 316 470 c 0
 299 470 286 483 286 500 c 0
 286 517 299 530 316 530 c 0
 333 530 346 517 346 500 c 0xfe02
239 500 m 0xfe08
 239 483 226 470 209 470 c 0
 192 470 179 483 179 500 c 0
 179 517 192 530 209 530 c 0
 226 530 239 517 239 500 c 0xfe08
523 583 m 0xfe0008
 523 566 510 553 493 553 c 0
 476 553 463 566 463 583 c 0
 463 600 476 613 493 613 c 0
 510 613 523 600 523 583 c 0xfe0008
203 583 m 0xfe20
 203 566 190 553 173 553 c 0
 156 553 143 566 143 583 c 0
 143 600 156 613 173 613 c 0
 190 613 203 600 203 583 c 0xfe20
541 667 m 0xfe0004
 541 650 528 637 511 637 c 0
 494 637 481 650 481 667 c 0
 481 684 494 697 511 697 c 0
 528 697 541 684 541 667 c 0xfe0004
221 667 m 0xfe10
 221 650 208 637 191 637 c 0
 174 637 161 650 161 667 c 0
 161 684 174 697 191 697 c 0
 208 697 221 684 221 667 c 0xfe10
506 750 m 0xfe0010
 506 733 493 720 476 720 c 0
 459 720 446 733 446 750 c 0
 446 767 459 780 476 780 c 0
 493 780 506 767 506 750 c 0xfe0010
399 750 m 0xfe01
 399 733 386 720 369 720 c 0
 352 720 339 733 339 750 c 0
 339 767 352 780 369 780 c 0
 386 780 399 767 399 750 c 0xfe01
292 750 m 0xfe04
 292 733 279 720 262 720 c 0
 245 720 232 733 232 750 c 0
 232 767 245 780 262 780 c 0
 279 780 292 767 292 750 c 0xfe04
EndSplineSet
EndChar

StartChar: less
Encoding: 60 60 13
Width: 600
VWidth: 0
UnlinkRmOvrlpSave: 1
Flags: W
HStem: 220 60<357.106 414.894> 303 60<268.106 325.894> 387 60<180.106 237.894> 470 60<91.1064 148.894> 553 60<215.106 272.894> 637 60<339.106 396.894> 720 60<464.106 521.894>
VStem: 90 60<471.106 528.894> 179 60<388.106 445.894> 214 60<554.106 611.894> 267 60<304.106 361.894> 338 60<638.106 695.894> 356 60<221.106 278.894> 463 60<721.106 778.894>
LayerCount: 2
Back
Fore
SplineSet
416 250 m 0xff0c
 416 233 403 220 386 220 c 0
 369 220 356 233 356 250 c 0
 356 267 369 280 386 280 c 0
 403 280 416 267 416 250 c 0xff0c
327 333 m 0xff24
 327 316 314 303 297 303 c 0
 280 303 267 316 267 333 c 0
 267 350 280 363 297 363 c 0
 314 363 327 350 327 333 c 0xff24
239 417 m 0xff84
 239 400 226 387 209 387 c 0
 192 387 179 400 179 417 c 0
 179 434 192 447 209 447 c 0
 226 447 239 434 239 417 c 0xff84
150 500 m 0
 150 483 137 470 120 470 c 0
 103 470 90 483 90 500 c 0
 90 517 103 530 120 530 c 0
 137 530 150 517 150 500 c 0
274 583 m 0xff44
 274 566 261 553 244 553 c 0
 227 553 214 566 214 583 c 0
 214 600 227 613 244 613 c 0
 261 613 274 600 274 583 c 0xff44
398 667 m 0xff14
 398 650 385 637 368 637 c 0
 351 637 338 650 338 667 c 0
 338 684 351 697 368 697 c 0
 385 697 398 684 398 667 c 0xff14
523 750 m 0
 523 733 510 720 493 720 c 0
 476 720 463 733 463 750 c 0
 463 767 476 780 493 780 c 0
 510 780 523 767 523 750 c 0
EndSplineSet
EndChar

StartChar: at
Encoding: 64 64 14
Width: 600
VWidth: 0
UnlinkRmOvrlpSave: 1
Flags: W
HStem: 220 60<126.106 183.894 233.106 290.894 340.106 397.894> 303 60<91.1064 148.894> 387 60<109.106 166.894 269.106 326.894 376.106 433.894> 470 60<127.106 184.894 287.106 344.894 447.106 504.894> 553 60<144.106 201.894 357.106 414.894 464.106 521.894> 637 60<162.106 219.894 482.106 539.894> 720 60<233.106 290.894 340.106 397.894 447.106 504.894>
VStem: 90 60<304.106 361.894> 108 60<388.106 445.894> 125 60<221.106 278.894 471.312 528.688> 143 60<554.106 611.894> 161 60<638.106 695.894> 232 60<221.106 278.894 721.106 778.894> 268 60<388.106 445.894> 286 60<471.106 528.894> 339 60<221.106 278.894 721.106 778.894> 356 60<554.106 611.894> 375 60<388.106 445.894> 446 60<471.106 528.894 721.106 778.894> 463 60<554.106 611.894> 481 60<638.106 695.894>
LayerCount: 2
Back
Fore
SplineSet
399 250 m 0xfe01
 399 233 386 220 369 220 c 0
 352 220 339 233 339 250 c 0
 339 267 352 280 369 280 c 0
 386 280 399 267 399 250 c 0xfe01
292 250 m 0xfe08
 292 233 279 220 262 220 c 0
 245 220 232 233 232 250 c 0
 232 267 245 280 262 280 c 0
 279 280 292 267 292 250 c 0xfe08
185 250 m 0xfe40
 185 233 172 220 155 220 c 0
 138 220 125 233 125 250 c 0
 125 267 138 280 155 280 c 0
 172 280 185 267 185 250 c 0xfe40
150 333 m 0xff
 150 316 137 303 120 303 c 0
 103 303 90 316 90 333 c 0
 90 350 103 363 120 363 c 0
 137 363 150 350 150 333 c 0xff
435 417 m 0xfe0040
 435 400 422 387 405 387 c 0
 388 387 375 400 375 417 c 0
 375 434 388 447 405 447 c 0
 422 447 435 434 435 417 c 0xfe0040
328 417 m 0xfe04
 328 400 315 387 298 387 c 0
 281 387 268 400 268 417 c 0
 268 434 281 447 298 447 c 0
 315 447 328 434 328 417 c 0xfe04
168 417 m 0xfe80
 168 400 155 387 138 387 c 0
 121 387 108 400 108 417 c 0
 108 434 121 447 138 447 c 0
 155 447 168 434 168 417 c 0xfe80
506 500 m 0xfe0020
 506 483 493 470 476 470 c 0
 459 470 446 483 446 500 c 0
 446 517 459 530 476 530 c 0
 493 530 506 517 506 500 c 0xfe0020
346 500 m 0xfe02
 346 483 333 470 316 470 c 0
 299 470 286 483 286 500 c 0
 286 517 299 530 316 530 c 0
 333 530 346 517 346 500 c 0xfe02
186 500 m 0
 186 483 173 470 156 470 c 0
 139 470 126 483 126 500 c 0
 126 517 139 530 156 530 c 0
 173 530 186 517 186 500 c 0
523 583 m 0xfe0010
 523 566 510 553 493 553 c 0
 476 553 463 566 463 583 c 0
 463 600 476 613 493 613 c 0
 510 613 523 600 523 583 c 0xfe0010
416 583 m 0xfe0080
 416 566 403 553 386 553 c 0
 369 553 356 566 356 583 c 0
 356 600 369 613 386 613 c 0
 403 613 416 600 416 583 c 0xfe0080
203 583 m 0xfe20
 203 566 190 553 173 553 c 0
 156 553 143 566 143 583 c 0
 143 600 156 613 173 613 c 0
 190 613 203 600 203 583 c 0xfe20
541 667 m 0xfe0008
 541 650 528 637 511 637 c 0
 494 637 481 650 481 667 c 0
 481 684 494 697 511 697 c 0
 528 697 541 684 541 667 c 0xfe0008
221 667 m 0xfe10
 221 650 208 637 191 637 c 0
 174 637 161 650 161 667 c 0
 161 684 174 697 191 697 c 0
 208 697 221 684 221 667 c 0xfe10
506 750 m 0xfe0020
 506 733 493 720 476 720 c 0
 459 720 446 733 446 750 c 0
 446 767 459 780 476 780 c 0
 493 780 506 767 506 750 c 0xfe0020
399 750 m 0xfe01
 399 733 386 720 369 720 c 0
 352 720 339 733 339 750 c 0
 339 767 352 780 369 780 c 0
 386 780 399 767 399 750 c 0xfe01
292 750 m 0xfe08
 292 733 279 720 262 720 c 0
 245 720 232 733 232 750 c 0
 232 767 245 780 262 780 c 0
 279 780 292 767 292 750 c 0xfe08
EndSplineSet
EndChar

StartChar: D
Encoding: 68 68 15
Width: 600
VWidth: 0
UnlinkRmOvrlpSave: 1
Flags: W
HStem: 220 60<91.1064 148.894 198.106 255.894 304.106 361.894> 303 60<162.106 219.894 429.106 486.894> 387 60<180.106 237.894 447.106 504.894> 470 60<198.106 255.894 465.106 522.894> 553 60<215.106 272.894 482.106 539.894> 637 60<233.106 290.894 500.106 557.894> 720 60<198.106 255.894 305.106 362.894 411.106 468.894>
VStem: 90 60<221.106 278.894> 161 60<304.106 361.894> 179 60<388.106 445.894> 197 60<221.106 278.894 471.106 528.894 721.106 778.894> 214 60<554.106 611.894> 232 60<638.106 695.894> 303 60<221.106 278.894 721.312 778.688> 410 60<721.106 778.894> 428 60<304.106 361.894> 446 60<388.106 445.894> 464 60<471.106 528.894> 481 60<554.106 611.894> 499 60<638.106 695.894>
LayerCount: 2
Back
Fore
SplineSet
363 250 m 0xff04
 363 233 350 220 333 220 c 0
 316 220 303 233 303 250 c 0
 303 267 316 280 333 280 c 0
 350 280 363 267 363 250 c 0xff04
257 250 m 0xff24
 257 233 244 220 227 220 c 0
 210 220 197 233 197 250 c 0
 197 267 210 280 227 280 c 0
 244 280 257 267 257 250 c 0xff24
150 250 m 0
 150 233 137 220 120 220 c 0
 103 220 90 233 90 250 c 0
 90 267 103 280 120 280 c 0
 137 280 150 267 150 250 c 0
488 333 m 0xff05
 488 316 475 303 458 303 c 0
 441 303 428 316 428 333 c 0
 428 350 441 363 458 363 c 0
 475 363 488 350 488 333 c 0xff05
221 333 m 0xff84
 221 316 208 303 191 303 c 0
 174 303 161 316 161 333 c 0
 161 350 174 363 191 363 c 0
 208 363 221 350 221 333 c 0xff84
506 417 m 0xff0480
 506 400 493 387 476 387 c 0
 459 387 446 400 446 417 c 0
 446 434 459 447 476 447 c 0
 493 447 506 434 506 417 c 0xff0480
239 417 m 0xff44
 239 400 226 387 209 387 c 0
 192 387 179 400 179 417 c 0
 179 434 192 447 209 447 c 0
 226 447 239 434 239 417 c 0xff44
524 500 m 0xff0440
 524 483 511 470 494 470 c 0
 477 470 464 483 464 500 c 0
 464 517 477 530 494 530 c 0
 511 530 524 517 524 500 c 0xff0440
257 500 m 0xff24
 257 483 244 470 227 470 c 0
 210 470 197 483 197 500 c 0
 197 517 210 530 227 530 c 0
 244 530 257 517 257 500 c 0xff24
541 583 m 0xff0420
 541 566 528 553 511 553 c 0
 494 553 481 566 481 583 c 0
 481 600 494 613 511 613 c 0
 528 613 541 600 541 583 c 0xff0420
274 583 m 0xff14
 274 566 261 553 244 553 c 0
 227 553 214 566 214 583 c 0
 214 600 227 613 244 613 c 0
 261 613 274 600 274 583 c 0xff14
559 667 m 0xff0410
 559 650 546 637 529 637 c 0
 512 637 499 650 499 667 c 0
 499 684 512 697 529 697 c 0
 546 697 559 684 559 667 c 0xff0410
292 667 m 0xff0c
 292 650 279 637 262 637 c 0
 245 637 232 650 232 667 c 0
 232 684 245 697 262 697 c 0
 279 697 292 684 292 667 c 0xff0c
470 750 m 0xff06
 470 733 457 720 440 720 c 0
 423 720 410 733 410 750 c 0
 410 767 423 780 440 780 c 0
 457 780 470 767 470 750 c 0xff06
364 750 m 0
 364 733 351 720 334 720 c 0
 317 720 304 733 304 750 c 0
 304 767 317 780 334 780 c 0
 351 780 364 767 364 750 c 0
257 750 m 0xff24
 257 733 244 720 227 720 c 0
 210 720 197 733 197 750 c 0
 197 767 210 780 227 780 c 0
 244 780 257 767 257 750 c 0xff24
EndSplineSet
EndChar

StartChar: Ccedilla
Encoding: 199 199 16
Width: 600
VWidth: 0
UnlinkRmOvrlpSave: 1
Flags: W
HStem: 220 60<215.106 272.894> 303 60<126.106 183.894 233.106 290.894 340.106 397.894> 387 60<91.1064 148.894 411.106 468.894> 470 60<109.106 166.894> 553 60<126.106 183.894> 637 60<144.106 201.894 464.106 521.894> 720 60<215.106 272.894 322.106 379.894 429.106 486.894>
VStem: 90 60<388.106 445.894> 108 60<471.106 528.894> 125 60<304.106 361.894 554.106 611.894> 143 60<638.106 695.894> 214 60<221.106 278.894 721.106 778.894> 232 60<304.106 361.894> 321 60<721.106 778.894> 339 60<304.106 361.894> 410 60<388.106 445.894> 428 60<721.106 778.894> 463 60<638.106 695.894>
LayerCount: 2
Back
Fore
SplineSet
274 250 m 0xfe10
 274 233 261 220 244 220 c 0
 227 220 214 233 214 250 c 0
 214 267 227 280 244 280 c 0
 261 280 274 267 274 250 c 0xfe10
399 333 m 0xfe02
 399 316 386 303 369 303 c 0
 352 303 339 316 339 333 c 0
 339 350 352 363 369 363 c 0
 386 363 399 350 399 333 c 0xfe02
292 333 m 0xfe08
 292 316 279 303 262 303 c 0
 245 303 232 316 232 333 c 0
 232 350 245 363 262 363 c 0
 279 363 292 350 292 333 c 0xfe08
185 333 m 0xfe40
 185 316 172 303 155 303 c 0
 138 303 125 316 125 333 c 0
 125 350 138 363 155 363 c 0
 172 363 185 350 185 333 c 0xfe40
470 417 m 0xfe01
 470 400 457 387 440 387 c 0
 423 387 410 400 410 417 c 0
 410 434 423 447 440 447 c 0
 457 447 470 434 470 417 c 0xfe01
150 417 m 0xff
 150 400 137 387 120 387 c 0
 103 387 90 400 90 417 c 0
 90 434 103 447 120 447 c 0
 137 447 150 434 150 417 c 0xff
168 500 m 0xfe80
 168 483 155 470 138 470 c 0
 121 470 108 483 108 500 c 0
 108 517 121 530 138 530 c 0
 155 530 168 517 168 500 c 0xfe80
185 583 m 0xfe40
 185 566 172 553 155 553 c 0
 138 553 125 566 125 583 c 0
 125 600 138 613 155 613 c 0
 172 613 185 600 185 583 c 0xfe40
523 667 m 0xfe0040
 523 650 510 637 493 637 c 0
 476 637 463 650 463 667 c 0
 463 684 476 697 493 697 c 0
 510 697 523 684 523 667 c 0xfe0040
203 667 m 0xfe20
 203 650 190 637 173 637 c 0
 156 637 143 650 143 667 c 0
 143 684 156 697 173 697 c 0
 190 697 203 684 203 667 c 0xfe20
488 750 m 0xfe0080
 488 733 475 720 458 720 c 0
 441 720 428 733 428 750 c 0
 428 767 441 780 458 780 c 0
 475 780 488 767 488 750 c 0xfe0080
381 750 m 0xfe04
 381 733 368 720 351 720 c 0
 334 720 321 733 321 750 c 0
 321 767 334 780 351 780 c 0
 368 780 381 767 381 750 c 0xfe04
274 750 m 0xfe10
 274 733 261 720 244 720 c 0
 227 720 214 733 214 750 c 0
 214 767 227 780 244 780 c 0
 261 780 274 767 274 750 c 0xfe10
EndSplineSet
EndChar

StartChar: H
Encoding: 72 72 17
Width: 600
VWidth: 0
UnlinkRmOvrlpSave: 1
Flags: W
HStem: 220 60<91.1064 148.894 411.106 468.894> 303 60<109.106 166.894 429.106 486.894> 387 60<127.106 184.894 447.106 504.894> 470 60<145.106 202.894 252.106 309.894 358.106 415.894 465.106 522.894> 553 60<162.106 219.894 482.106 539.894> 637 60<180.106 237.894 500.106 557.894> 720 60<198.106 255.894 518.106 575.894>
VStem: 90 60<221.106 278.894> 108 60<304.106 361.894> 126 60<388.106 445.894> 144 60<471.106 528.894> 161 60<554.106 611.894> 179 60<638.106 695.894> 197 60<721.106 778.894> 251 60<471.106 528.894> 357 60<471.106 528.894> 410 60<221.106 278.894> 428 60<304.106 361.894> 446 60<388.106 445.894> 464 60<471.106 528.894> 481 60<554.106 611.894> 499 60<638.106 695.894> 517 60<721.106 778.894>
LayerCount: 2
Back
Fore
SplineSet
470 250 m 0xfe0080
 470 233 457 220 440 220 c 0
 423 220 410 233 410 250 c 0
 410 267 423 280 440 280 c 0
 457 280 470 267 470 250 c 0xfe0080
150 250 m 0xff
 150 233 137 220 120 220 c 0
 103 220 90 233 90 250 c 0
 90 267 103 280 120 280 c 0
 137 280 150 267 150 250 c 0xff
488 333 m 0xfe0040
 488 316 475 303 458 303 c 0
 441 303 428 316 428 333 c 0
 428 350 441 363 458 363 c 0
 475 363 488 350 488 333 c 0xfe0040
168 333 m 0xfe80
 168 316 155 303 138 303 c 0
 121 303 108 316 108 333 c 0
 108 350 121 363 138 363 c 0
 155 363 168 350 168 333 c 0xfe80
506 417 m 0xfe0020
 506 400 493 387 476 387 c 0
 459 387 446 400 446 417 c 0
 446 434 459 447 476 447 c 0
 493 447 506 434 506 417 c 0xfe0020
186 417 m 0xfe40
 186 400 173 387 156 387 c 0
 139 387 126 400 126 417 c 0
 126 434 139 447 156 447 c 0
 173 447 186 434 186 417 c 0xfe40
524 500 m 0xfe0010
 524 483 511 470 494 470 c 0
 477 470 464 483 464 500 c 0
 464 517 477 530 494 530 c 0
 511 530 524 517 524 500 c 0xfe0010
417 500 m 0xfe01
 417 483 404 470 387 470 c 0
 370 470 357 483 357 500 c 0
 357 517 370 530 387 530 c 0
 404 530 417 517 417 500 c 0xfe01
311 500 m 0xfe02
 311 483 298 470 281 470 c 0
 264 470 251 483 251 500 c 0
 251 517 264 530 281 530 c 0
 298 530 311 517 311 500 c 0xfe02
204 500 m 0xfe20
 204 483 191 470 174 470 c 0
 157 470 144 483 144 500 c 0
 144 517 157 530 174 530 c 0
 191 530 204 517 204 500 c 0xfe20
541 583 m 0xfe0008
 541 566 528 553 511 553 c 0
 494 553 481 566 481 583 c 0
 481 600 494 613 511 613 c 0
 528 613 541 600 541 583 c 0xfe0008
221 583 m 0xfe10
 221 566 208 553 191 553 c 0
 174 553 161 566 161 583 c 0
 161 600 174 613 191 613 c 0
 208 613 221 600 221 583 c 0xfe10
559 667 m 0xfe0004
 559 650 546 637 529 637 c 0
 512 637 499 650 499 667 c 0
 499 684 512 697 529 697 c 0
 546 697 559 684 559 667 c 0xfe0004
239 667 m 0xfe08
 239 650 226 637 209 637 c 0
 192 637 179 650 179 667 c 0
 179 684 192 697 209 697 c 0
 226 697 239 684 239 667 c 0xfe08
577 750 m 0xfe0002
 577 733 564 720 547 720 c 0
 530 720 517 733 517 750 c 0
 517 767 530 780 547 780 c 0
 564 780 577 767 577 750 c 0xfe0002
257 750 m 0xfe04
 257 733 244 720 227 720 c 0
 210 720 197 733 197 750 c 0
 197 767 210 780 227 780 c 0
 244 780 257 767 257 750 c 0xfe04
EndSplineSet
EndChar

StartChar: Edieresis
Encoding: 203 203 18
Width: 600
VWidth: 0
UnlinkRmOvrlpSave: 1
Flags: W
HStem: 220 60<91.1064 148.894 198.106 255.894 304.106 361.894 411.106 468.894> 303 60<109.106 166.894> 387 60<127.106 184.894 234.106 291.894 340.106 397.894> 470 60<145.106 202.894> 553 60<162.106 219.894 269.106 326.894 375.106 432.894 482.106 539.894> 720 60<251.106 308.894 465.106 522.894>
VStem: 90 60<221.106 278.894> 108 60<304.106 361.894> 126 60<388.106 445.894> 144 60<471.106 528.894> 161 60<554.106 611.894> 197 60<221.106 278.894> 233 60<388.106 445.894> 250 60<721.106 778.894> 268 60<554.106 611.894> 303 60<221.106 278.894> 339 60<388.106 445.894> 374 60<554.106 611.894> 410 60<221.106 278.894> 464 60<721.106 778.894> 481 60<554.106 611.894>
LayerCount: 2
Back
Fore
SplineSet
470 250 m 0xfc0020
 470 233 457 220 440 220 c 0
 423 220 410 233 410 250 c 0
 410 267 423 280 440 280 c 0
 457 280 470 267 470 250 c 0xfc0020
363 250 m 0xfc01
 363 233 350 220 333 220 c 0
 316 220 303 233 303 250 c 0
 303 267 316 280 333 280 c 0
 350 280 363 267 363 250 c 0xfc01
257 250 m 0xfc10
 257 233 244 220 227 220 c 0
 210 220 197 233 197 250 c 0
 197 267 210 280 227 280 c 0
 244 280 257 267 257 250 c 0xfc10
150 250 m 0xfe
 150 233 137 220 120 220 c 0
 103 220 90 233 90 250 c 0
 90 267 103 280 120 280 c 0
 137 280 150 267 150 250 c 0xfe
168 333 m 0xfd
 168 316 155 303 138 303 c 0
 121 303 108 316 108 333 c 0
 108 350 121 363 138 363 c 0
 155 363 168 350 168 333 c 0xfd
399 417 m 0xfc0080
 399 400 386 387 369 387 c 0
 352 387 339 400 339 417 c 0
 339 434 352 447 369 447 c 0
 386 447 399 434 399 417 c 0xfc0080
293 417 m 0xfc08
 293 400 280 387 263 387 c 0
 246 387 233 400 233 417 c 0
 233 434 246 447 263 447 c 0
 280 447 293 434 293 417 c 0xfc08
186 417 m 0xfc80
 186 400 173 387 156 387 c 0
 139 387 126 400 126 417 c 0
 126 434 139 447 156 447 c 0
 173 447 186 434 186 417 c 0xfc80
204 500 m 0xfc40
 204 483 191 470 174 470 c 0
 157 470 144 483 144 500 c 0
 144 517 157 530 174 530 c 0
 191 530 204 517 204 500 c 0xfc40
541 583 m 0xfc0008
 541 566 528 553 511 553 c 0
 494 553 481 566 481 583 c 0
 481 600 494 613 511 613 c 0
 528 613 541 600 541 583 c 0xfc0008
434 583 m 0xfc0040
 434 566 421 553 404 553 c 0
 387 553 374 566 374 583 c 0
 374 600 387 613 404 613 c 0
 421 613 434 600 434 583 c 0xfc0040
328 583 m 0xfc02
 328 566 315 553 298 553 c 0
 281 553 268 566 268 583 c 0
 268 600 281 613 298 613 c 0
 315 613 328 600 328 583 c 0xfc02
221 583 m 0xfc20
 221 566 208 553 191 553 c 0
 174 553 161 566 161 583 c 0
 161 600 174 613 191 613 c 0
 208 613 221 600 221 583 c 0xfc20
524 750 m 0xfc0010
 524 733 511 720 494 720 c 0
 477 720 464 733 464 750 c 0
 464 767 477 780 494 780 c 0
 511 780 524 767 524 750 c 0xfc0010
310 750 m 0xfc04
 310 733 297 720 280 720 c 0
 263 720 250 733 250 750 c 0
 250 767 263 780 280 780 c 0
 297 780 310 767 310 750 c 0xfc04
EndSplineSet
EndChar

StartChar: L
Encoding: 76 76 19
Width: 600
VWidth: 0
UnlinkRmOvrlpSave: 1
Flags: W
HStem: 220 60<91.1064 148.894 198.106 255.894 304.106 361.894 411.106 468.894> 303 60<109.106 166.894> 387 60<127.106 184.894> 470 60<145.106 202.894> 553 60<162.106 219.894> 637 60<180.106 237.894> 720 60<198.106 255.894>
VStem: 90 60<221.106 278.894> 108 60<304.106 361.894> 126 60<388.106 445.894> 144 60<471.106 528.894> 161 60<554.106 611.894> 179 60<638.106 695.894> 197 60<221.106 278.894 721.106 778.894> 303 60<221.106 278.894> 410 60<221.106 278.894>
LayerCount: 2
Back
Fore
SplineSet
470 250 m 0xfe03
 470 233 457 220 440 220 c 0
 423 220 410 233 410 250 c 0
 410 267 423 280 440 280 c 0
 457 280 470 267 470 250 c 0xfe03
363 250 m 0
 363 233 350 220 333 220 c 0
 316 220 303 233 303 250 c 0
 303 267 316 280 333 280 c 0
 350 280 363 267 363 250 c 0
257 250 m 0xfe07
 257 233 244 220 227 220 c 0
 210 220 197 233 197 250 c 0
 197 267 210 280 227 280 c 0
 244 280 257 267 257 250 c 0xfe07
150 250 m 0xff03
 150 233 137 220 120 220 c 0
 103 220 90 233 90 250 c 0
 90 267 103 280 120 280 c 0
 137 280 150 267 150 250 c 0xff03
168 333 m 0xfe83
 168 316 155 303 138 303 c 0
 121 303 108 316 108 333 c 0
 108 350 121 363 138 363 c 0
 155 363 168 350 168 333 c 0xfe83
186 417 m 0xfe43
 186 400 173 387 156 387 c 0
 139 387 126 400 126 417 c 0
 126 434 139 447 156 447 c 0
 173 447 186 434 186 417 c 0xfe43
204 500 m 0xfe23
 204 483 191 470 174 470 c 0
 157 470 144 483 144 500 c 0
 144 517 157 530 174 530 c 0
 191 530 204 517 204 500 c 0xfe23
221 583 m 0xfe13
 221 566 208 553 191 553 c 0
 174 553 161 566 161 583 c 0
 161 600 174 613 191 613 c 0
 208 613 221 600 221 583 c 0xfe13
239 667 m 0xfe0b
 239 650 226 637 209 637 c 0
 192 637 179 650 179 667 c 0
 179 684 192 697 209 697 c 0
 226 697 239 684 239 667 c 0xfe0b
257 750 m 0xfe07
 257 733 244 720 227 720 c 0
 210 720 197 733 197 750 c 0
 197 767 210 780 227 780 c 0
 244 780 257 767 257 750 c 0xfe07
EndSplineSet
EndChar

StartChar: P
Encoding: 80 80 20
Width: 600
VWidth: 0
UnlinkRmOvrlpSave: 1
Flags: W
HStem: 220 60<91.1064 148.894> 303 60<109.106 166.894> 387 60<127.106 184.894> 470 60<145.106 202.894 252.106 309.894 358.106 415.894> 553 60<162.106 219.894 482.106 539.894> 637 60<180.106 237.894 500.106 557.894> 720 60<198.106 255.894 305.106 362.894 411.106 468.894>
VStem: 90 60<221.106 278.894> 108 60<304.106 361.894> 126 60<388.106 445.894> 144 60<471.106 528.894> 161 60<554.106 611.894> 179 60<638.106 695.894> 197 60<721.106 778.894> 251 60<471.106 528.894> 304 60<721.106 778.894> 357 60<471.106 528.894> 410 60<721.106 778.894> 481 60<554.106 611.894> 499 60<638.106 695.894>
LayerCount: 2
Back
Fore
SplineSet
150 250 m 0xff
 150 233 137 220 120 220 c 0
 103 220 90 233 90 250 c 0
 90 267 103 280 120 280 c 0
 137 280 150 267 150 250 c 0xff
168 333 m 0xfe80
 168 316 155 303 138 303 c 0
 121 303 108 316 108 333 c 0
 108 350 121 363 138 363 c 0
 155 363 168 350 168 333 c 0xfe80
186 417 m 0xfe40
 186 400 173 387 156 387 c 0
 139 387 126 400 126 417 c 0
 126 434 139 447 156 447 c 0
 173 447 186 434 186 417 c 0xfe40
417 500 m 0xfe0080
 417 483 404 470 387 470 c 0
 370 470 357 483 357 500 c 0
 357 517 370 530 387 530 c 0
 404 530 417 517 417 500 c 0xfe0080
311 500 m 0xfe02
 311 483 298 470 281 470 c 0
 264 470 251 483 251 500 c 0
 251 517 264 530 281 530 c 0
 298 530 311 517 311 500 c 0xfe02
204 500 m 0xfe20
 204 483 191 470 174 470 c 0
 157 470 144 483 144 500 c 0
 144 517 157 530 174 530 c 0
 191 530 204 517 204 500 c 0xfe20
541 583 m 0xfe0020
 541 566 528 553 511 553 c 0
 494 553 481 566 481 583 c 0
 481 600 494 613 511 613 c 0
 528 613 541 600 541 583 c 0xfe0020
221 583 m 0xfe10
 221 566 208 553 191 553 c 0
 174 553 161 566 161 583 c 0
 161 600 174 613 191 613 c 0
 208 613 221 600 221 583 c 0xfe10
559 667 m 0xfe0010
 559 650 546 637 529 637 c 0
 512 637 499 650 499 667 c 0
 499 684 512 697 529 697 c 0
 546 697 559 684 559 667 c 0xfe0010
239 667 m 0xfe08
 239 650 226 637 209 637 c 0
 192 637 179 650 179 667 c 0
 179 684 192 697 209 697 c 0
 226 697 239 684 239 667 c 0xfe08
470 750 m 0xfe0040
 470 733 457 720 440 720 c 0
 423 720 410 733 410 750 c 0
 410 767 423 780 440 780 c 0
 457 780 470 767 470 750 c 0xfe0040
364 750 m 0xfe01
 364 733 351 720 334 720 c 0
 317 720 304 733 304 750 c 0
 304 767 317 780 334 780 c 0
 351 780 364 767 364 750 c 0xfe01
257 750 m 0xfe04
 257 733 244 720 227 720 c 0
 210 720 197 733 197 750 c 0
 197 767 210 780 227 780 c 0
 244 780 257 767 257 750 c 0xfe04
EndSplineSet
EndChar

StartChar: T
Encoding: 84 84 21
Width: 600
VWidth: 0
UnlinkRmOvrlpSave: 1
Flags: W
HStem: 220 60<144.106 201.894> 303 60<162.106 219.894> 387 60<180.106 237.894> 470 60<198.106 255.894> 553 60<215.106 272.894> 637 60<233.106 290.894> 720 60<91.1064 148.894 198.106 255.894 304.106 361.894 411.106 468.894>
VStem: 90 60<721.106 778.894> 143 60<221.106 278.894> 161 60<304.106 361.894> 179 60<388.106 445.894> 197 60<471.106 528.894 721.106 778.894> 214 60<554.106 611.894> 232 60<638.106 695.894> 303 60<721.106 778.894> 410 60<721.106 778.894>
LayerCount: 2
Back
Fore
SplineSet
203 250 m 0xfe83
 203 233 190 220 173 220 c 0
 156 220 143 233 143 250 c 0
 143 267 156 280 173 280 c 0
 190 280 203 267 203 250 c 0xfe83
221 333 m 0xfe43
 221 316 208 303 191 303 c 0
 174 303 161 316 161 333 c 0
 161 350 174 363 191 363 c 0
 208 363 221 350 221 333 c 0xfe43
239 417 m 0xfe23
 239 400 226 387 209 387 c 0
 192 387 179 400 179 417 c 0
 179 434 192 447 209 447 c 0
 226 447 239 434 239 417 c 0xfe23
257 500 m 0xfe13
 257 483 244 470 227 470 c 0
 210 470 197 483 197 500 c 0
 197 517 210 530 227 530 c 0
 244 530 257 517 257 500 c 0xfe13
274 583 m 0xfe0b
 274 566 261 553 244 553 c 0
 227 553 214 566 214 583 c 0
 214 600 227 613 244 613 c 0
 261 613 274 600 274 583 c 0xfe0b
292 667 m 0xfe07
 292 650 279 637 262 637 c 0
 245 637 232 650 232 667 c 0
 232 684 245 697 262 697 c 0
 279 697 292 684 292 667 c 0xfe07
470 750 m 0
 470 733 457 720 440 720 c 0
 423 720 410 733 410 750 c 0
 410 767 423 780 440 780 c 0
 457 780 470 767 470 750 c 0
363 750 m 0
 363 733 350 720 333 720 c 0
 316 720 303 733 303 750 c 0
 303 767 316 780 333 780 c 0
 350 780 363 767 363 750 c 0
257 750 m 0xfe13
 257 733 244 720 227 720 c 0
 210 720 197 733 197 750 c 0
 197 767 210 780 227 780 c 0
 244 780 257 767 257 750 c 0xfe13
150 750 m 0xff03
 150 733 137 720 120 720 c 0
 103 720 90 733 90 750 c 0
 90 767 103 780 120 780 c 0
 137 780 150 767 150 750 c 0xff03
EndSplineSet
EndChar

StartChar: multiply
Encoding: 215 215 22
Width: 600
VWidth: 0
UnlinkRmOvrlpSave: 1
Flags: W
HStem: 303 60<91.1064 148.894 305.106 362.894> 387 60<163.106 220.894 269.106 326.894> 470 60<234.106 291.894> 553 60<198.106 255.894 304.106 361.894> 637 60<162.106 219.894 376.106 433.894>
VStem: 90 60<304.106 361.894> 162 60<388.106 445.894 638.312 695.688> 197 60<554.106 611.894> 233 60<471.106 528.894> 268 60<388.106 445.894> 304 60<304.106 361.894 554.312 611.688> 375 60<638.106 695.894>
LayerCount: 2
Back
Fore
SplineSet
364 333 m 0xfc30
 364 316 351 303 334 303 c 0
 317 303 304 316 304 333 c 0
 304 350 317 363 334 363 c 0
 351 363 364 350 364 333 c 0xfc30
150 333 m 0
 150 316 137 303 120 303 c 0
 103 303 90 316 90 333 c 0
 90 350 103 363 120 363 c 0
 137 363 150 350 150 333 c 0
328 417 m 0xfc50
 328 400 315 387 298 387 c 0
 281 387 268 400 268 417 c 0
 268 434 281 447 298 447 c 0
 315 447 328 434 328 417 c 0xfc50
222 417 m 0xfe10
 222 400 209 387 192 387 c 0
 175 387 162 400 162 417 c 0
 162 434 175 447 192 447 c 0
 209 447 222 434 222 417 c 0xfe10
293 500 m 0xfc90
 293 483 280 470 263 470 c 0
 246 470 233 483 233 500 c 0
 233 517 246 530 263 530 c 0
 280 530 293 517 293 500 c 0xfc90
363 583 m 0
 363 566 350 553 333 553 c 0
 316 553 303 566 303 583 c 0
 303 600 316 613 333 613 c 0
 350 613 363 600 363 583 c 0
257 583 m 0xfd10
 257 566 244 553 227 553 c 0
 210 553 197 566 197 583 c 0
 197 600 210 613 227 613 c 0
 244 613 257 600 257 583 c 0xfd10
435 667 m 0
 435 650 422 637 405 637 c 0
 388 637 375 650 375 667 c 0
 375 684 388 697 405 697 c 0
 422 697 435 684 435 667 c 0
221 667 m 0
 221 650 208 637 191 637 c 0
 174 637 161 650 161 667 c 0
 161 684 174 697 191 697 c 0
 208 697 221 684 221 667 c 0
EndSplineSet
EndChar

StartChar: X
Encoding: 88 88 23
Width: 600
VWidth: 0
UnlinkRmOvrlpSave: 1
Flags: W
HStem: 220 60<91.1064 148.894 411.106 468.894> 303 60<162.106 219.894 376.106 433.894> 387 60<234.106 291.894 340.106 397.894> 470 60<305.106 362.894> 553 60<269.106 326.894 375.106 432.894> 637 60<233.106 290.894 447.106 504.894> 720 60<198.106 255.894 518.106 575.894>
VStem: 90 60<221.106 278.894> 161 60<304.106 361.894> 197 60<721.106 778.894> 233 60<388.106 445.894 638.312 695.688> 268 60<554.106 611.894> 304 60<471.106 528.894> 339 60<388.106 445.894> 375 60<304.106 361.894 554.312 611.688> 410 60<221.106 278.894> 446 60<638.106 695.894> 517 60<721.106 778.894>
LayerCount: 2
Back
Fore
SplineSet
470 250 m 0xff0140
 470 233 457 220 440 220 c 0
 423 220 410 233 410 250 c 0
 410 267 423 280 440 280 c 0
 457 280 470 267 470 250 c 0xff0140
150 250 m 0
 150 233 137 220 120 220 c 0
 103 220 90 233 90 250 c 0
 90 267 103 280 120 280 c 0
 137 280 150 267 150 250 c 0
435 333 m 0xff0240
 435 316 422 303 405 303 c 0
 388 303 375 316 375 333 c 0
 375 350 388 363 405 363 c 0
 422 363 435 350 435 333 c 0xff0240
221 333 m 0xff8040
 221 316 208 303 191 303 c 0
 174 303 161 316 161 333 c 0
 161 350 174 363 191 363 c 0
 208 363 221 350 221 333 c 0xff8040
399 417 m 0xff0440
 399 400 386 387 369 387 c 0
 352 387 339 400 339 417 c 0
 339 434 352 447 369 447 c 0
 386 447 399 434 399 417 c 0xff0440
293 417 m 0xff2040
 293 400 280 387 263 387 c 0
 246 387 233 400 233 417 c 0
 233 434 246 447 263 447 c 0
 280 447 293 434 293 417 c 0xff2040
364 500 m 0xff0840
 364 483 351 470 334 470 c 0
 317 470 304 483 304 500 c 0
 304 517 317 530 334 530 c 0
 351 530 364 517 364 500 c 0xff0840
434 583 m 0
 434 566 421 553 404 553 c 0
 387 553 374 566 374 583 c 0
 374 600 387 613 404 613 c 0
 421 613 434 600 434 583 c 0
328 583 m 0xff1040
 328 566 315 553 298 553 c 0
 281 553 268 566 268 583 c 0
 268 600 281 613 298 613 c 0
 315 613 328 600 328 583 c 0xff1040
506 667 m 0xff00c0
 506 650 493 637 476 637 c 0
 459 637 446 650 446 667 c 0
 446 684 459 697 476 697 c 0
 493 697 506 684 506 667 c 0xff00c0
292 667 m 0
 292 650 279 637 262 637 c 0
 245 637 232 650 232 667 c 0
 232 684 245 697 262 697 c 0
 279 697 292 684 292 667 c 0
577 750 m 0
 577 733 564 720 547 720 c 0
 530 720 517 733 517 750 c 0
 517 767 530 780 547 780 c 0
 564 780 577 767 577 750 c 0
257 750 m 0xff4040
 257 733 244 720 227 720 c 0
 210 720 197 733 197 750 c 0
 197 767 210 780 227 780 c 0
 244 780 257 767 257 750 c 0xff4040
EndSplineSet
EndChar

StartChar: backslash
Encoding: 92 92 24
Width: 600
VWidth: 0
UnlinkRmOvrlpSave: 1
Flags: W
HStem: 220 60<304.106 361.894> 303 60<269.106 326.894> 387 60<233.106 290.894> 470 60<198.106 255.894> 553 60<162.106 219.894> 637 60<126.106 183.894> 720 60<91.1064 148.894>
VStem: 90 60<721.106 778.894> 125 60<638.106 695.894> 161 60<554.106 611.894> 197 60<471.106 528.894> 232 60<388.106 445.894> 268 60<304.106 361.894> 303 60<221.106 278.894>
LayerCount: 2
Back
Fore
SplineSet
363 250 m 0xfe04
 363 233 350 220 333 220 c 0
 316 220 303 233 303 250 c 0
 303 267 316 280 333 280 c 0
 350 280 363 267 363 250 c 0xfe04
328 333 m 0xfe08
 328 316 315 303 298 303 c 0
 281 303 268 316 268 333 c 0
 268 350 281 363 298 363 c 0
 315 363 328 350 328 333 c 0xfe08
292 417 m 0xfe10
 292 400 279 387 262 387 c 0
 245 387 232 400 232 417 c 0
 232 434 245 447 262 447 c 0
 279 447 292 434 292 417 c 0xfe10
257 500 m 0xfe20
 257 483 244 470 227 470 c 0
 210 470 197 483 197 500 c 0
 197 517 210 530 227 530 c 0
 244 530 257 517 257 500 c 0xfe20
221 583 m 0xfe40
 221 566 208 553 191 553 c 0
 174 553 161 566 161 583 c 0
 161 600 174 613 191 613 c 0
 208 613 221 600 221 583 c 0xfe40
185 667 m 0xfe80
 185 650 172 637 155 637 c 0
 138 637 125 650 125 667 c 0
 125 684 138 697 155 697 c 0
 172 697 185 684 185 667 c 0xfe80
150 750 m 0xff
 150 733 137 720 120 720 c 0
 103 720 90 733 90 750 c 0
 90 767 103 780 120 780 c 0
 137 780 150 767 150 750 c 0xff
EndSplineSet
EndChar

StartChar: germandbls
Encoding: 223 223 25
Width: 600
VWidth: 0
UnlinkRmOvrlpSave: 1
Flags: W
HStem: 220 60<91.1064 148.894 251.106 308.894 358.106 415.894> 303 60<109.106 166.894 429.106 486.894> 387 60<127.106 184.894 447.106 504.894> 470 60<145.106 202.894 252.106 309.894 358.106 415.894> 553 60<162.106 219.894 322.106 379.894> 637 60<180.106 237.894 393.106 450.894> 720 60<251.106 308.894 358.106 415.894>
VStem: 90 60<221.106 278.894> 108 60<304.106 361.894> 126 60<388.106 445.894> 144 60<471.106 528.894> 161 60<554.106 611.894> 179 60<638.106 695.894> 250 60<221.106 278.894 471.312 528.688 721.106 778.894> 321 60<554.106 611.894> 357 60<221.106 278.894 471.106 528.894 721.106 778.894> 392 60<638.106 695.894> 428 60<304.106 361.894> 446 60<388.106 445.894>
LayerCount: 2
Back
Fore
SplineSet
417 250 m 0xfe05
 417 233 404 220 387 220 c 0
 370 220 357 233 357 250 c 0
 357 267 370 280 387 280 c 0
 404 280 417 267 417 250 c 0xfe05
310 250 m 0
 310 233 297 220 280 220 c 0
 263 220 250 233 250 250 c 0
 250 267 263 280 280 280 c 0
 297 280 310 267 310 250 c 0
150 250 m 0xff04
 150 233 137 220 120 220 c 0
 103 220 90 233 90 250 c 0
 90 267 103 280 120 280 c 0
 137 280 150 267 150 250 c 0xff04
488 333 m 0xfe0440
 488 316 475 303 458 303 c 0
 441 303 428 316 428 333 c 0
 428 350 441 363 458 363 c 0
 475 363 488 350 488 333 c 0xfe0440
168 333 m 0xfe84
 168 316 155 303 138 303 c 0
 121 303 108 316 108 333 c 0
 108 350 121 363 138 363 c 0
 155 363 168 350 168 333 c 0xfe84
506 417 m 0xfe0420
 506 400 493 387 476 387 c 0
 459 387 446 400 446 417 c 0
 446 434 459 447 476 447 c 0
 493 447 506 434 506 417 c 0xfe0420
186 417 m 0xfe44
 186 400 173 387 156 387 c 0
 139 387 126 400 126 417 c 0
 126 434 139 447 156 447 c 0
 173 447 186 434 186 417 c 0xfe44
417 500 m 0xfe05
 417 483 404 470 387 470 c 0
 370 470 357 483 357 500 c 0
 357 517 370 530 387 530 c 0
 404 530 417 517 417 500 c 0xfe05
311 500 m 0
 311 483 298 470 281 470 c 0
 264 470 251 483 251 500 c 0
 251 517 264 530 281 530 c 0
 298 530 311 517 311 500 c 0
204 500 m 0xfe24
 204 483 191 470 174 470 c 0
 157 470 144 483 144 500 c 0
 144 517 157 530 174 530 c 0
 191 530 204 517 204 500 c 0xfe24
381 583 m 0xfe06
 381 566 368 553 351 553 c 0
 334 553 321 566 321 583 c 0
 321 600 334 613 351 613 c 0
 368 613 381 600 381 583 c 0xfe06
221 583 m 0xfe14
 221 566 208 553 191 553 c 0
 174 553 161 566 161 583 c 0
 161 600 174 613 191 613 c 0
 208 613 221 600 221 583 c 0xfe14
452 667 m 0xfe0480
 452 650 439 637 422 637 c 0
 405 637 392 650 392 667 c 0
 392 684 405 697 422 697 c 0
 439 697 452 684 452 667 c 0xfe0480
239 667 m 0xfe0c
 239 650 226 637 209 637 c 0
 192 637 179 650 179 667 c 0
 179 684 192 697 209 697 c 0
 226 697 239 684 239 667 c 0xfe0c
417 750 m 0xfe05
 417 733 404 720 387 720 c 0
 370 720 357 733 357 750 c 0
 357 767 370 780 387 780 c 0
 404 780 417 767 417 750 c 0xfe05
310 750 m 0
 310 733 297 720 280 720 c 0
 263 720 250 733 250 750 c 0
 250 767 263 780 280 780 c 0
 297 780 310 767 310 750 c 0
EndSplineSet
EndChar

StartChar: grave
Encoding: 96 96 26
Width: 600
VWidth: 0
UnlinkRmOvrlpSave: 1
Flags: W
HStem: 553 60<161.106 218.894> 637 60<126.106 183.894> 720 60<91.1064 148.894>
VStem: 90 60<721.106 778.894> 125 60<638.106 695.894> 160 60<554.106 611.894>
LayerCount: 2
Back
Fore
SplineSet
220 583 m 0xe4
 220 566 207 553 190 553 c 0
 173 553 160 566 160 583 c 0
 160 600 173 613 190 613 c 0
 207 613 220 600 220 583 c 0xe4
185 667 m 0xe8
 185 650 172 637 155 637 c 0
 138 637 125 650 125 667 c 0
 125 684 138 697 155 697 c 0
 172 697 185 684 185 667 c 0xe8
150 750 m 0xf0
 150 733 137 720 120 720 c 0
 103 720 90 733 90 750 c 0
 90 767 103 780 120 780 c 0
 137 780 150 767 150 750 c 0xf0
EndSplineSet
EndChar

StartChar: d
Encoding: 100 100 27
Width: 600
VWidth: 0
UnlinkRmOvrlpSave: 1
Flags: W
HStem: 220 60<180.106 237.894 286.106 343.894 393.106 450.894> 303 60<91.1064 148.894 411.106 468.894> 387 60<109.106 166.894 429.106 486.894> 470 60<127.106 184.894 447.106 504.894> 553 60<197.106 254.894 304.106 361.894 411.106 468.894> 637 60<482.106 539.894> 720 60<500.106 557.894>
VStem: 90 60<304.106 361.894> 108 60<388.106 445.894> 126 60<471.106 528.894> 179 60<221.106 278.894> 196 60<554.106 611.894> 285 60<221.106 278.894> 303 60<554.106 611.894> 392 60<221.106 278.894> 410 60<304.106 361.894 554.106 611.894> 428 60<388.106 445.894> 446 60<471.106 528.894> 481 60<638.106 695.894> 499 60<721.106 778.894>
LayerCount: 2
Back
Fore
SplineSet
452 250 m 0xfe02
 452 233 439 220 422 220 c 0
 405 220 392 233 392 250 c 0
 392 267 405 280 422 280 c 0
 439 280 452 267 452 250 c 0xfe02
345 250 m 0xfe08
 345 233 332 220 315 220 c 0
 298 220 285 233 285 250 c 0
 285 267 298 280 315 280 c 0
 332 280 345 267 345 250 c 0xfe08
239 250 m 0xfe20
 239 233 226 220 209 220 c 0
 192 220 179 233 179 250 c 0
 179 267 192 280 209 280 c 0
 226 280 239 267 239 250 c 0xfe20
470 333 m 0xfe01
 470 316 457 303 440 303 c 0
 423 303 410 316 410 333 c 0
 410 350 423 363 440 363 c 0
 457 363 470 350 470 333 c 0xfe01
150 333 m 0xff
 150 316 137 303 120 303 c 0
 103 303 90 316 90 333 c 0
 90 350 103 363 120 363 c 0
 137 363 150 350 150 333 c 0xff
488 417 m 0xfe0080
 488 400 475 387 458 387 c 0
 441 387 428 400 428 417 c 0
 428 434 441 447 458 447 c 0
 475 447 488 434 488 417 c 0xfe0080
168 417 m 0xfe80
 168 400 155 387 138 387 c 0
 121 387 108 400 108 417 c 0
 108 434 121 447 138 447 c 0
 155 447 168 434 168 417 c 0xfe80
506 500 m 0xfe0040
 506 483 493 470 476 470 c 0
 459 470 446 483 446 500 c 0
 446 517 459 530 476 530 c 0
 493 530 506 517 506 500 c 0xfe0040
186 500 m 0xfe40
 186 483 173 470 156 470 c 0
 139 470 126 483 126 500 c 0
 126 517 139 530 156 530 c 0
 173 530 186 517 186 500 c 0xfe40
470 583 m 0xfe01
 470 566 457 553 440 553 c 0
 423 553 410 566 410 583 c 0
 410 600 423 613 440 613 c 0
 457 613 470 600 470 583 c 0xfe01
363 583 m 0xfe04
 363 566 350 553 333 553 c 0
 316 553 303 566 303 583 c 0
 303 600 316 613 333 613 c 0
 350 613 363 600 363 583 c 0xfe04
256 583 m 0xfe10
 256 566 243 553 226 553 c 0
 209 553 196 566 196 583 c 0
 196 600 209 613 226 613 c 0
 243 613 256 600 256 583 c 0xfe10
541 667 m 0xfe0020
 541 650 528 637 511 637 c 0
 494 637 481 650 481 667 c 0
 481 684 494 697 511 697 c 0
 528 697 541 684 541 667 c 0xfe0020
559 750 m 0xfe0010
 559 733 546 720 529 720 c 0
 512 720 499 733 499 750 c 0
 499 767 512 780 529 780 c 0
 546 780 559 767 559 750 c 0xfe0010
EndSplineSet
EndChar

StartChar: ccedilla
Encoding: 231 231 28
Width: 600
VWidth: 0
UnlinkRmOvrlpSave: 1
Flags: W
HStem: 220 60<215.106 272.894> 303 60<126.106 183.894 233.106 290.894 340.106 397.894> 387 60<91.1064 148.894> 470 60<109.106 166.894> 553 60<126.106 183.894 446.106 503.894> 637 60<197.106 254.894 304.106 361.894 411.106 468.894>
VStem: 90 60<388.106 445.894> 108 60<471.106 528.894> 125 60<304.106 361.894 554.106 611.894> 196 60<638.106 695.894> 214 60<221.106 278.894> 232 60<304.106 361.894> 303 60<638.106 695.894> 339 60<304.106 361.894> 410 60<638.106 695.894> 445 60<554.106 611.894>
LayerCount: 2
Back
Fore
SplineSet
274 250 m 0xfc20
 274 233 261 220 244 220 c 0
 227 220 214 233 214 250 c 0
 214 267 227 280 244 280 c 0
 261 280 274 267 274 250 c 0xfc20
399 333 m 0xfc04
 399 316 386 303 369 303 c 0
 352 303 339 316 339 333 c 0
 339 350 352 363 369 363 c 0
 386 363 399 350 399 333 c 0xfc04
292 333 m 0xfc10
 292 316 279 303 262 303 c 0
 245 303 232 316 232 333 c 0
 232 350 245 363 262 363 c 0
 279 363 292 350 292 333 c 0xfc10
185 333 m 0xfc80
 185 316 172 303 155 303 c 0
 138 303 125 316 125 333 c 0
 125 350 138 363 155 363 c 0
 172 363 185 350 185 333 c 0xfc80
150 417 m 0xfe
 150 400 137 387 120 387 c 0
 103 387 90 400 90 417 c 0
 90 434 103 447 120 447 c 0
 137 447 150 434 150 417 c 0xfe
168 500 m 0xfd
 168 483 155 470 138 470 c 0
 121 470 108 483 108 500 c 0
 108 517 121 530 138 530 c 0
 155 530 168 517 168 500 c 0xfd
505 583 m 0xfc01
 505 566 492 553 475 553 c 0
 458 553 445 566 445 583 c 0
 445 600 458 613 475 613 c 0
 492 613 505 600 505 583 c 0xfc01
185 583 m 0xfc80
 185 566 172 553 155 553 c 0
 138 553 125 566 125 583 c 0
 125 600 138 613 155 613 c 0
 172 613 185 600 185 583 c 0xfc80
470 667 m 0xfc02
 470 650 457 637 440 637 c 0
 423 637 410 650 410 667 c 0
 410 684 423 697 440 697 c 0
 457 697 470 684 470 667 c 0xfc02
363 667 m 0xfc08
 363 650 350 637 333 637 c 0
 316 637 303 650 303 667 c 0
 303 684 316 697 333 697 c 0
 350 697 363 684 363 667 c 0xfc08
256 667 m 0xfc40
 256 650 243 637 226 637 c 0
 209 637 196 650 196 667 c 0
 196 684 209 697 226 697 c 0
 243 697 256 684 256 667 c 0xfc40
EndSplineSet
EndChar

StartChar: h
Encoding: 104 104 29
Width: 600
VWidth: 0
UnlinkRmOvrlpSave: 1
Flags: W
HStem: 220 60<91.1064 148.894 411.106 468.894> 303 60<109.106 166.894 429.106 486.894> 387 60<127.106 184.894 447.106 504.894> 470 60<145.106 202.894 465.106 522.894> 553 60<215.106 272.894 322.106 379.894 429.106 486.894> 637 60<180.106 237.894> 720 60<198.106 255.894>
VStem: 90 60<221.106 278.894> 108 60<304.106 361.894> 126 60<388.106 445.894> 144 60<471.106 528.894> 179 60<638.106 695.894> 197 60<721.106 778.894> 214 60<554.106 611.894> 321 60<554.106 611.894> 410 60<221.106 278.894> 428 60<304.106 361.894 554.106 611.894> 446 60<388.106 445.894> 464 60<471.106 528.894>
LayerCount: 2
Back
Fore
SplineSet
470 250 m 0xfe03
 470 233 457 220 440 220 c 0
 423 220 410 233 410 250 c 0
 410 267 423 280 440 280 c 0
 457 280 470 267 470 250 c 0xfe03
150 250 m 0xff02
 150 233 137 220 120 220 c 0
 103 220 90 233 90 250 c 0
 90 267 103 280 120 280 c 0
 137 280 150 267 150 250 c 0xff02
488 333 m 0xfe0280
 488 316 475 303 458 303 c 0
 441 303 428 316 428 333 c 0
 428 350 441 363 458 363 c 0
 475 363 488 350 488 333 c 0xfe0280
168 333 m 0xfe82
 168 316 155 303 138 303 c 0
 121 303 108 316 108 333 c 0
 108 350 121 363 138 363 c 0
 155 363 168 350 168 333 c 0xfe82
506 417 m 0xfe0240
 506 400 493 387 476 387 c 0
 459 387 446 400 446 417 c 0
 446 434 459 447 476 447 c 0
 493 447 506 434 506 417 c 0xfe0240
186 417 m 0xfe42
 186 400 173 387 156 387 c 0
 139 387 126 400 126 417 c 0
 126 434 139 447 156 447 c 0
 173 447 186 434 186 417 c 0xfe42
524 500 m 0xfe0220
 524 483 511 470 494 470 c 0
 477 470 464 483 464 500 c 0
 464 517 477 530 494 530 c 0
 511 530 524 517 524 500 c 0xfe0220
204 500 m 0xfe22
 204 483 191 470 174 470 c 0
 157 470 144 483 144 500 c 0
 144 517 157 530 174 530 c 0
 191 530 204 517 204 500 c 0xfe22
488 583 m 0xfe0280
 488 566 475 553 458 553 c 0
 441 553 428 566 428 583 c 0
 428 600 441 613 458 613 c 0
 475 613 488 600 488 583 c 0xfe0280
381 583 m 0
 381 566 368 553 351 553 c 0
 334 553 321 566 321 583 c 0
 321 600 334 613 351 613 c 0
 368 613 381 600 381 583 c 0
274 583 m 0xfe06
 274 566 261 553 244 553 c 0
 227 553 214 566 214 583 c 0
 214 600 227 613 244 613 c 0
 261 613 274 600 274 583 c 0xfe06
239 667 m 0xfe12
 239 650 226 637 209 637 c 0
 192 637 179 650 179 667 c 0
 179 684 192 697 209 697 c 0
 226 697 239 684 239 667 c 0xfe12
257 750 m 0xfe0a
 257 733 244 720 227 720 c 0
 210 720 197 733 197 750 c 0
 197 767 210 780 227 780 c 0
 244 780 257 767 257 750 c 0xfe0a
EndSplineSet
EndChar

StartChar: edieresis
Encoding: 235 235 30
Width: 600
VWidth: 0
UnlinkRmOvrlpSave: 1
Flags: W
HStem: 220 60<126.106 183.894 233.106 290.894 340.106 397.894> 303 60<91.1064 148.894> 387 60<109.106 166.894 216.106 273.894 322.106 379.894 429.106 486.894> 470 60<127.106 184.894 447.106 504.894> 553 60<197.106 254.894 304.106 361.894 411.106 468.894> 720 60<233.106 290.894 447.106 504.894>
VStem: 90 60<304.106 361.894> 108 60<388.106 445.894> 125 60<221.106 278.894 471.312 528.688> 196 60<554.106 611.894> 215 60<388.106 445.894> 232 60<221.106 278.894 721.106 778.894> 303 60<554.106 611.894> 321 60<388.106 445.894> 339 60<221.106 278.894> 410 60<554.106 611.894> 428 60<388.106 445.894> 446 60<471.106 528.894 721.106 778.894>
LayerCount: 2
Back
Fore
SplineSet
399 250 m 0xfc02
 399 233 386 220 369 220 c 0
 352 220 339 233 339 250 c 0
 339 267 352 280 369 280 c 0
 386 280 399 267 399 250 c 0xfc02
292 250 m 0xfc10
 292 233 279 220 262 220 c 0
 245 220 232 233 232 250 c 0
 232 267 245 280 262 280 c 0
 279 280 292 267 292 250 c 0xfc10
185 250 m 0xfc80
 185 233 172 220 155 220 c 0
 138 220 125 233 125 250 c 0
 125 267 138 280 155 280 c 0
 172 280 185 267 185 250 c 0xfc80
150 333 m 0xfe
 150 316 137 303 120 303 c 0
 103 303 90 316 90 333 c 0
 90 350 103 363 120 363 c 0
 137 363 150 350 150 333 c 0xfe
488 417 m 0xfc0080
 488 400 475 387 458 387 c 0
 441 387 428 400 428 417 c 0
 428 434 441 447 458 447 c 0
 475 447 488 434 488 417 c 0xfc0080
381 417 m 0xfc04
 381 400 368 387 351 387 c 0
 334 387 321 400 321 417 c 0
 321 434 334 447 351 447 c 0
 368 447 381 434 381 417 c 0xfc04
275 417 m 0xfc20
 275 400 262 387 245 387 c 0
 228 387 215 400 215 417 c 0
 215 434 228 447 245 447 c 0
 262 447 275 434 275 417 c 0xfc20
168 417 m 0xfd
 168 400 155 387 138 387 c 0
 121 387 108 400 108 417 c 0
 108 434 121 447 138 447 c 0
 155 447 168 434 168 417 c 0xfd
506 500 m 0xfc0040
 506 483 493 470 476 470 c 0
 459 470 446 483 446 500 c 0
 446 517 459 530 476 530 c 0
 493 530 506 517 506 500 c 0xfc0040
186 500 m 0
 186 483 173 470 156 470 c 0
 139 470 126 483 126 500 c 0
 126 517 139 530 156 530 c 0
 173 530 186 517 186 500 c 0
470 583 m 0xfc01
 470 566 457 553 440 553 c 0
 423 553 410 566 410 583 c 0
 410 600 423 613 440 613 c 0
 457 613 470 600 470 583 c 0xfc01
363 583 m 0xfc08
 363 566 350 553 333 553 c 0
 316 553 303 566 303 583 c 0
 303 600 316 613 333 613 c 0
 350 613 363 600 363 583 c 0xfc08
256 583 m 0xfc40
 256 566 243 553 226 553 c 0
 209 553 196 566 196 583 c 0
 196 600 209 613 226 613 c 0
 243 613 256 600 256 583 c 0xfc40
506 750 m 0xfc0040
 506 733 493 720 476 720 c 0
 459 720 446 733 446 750 c 0
 446 767 459 780 476 780 c 0
 493 780 506 767 506 750 c 0xfc0040
292 750 m 0xfc10
 292 733 279 720 262 720 c 0
 245 720 232 733 232 750 c 0
 232 767 245 780 262 780 c 0
 279 780 292 767 292 750 c 0xfc10
EndSplineSet
EndChar

StartChar: l
Encoding: 108 108 31
Width: 600
VWidth: 0
UnlinkRmOvrlpSave: 1
Flags: W
HStem: 220 60<91.1064 148.894 198.106 255.894 305.106 362.894> 303 60<216.106 273.894> 387 60<234.106 291.894> 470 60<252.106 309.894> 553 60<269.106 326.894> 637 60<287.106 344.894> 720 60<198.106 255.894 305.106 362.894>
VStem: 90 60<221.106 278.894> 197 60<221.106 278.894 721.106 778.894> 215 60<304.106 361.894> 233 60<388.106 445.894> 251 60<471.106 528.894> 268 60<554.106 611.894> 286 60<638.106 695.894> 304 60<221.106 278.894 721.106 778.894>
LayerCount: 2
Back
Fore
SplineSet
364 250 m 0xff02
 364 233 351 220 334 220 c 0
 317 220 304 233 304 250 c 0
 304 267 317 280 334 280 c 0
 351 280 364 267 364 250 c 0xff02
257 250 m 0xff80
 257 233 244 220 227 220 c 0
 210 220 197 233 197 250 c 0
 197 267 210 280 227 280 c 0
 244 280 257 267 257 250 c 0xff80
150 250 m 0
 150 233 137 220 120 220 c 0
 103 220 90 233 90 250 c 0
 90 267 103 280 120 280 c 0
 137 280 150 267 150 250 c 0
275 333 m 0xff40
 275 316 262 303 245 303 c 0
 228 303 215 316 215 333 c 0
 215 350 228 363 245 363 c 0
 262 363 275 350 275 333 c 0xff40
293 417 m 0xff20
 293 400 280 387 263 387 c 0
 246 387 233 400 233 417 c 0
 233 434 246 447 263 447 c 0
 280 447 293 434 293 417 c 0xff20
311 500 m 0xff10
 311 483 298 470 281 470 c 0
 264 470 251 483 251 500 c 0
 251 517 264 530 281 530 c 0
 298 530 311 517 311 500 c 0xff10
328 583 m 0xff08
 328 566 315 553 298 553 c 0
 281 553 268 566 268 583 c 0
 268 600 281 613 298 613 c 0
 315 613 328 600 328 583 c 0xff08
346 667 m 0xff04
 346 650 333 637 316 637 c 0
 299 637 286 650 286 667 c 0
 286 684 299 697 316 697 c 0
 333 697 346 684 346 667 c 0xff04
364 750 m 0xff02
 364 733 351 720 334 720 c 0
 317 720 304 733 304 750 c 0
 304 767 317 780 334 780 c 0
 351 780 364 767 364 750 c 0xff02
257 750 m 0xff80
 257 733 244 720 227 720 c 0
 210 720 197 733 197 750 c 0
 197 767 210 780 227 780 c 0
 244 780 257 767 257 750 c 0xff80
EndSplineSet
EndChar

StartChar: p
Encoding: 112 112 32
Width: 600
VWidth: 0
UnlinkRmOvrlpSave: 1
Flags: W
HStem: 220 60<91.1064 148.894> 303 60<109.106 166.894> 387 60<180.106 237.894 287.106 344.894 394.106 451.894> 470 60<145.106 202.894 465.106 522.894> 553 60<162.106 219.894 269.106 326.894 375.106 432.894>
VStem: 90 60<221.106 278.894> 108 60<304.106 361.894> 144 60<471.106 528.894> 161 60<554.106 611.894> 179 60<388.106 445.894> 268 60<554.106 611.894> 286 60<388.106 445.894> 374 60<554.106 611.894> 393 60<388.106 445.894> 464 60<471.106 528.894>
LayerCount: 2
Back
Fore
SplineSet
150 250 m 0xfc02
 150 233 137 220 120 220 c 0
 103 220 90 233 90 250 c 0
 90 267 103 280 120 280 c 0
 137 280 150 267 150 250 c 0xfc02
168 333 m 0xfa02
 168 316 155 303 138 303 c 0
 121 303 108 316 108 333 c 0
 108 350 121 363 138 363 c 0
 155 363 168 350 168 333 c 0xfa02
453 417 m 0xf806
 453 400 440 387 423 387 c 0
 406 387 393 400 393 417 c 0
 393 434 406 447 423 447 c 0
 440 447 453 434 453 417 c 0xf806
346 417 m 0xf812
 346 400 333 387 316 387 c 0
 299 387 286 400 286 417 c 0
 286 434 299 447 316 447 c 0
 333 447 346 434 346 417 c 0xf812
239 417 m 0xf842
 239 400 226 387 209 387 c 0
 192 387 179 400 179 417 c 0
 179 434 192 447 209 447 c 0
 226 447 239 434 239 417 c 0xf842
524 500 m 0
 524 483 511 470 494 470 c 0
 477 470 464 483 464 500 c 0
 464 517 477 530 494 530 c 0
 511 530 524 517 524 500 c 0
204 500 m 0xf902
 204 483 191 470 174 470 c 0
 157 470 144 483 144 500 c 0
 144 517 157 530 174 530 c 0
 191 530 204 517 204 500 c 0xf902
434 583 m 0xf80a
 434 566 421 553 404 553 c 0
 387 553 374 566 374 583 c 0
 374 600 387 613 404 613 c 0
 421 613 434 600 434 583 c 0xf80a
328 583 m 0xf822
 328 566 315 553 298 553 c 0
 281 553 268 566 268 583 c 0
 268 600 281 613 298 613 c 0
 315 613 328 600 328 583 c 0xf822
221 583 m 0xf882
 221 566 208 553 191 553 c 0
 174 553 161 566 161 583 c 0
 161 600 174 613 191 613 c 0
 208 613 221 600 221 583 c 0xf882
EndSplineSet
EndChar

StartChar: t
Encoding: 116 116 33
Width: 600
VWidth: 0
UnlinkRmOvrlpSave: 1
Flags: W
HStem: 220 60<180.106 237.894 287.106 344.894> 303 60<145.106 202.894 358.106 415.894> 387 60<163.106 220.894> 470 60<181.106 238.894> 553 60<91.1064 148.894 198.106 255.894 304.106 361.894> 637 60<216.106 273.894> 720 60<234.106 291.894>
VStem: 90 60<554.106 611.894> 144 60<304.106 361.894> 162 60<388.106 445.894> 179 60<221.106 278.894 471.312 528.688> 197 60<554.106 611.894> 215 60<638.106 695.894> 233 60<721.106 778.894> 286 60<221.106 278.894> 303 60<554.106 611.894> 357 60<304.106 361.894>
LayerCount: 2
Back
Fore
SplineSet
346 250 m 0xfe02
 346 233 333 220 316 220 c 0
 299 220 286 233 286 250 c 0
 286 267 299 280 316 280 c 0
 333 280 346 267 346 250 c 0xfe02
239 250 m 0xfe20
 239 233 226 220 209 220 c 0
 192 220 179 233 179 250 c 0
 179 267 192 280 209 280 c 0
 226 280 239 267 239 250 c 0xfe20
417 333 m 0xfe0080
 417 316 404 303 387 303 c 0
 370 303 357 316 357 333 c 0
 357 350 370 363 387 363 c 0
 404 363 417 350 417 333 c 0xfe0080
204 333 m 0xfe80
 204 316 191 303 174 303 c 0
 157 303 144 316 144 333 c 0
 144 350 157 363 174 363 c 0
 191 363 204 350 204 333 c 0xfe80
222 417 m 0xfe40
 222 400 209 387 192 387 c 0
 175 387 162 400 162 417 c 0
 162 434 175 447 192 447 c 0
 209 447 222 434 222 417 c 0xfe40
240 500 m 0
 240 483 227 470 210 470 c 0
 193 470 180 483 180 500 c 0
 180 517 193 530 210 530 c 0
 227 530 240 517 240 500 c 0
363 583 m 0xfe01
 363 566 350 553 333 553 c 0
 316 553 303 566 303 583 c 0
 303 600 316 613 333 613 c 0
 350 613 363 600 363 583 c 0xfe01
257 583 m 0xfe10
 257 566 244 553 227 553 c 0
 210 553 197 566 197 583 c 0
 197 600 210 613 227 613 c 0
 244 613 257 600 257 583 c 0xfe10
150 583 m 0xff
 150 566 137 553 120 553 c 0
 103 553 90 566 90 583 c 0
 90 600 103 613 120 613 c 0
 137 613 150 600 150 583 c 0xff
275 667 m 0xfe08
 275 650 262 637 245 637 c 0
 228 637 215 650 215 667 c 0
 215 684 228 697 245 697 c 0
 262 697 275 684 275 667 c 0xfe08
293 750 m 0xfe04
 293 733 280 720 263 720 c 0
 246 720 233 733 233 750 c 0
 233 767 246 780 263 780 c 0
 280 780 293 767 293 750 c 0xfe04
EndSplineSet
EndChar

StartChar: divide
Encoding: 247 247 34
Width: 600
VWidth: 0
UnlinkRmOvrlpSave: 1
Flags: W
HStem: 303 60<215.106 272.894> 470 60<91.1064 148.894 198.106 255.894 304.106 361.894 411.106 468.894> 637 60<286.106 343.894>
VStem: 90 60<471.106 528.894> 197 60<471.106 528.894> 214 60<304.106 361.894> 285 60<638.106 695.894> 303 60<471.106 528.894> 410 60<471.106 528.894>
CounterMasks: 1 e0
LayerCount: 2
Back
Fore
SplineSet
274 333 m 0xf480
 274 316 261 303 244 303 c 0
 227 303 214 316 214 333 c 0
 214 350 227 363 244 363 c 0
 261 363 274 350 274 333 c 0xf480
470 500 m 0
 470 483 457 470 440 470 c 0
 423 470 410 483 410 500 c 0
 410 517 423 530 440 530 c 0
 457 530 470 517 470 500 c 0
363 500 m 0xf180
 363 483 350 470 333 470 c 0
 316 470 303 483 303 500 c 0
 303 517 316 530 333 530 c 0
 350 530 363 517 363 500 c 0xf180
257 500 m 0xf880
 257 483 244 470 227 470 c 0
 210 470 197 483 197 500 c 0
 197 517 210 530 227 530 c 0
 244 530 257 517 257 500 c 0xf880
150 500 m 0
 150 483 137 470 120 470 c 0
 103 470 90 483 90 500 c 0
 90 517 103 530 120 530 c 0
 137 530 150 517 150 500 c 0
345 667 m 0xf280
 345 650 332 637 315 637 c 0
 298 637 285 650 285 667 c 0
 285 684 298 697 315 697 c 0
 332 697 345 684 345 667 c 0xf280
EndSplineSet
EndChar

StartChar: x
Encoding: 120 120 35
Width: 600
VWidth: 0
UnlinkRmOvrlpSave: 1
Flags: W
HStem: 220 60<91.1064 148.894 411.106 468.894> 303 60<162.106 219.894 376.106 433.894> 387 60<287.106 344.894> 470 60<198.106 255.894 412.106 469.894> 553 60<162.106 219.894 482.106 539.894>
VStem: 90 60<221.106 278.894> 161 60<304.106 361.894 554.106 611.894> 197 60<471.106 528.894> 286 60<388.106 445.894> 375 60<304.106 361.894> 410 60<221.106 278.894 471.312 528.688> 481 60<554.106 611.894>
LayerCount: 2
Back
Fore
SplineSet
470 250 m 0xfcb0
 470 233 457 220 440 220 c 0
 423 220 410 233 410 250 c 0
 410 267 423 280 440 280 c 0
 457 280 470 267 470 250 c 0xfcb0
150 250 m 0
 150 233 137 220 120 220 c 0
 103 220 90 233 90 250 c 0
 90 267 103 280 120 280 c 0
 137 280 150 267 150 250 c 0
435 333 m 0xfcd0
 435 316 422 303 405 303 c 0
 388 303 375 316 375 333 c 0
 375 350 388 363 405 363 c 0
 422 363 435 350 435 333 c 0xfcd0
221 333 m 0xfe90
 221 316 208 303 191 303 c 0
 174 303 161 316 161 333 c 0
 161 350 174 363 191 363 c 0
 208 363 221 350 221 333 c 0xfe90
346 417 m 0
 346 400 333 387 316 387 c 0
 299 387 286 400 286 417 c 0
 286 434 299 447 316 447 c 0
 333 447 346 434 346 417 c 0
471 500 m 0
 471 483 458 470 441 470 c 0
 424 470 411 483 411 500 c 0
 411 517 424 530 441 530 c 0
 458 530 471 517 471 500 c 0
257 500 m 0xfd90
 257 483 244 470 227 470 c 0
 210 470 197 483 197 500 c 0
 197 517 210 530 227 530 c 0
 244 530 257 517 257 500 c 0xfd90
541 583 m 0
 541 566 528 553 511 553 c 0
 494 553 481 566 481 583 c 0
 481 600 494 613 511 613 c 0
 528 613 541 600 541 583 c 0
221 583 m 0xfe90
 221 566 208 553 191 553 c 0
 174 553 161 566 161 583 c 0
 161 600 174 613 191 613 c 0
 208 613 221 600 221 583 c 0xfe90
EndSplineSet
EndChar

StartChar: bar
Encoding: 124 124 36
Width: 600
VWidth: 0
UnlinkRmOvrlpSave: 1
Flags: W
HStem: 220 60<91.1064 148.894> 303 60<109.106 166.894> 387 60<127.106 184.894> 470 60<145.106 202.894> 553 60<162.106 219.894> 637 60<180.106 237.894> 720 60<198.106 255.894>
VStem: 90 60<221.106 278.894> 108 60<304.106 361.894> 126 60<388.106 445.894> 144 60<471.106 528.894> 161 60<554.106 611.894> 179 60<638.106 695.894> 197 60<721.106 778.894>
LayerCount: 2
Back
Fore
SplineSet
150 250 m 0xff
 150 233 137 220 120 220 c 0
 103 220 90 233 90 250 c 0
 90 267 103 280 120 280 c 0
 137 280 150 267 150 250 c 0xff
168 333 m 0xfe80
 168 316 155 303 138 303 c 0
 121 303 108 316 108 333 c 0
 108 350 121 363 138 363 c 0
 155 363 168 350 168 333 c 0xfe80
186 417 m 0xfe40
 186 400 173 387 156 387 c 0
 139 387 126 400 126 417 c 0
 126 434 139 447 156 447 c 0
 173 447 186 434 186 417 c 0xfe40
204 500 m 0xfe20
 204 483 191 470 174 470 c 0
 157 470 144 483 144 500 c 0
 144 517 157 530 174 530 c 0
 191 530 204 517 204 500 c 0xfe20
221 583 m 0xfe10
 221 566 208 553 191 553 c 0
 174 553 161 566 161 583 c 0
 161 600 174 613 191 613 c 0
 208 613 221 600 221 583 c 0xfe10
239 667 m 0xfe08
 239 650 226 637 209 637 c 0
 192 637 179 650 179 667 c 0
 179 684 192 697 209 697 c 0
 226 697 239 684 239 667 c 0xfe08
257 750 m 0xfe04
 257 733 244 720 227 720 c 0
 210 720 197 733 197 750 c 0
 197 767 210 780 227 780 c 0
 244 780 257 767 257 750 c 0xfe04
EndSplineSet
EndChar

StartChar: glyph37
Encoding: 769 769 37
Width: 600
VWidth: 0
UnlinkRmOvrlpSave: 1
Flags: W
HStem: 553 60<91.1064 148.894> 637 60<162.106 219.894> 720 60<233.106 290.894>
VStem: 90 60<554.106 611.894> 161 60<638.106 695.894> 232 60<721.106 778.894>
CounterMasks: 1 1c
LayerCount: 2
Back
Fore
SplineSet
150 583 m 0
 150 566 137 553 120 553 c 0
 103 553 90 566 90 583 c 0
 90 600 103 613 120 613 c 0
 137 613 150 600 150 583 c 0
221 667 m 0
 221 650 208 637 191 637 c 0
 174 637 161 650 161 667 c 0
 161 684 174 697 191 697 c 0
 208 697 221 684 221 667 c 0
292 750 m 0
 292 733 279 720 262 720 c 0
 245 720 232 733 232 750 c 0
 232 767 245 780 262 780 c 0
 279 780 292 767 292 750 c 0
EndSplineSet
EndChar

StartChar: glyph38
Encoding: 8594 8594 38
Width: 600
VWidth: 0
UnlinkRmOvrlpSave: 1
Flags: W
HStem: 303 60<268.106 325.894> 387 60<340.106 397.894> 470 60<91.1064 148.894 198.106 255.894 304.106 361.894 411.106 468.894> 553 60<375.106 432.894> 637 60<339.106 396.894>
VStem: 90 60<471.106 528.894> 197 60<471.106 528.894> 267 60<304.106 361.894> 303 60<471.106 528.894> 339 60<388.106 445.894 638.312 695.688> 374 60<554.106 611.894> 410 60<471.106 528.894>
LayerCount: 2
Back
Fore
SplineSet
327 333 m 0xff
 327 316 314 303 297 303 c 0
 280 303 267 316 267 333 c 0
 267 350 280 363 297 363 c 0
 314 363 327 350 327 333 c 0xff
399 417 m 0xfe40
 399 400 386 387 369 387 c 0
 352 387 339 400 339 417 c 0
 339 434 352 447 369 447 c 0
 386 447 399 434 399 417 c 0xfe40
470 500 m 0xfe10
 470 483 457 470 440 470 c 0
 423 470 410 483 410 500 c 0
 410 517 423 530 440 530 c 0
 457 530 470 517 470 500 c 0xfe10
363 500 m 0xfe80
 363 483 350 470 333 470 c 0
 316 470 303 483 303 500 c 0
 303 517 316 530 333 530 c 0
 350 530 363 517 363 500 c 0xfe80
257 500 m 0
 257 483 244 470 227 470 c 0
 210 470 197 483 197 500 c 0
 197 517 210 530 227 530 c 0
 244 530 257 517 257 500 c 0
150 500 m 0
 150 483 137 470 120 470 c 0
 103 470 90 483 90 500 c 0
 90 517 103 530 120 530 c 0
 137 530 150 517 150 500 c 0
434 583 m 0xfe20
 434 566 421 553 404 553 c 0
 387 553 374 566 374 583 c 0
 374 600 387 613 404 613 c 0
 421 613 434 600 434 583 c 0xfe20
398 667 m 0
 398 650 385 637 368 637 c 0
 351 637 338 650 338 667 c 0
 338 684 351 697 368 697 c 0
 385 697 398 684 398 667 c 0
EndSplineSet
EndChar

StartChar: numbersign
Encoding: 35 35 39
Width: 600
VWidth: 0
UnlinkRmOvrlpSave: 1
Flags: W
HStem: 220 60<162.106 219.894 268.106 325.894> 303 60<180.106 237.894 286.106 343.894> 387 60<91.1064 148.894 198.106 255.894 304.106 361.894 411.106 468.894> 470 60<216.106 273.894 322.106 379.894> 553 60<126.106 183.894 233.106 290.894 339.106 396.894 446.106 503.894> 637 60<251.106 308.894 357.106 414.894> 720 60<269.106 326.894 375.106 432.894>
VStem: 90 60<388.106 445.894> 125 60<554.106 611.894> 161 60<221.106 278.894> 179 60<304.106 361.894> 197 60<388.106 445.894> 215 60<471.106 528.894> 232 60<554.106 611.894> 250 60<638.106 695.894> 267 60<221.106 278.894 721.312 778.688> 285 60<304.106 361.894> 303 60<388.106 445.894> 321 60<471.106 528.894> 338 60<554.106 611.894> 356 60<638.106 695.894> 374 60<721.106 778.894> 410 60<388.106 445.894> 445 60<554.106 611.894>
LayerCount: 2
Back
Fore
SplineSet
327 250 m 0xfe01
 327 233 314 220 297 220 c 0
 280 220 267 233 267 250 c 0
 267 267 280 280 297 280 c 0
 314 280 327 267 327 250 c 0xfe01
221 250 m 0xfe40
 221 233 208 220 191 220 c 0
 174 220 161 233 161 250 c 0
 161 267 174 280 191 280 c 0
 208 280 221 267 221 250 c 0xfe40
345 333 m 0xfe0080
 345 316 332 303 315 303 c 0
 298 303 285 316 285 333 c 0
 285 350 298 363 315 363 c 0
 332 363 345 350 345 333 c 0xfe0080
239 333 m 0xfe20
 239 316 226 303 209 303 c 0
 192 303 179 316 179 333 c 0
 179 350 192 363 209 363 c 0
 226 363 239 350 239 333 c 0xfe20
470 417 m 0xfe0002
 470 400 457 387 440 387 c 0
 423 387 410 400 410 417 c 0
 410 434 423 447 440 447 c 0
 457 447 470 434 470 417 c 0xfe0002
363 417 m 0xfe0040
 363 400 350 387 333 387 c 0
 316 387 303 400 303 417 c 0
 303 434 316 447 333 447 c 0
 350 447 363 434 363 417 c 0xfe0040
257 417 m 0xfe10
 257 400 244 387 227 387 c 0
 210 387 197 400 197 417 c 0
 197 434 210 447 227 447 c 0
 244 447 257 434 257 417 c 0xfe10
150 417 m 0xff
 150 400 137 387 120 387 c 0
 103 387 90 400 90 417 c 0
 90 434 103 447 120 447 c 0
 137 447 150 434 150 417 c 0xff
381 500 m 0xfe0020
 381 483 368 470 351 470 c 0
 334 470 321 483 321 500 c 0
 321 517 334 530 351 530 c 0
 368 530 381 517 381 500 c 0xfe0020
275 500 m 0xfe08
 275 483 262 470 245 470 c 0
 228 470 215 483 215 500 c 0
 215 517 228 530 245 530 c 0
 262 530 275 517 275 500 c 0xfe08
505 583 m 0xfe0001
 505 566 492 553 475 553 c 0
 458 553 445 566 445 583 c 0
 445 600 458 613 475 613 c 0
 492 613 505 600 505 583 c 0xfe0001
398 583 m 0xfe0010
 398 566 385 553 368 553 c 0
 351 553 338 566 338 583 c 0
 338 600 351 613 368 613 c 0
 385 613 398 600 398 583 c 0xfe0010
292 583 m 0xfe04
 292 566 279 553 262 553 c 0
 245 553 232 566 232 583 c 0
 232 600 245 613 262 613 c 0
 279 613 292 600 292 583 c 0xfe04
185 583 m 0xfe80
 185 566 172 553 155 553 c 0
 138 553 125 566 125 583 c 0
 125 600 138 613 155 613 c 0
 172 613 185 600 185 583 c 0xfe80
416 667 m 0xfe0008
 416 650 403 637 386 637 c 0
 369 637 356 650 356 667 c 0
 356 684 369 697 386 697 c 0
 403 697 416 684 416 667 c 0xfe0008
310 667 m 0xfe02
 310 650 297 637 280 637 c 0
 263 637 250 650 250 667 c 0
 250 684 263 697 280 697 c 0
 297 697 310 684 310 667 c 0xfe02
434 750 m 0xfe0004
 434 733 421 720 404 720 c 0
 387 720 374 733 374 750 c 0
 374 767 387 780 404 780 c 0
 421 780 434 767 434 750 c 0xfe0004
328 750 m 0
 328 733 315 720 298 720 c 0
 281 720 268 733 268 750 c 0
 268 767 281 780 298 780 c 0
 315 780 328 767 328 750 c 0
EndSplineSet
EndChar

StartChar: glyph40
Encoding: 8356 8356 40
Width: 600
VWidth: 0
UnlinkRmOvrlpSave: 1
Flags: W
HStem: 220 60<91.1064 148.894 198.106 255.894 304.106 361.894 411.106 468.894> 303 60<216.106 273.894> 387 60<127.106 184.894 234.106 291.894 340.106 397.894> 470 60<252.106 309.894> 553 60<162.106 219.894 269.106 326.894 375.106 432.894> 637 60<287.106 344.894 500.106 557.894> 720 60<358.106 415.894 465.106 522.894>
VStem: 90 60<221.106 278.894> 126 60<388.106 445.894> 161 60<554.106 611.894> 197 60<221.106 278.894> 215 60<304.106 361.894> 233 60<388.106 445.894> 251 60<471.106 528.894> 268 60<554.106 611.894> 286 60<638.106 695.894> 303 60<221.106 278.894> 339 60<388.106 445.894> 357 60<721.106 778.894> 374 60<554.106 611.894> 410 60<221.106 278.894> 464 60<721.106 778.894> 499 60<638.106 695.894>
LayerCount: 2
Back
Fore
SplineSet
470 250 m 0xfe0008
 470 233 457 220 440 220 c 0
 423 220 410 233 410 250 c 0
 410 267 423 280 440 280 c 0
 457 280 470 267 470 250 c 0xfe0008
363 250 m 0xfe0080
 363 233 350 220 333 220 c 0
 316 220 303 233 303 250 c 0
 303 267 316 280 333 280 c 0
 350 280 363 267 363 250 c 0xfe0080
257 250 m 0xfe20
 257 233 244 220 227 220 c 0
 210 220 197 233 197 250 c 0
 197 267 210 280 227 280 c 0
 244 280 257 267 257 250 c 0xfe20
150 250 m 0xff
 150 233 137 220 120 220 c 0
 103 220 90 233 90 250 c 0
 90 267 103 280 120 280 c 0
 137 280 150 267 150 250 c 0xff
275 333 m 0xfe10
 275 316 262 303 245 303 c 0
 228 303 215 316 215 333 c 0
 215 350 228 363 245 363 c 0
 262 363 275 350 275 333 c 0xfe10
399 417 m 0xfe0040
 399 400 386 387 369 387 c 0
 352 387 339 400 339 417 c 0
 339 434 352 447 369 447 c 0
 386 447 399 434 399 417 c 0xfe0040
293 417 m 0xfe08
 293 400 280 387 263 387 c 0
 246 387 233 400 233 417 c 0
 233 434 246 447 263 447 c 0
 280 447 293 434 293 417 c 0xfe08
186 417 m 0xfe80
 186 400 173 387 156 387 c 0
 139 387 126 400 126 417 c 0
 126 434 139 447 156 447 c 0
 173 447 186 434 186 417 c 0xfe80
311 500 m 0xfe04
 311 483 298 470 281 470 c 0
 264 470 251 483 251 500 c 0
 251 517 264 530 281 530 c 0
 298 530 311 517 311 500 c 0xfe04
434 583 m 0xfe0010
 434 566 421 553 404 553 c 0
 387 553 374 566 374 583 c 0
 374 600 387 613 404 613 c 0
 421 613 434 600 434 583 c 0xfe0010
328 583 m 0xfe02
 328 566 315 553 298 553 c 0
 281 553 268 566 268 583 c 0
 268 600 281 613 298 613 c 0
 315 613 328 600 328 583 c 0xfe02
221 583 m 0xfe40
 221 566 208 553 191 553 c 0
 174 553 161 566 161 583 c 0
 161 600 174 613 191 613 c 0
 208 613 221 600 221 583 c 0xfe40
559 667 m 0xfe0002
 559 650 546 637 529 637 c 0
 512 637 499 650 499 667 c 0
 499 684 512 697 529 697 c 0
 546 697 559 684 559 667 c 0xfe0002
346 667 m 0xfe01
 346 650 333 637 316 637 c 0
 299 637 286 650 286 667 c 0
 286 684 299 697 316 697 c 0
 333 697 346 684 346 667 c 0xfe01
524 750 m 0xfe0004
 524 733 511 720 494 720 c 0
 477 720 464 733 464 750 c 0
 464 767 477 780 494 780 c 0
 511 780 524 767 524 750 c 0xfe0004
417 750 m 0xfe0020
 417 733 404 720 387 720 c 0
 370 720 357 733 357 750 c 0
 357 767 370 780 387 780 c 0
 404 780 417 767 417 750 c 0xfe0020
EndSplineSet
EndChar

StartChar: quotesingle
Encoding: 39 39 41
Width: 600
VWidth: 0
UnlinkRmOvrlpSave: 1
Flags: W
HStem: 553 60<91.1064 148.894> 637 60<162.106 219.894> 720 60<233.106 290.894>
VStem: 90 60<554.106 611.894> 161 60<638.106 695.894> 232 60<721.106 778.894>
CounterMasks: 1 1c
LayerCount: 2
Back
Fore
SplineSet
150 583 m 0
 150 566 137 553 120 553 c 0
 103 553 90 566 90 583 c 0
 90 600 103 613 120 613 c 0
 137 613 150 600 150 583 c 0
221 667 m 0
 221 650 208 637 191 637 c 0
 174 637 161 650 161 667 c 0
 161 684 174 697 191 697 c 0
 208 697 221 684 221 667 c 0
292 750 m 0
 292 733 279 720 262 720 c 0
 245 720 232 733 232 750 c 0
 232 767 245 780 262 780 c 0
 279 780 292 767 292 750 c 0
EndSplineSet
EndChar

StartChar: plus
Encoding: 43 43 42
Width: 600
VWidth: 0
UnlinkRmOvrlpSave: 1
Flags: W
HStem: 220 60<197.106 254.894> 303 60<215.106 272.894> 387 60<233.106 290.894> 470 60<91.1064 148.894 198.106 255.894 304.106 361.894 411.106 468.894> 553 60<268.106 325.894> 637 60<286.106 343.894> 720 60<304.106 361.894>
VStem: 90 60<471.106 528.894> 196 60<221.106 278.894 471.312 528.688> 214 60<304.106 361.894> 232 60<388.106 445.894> 267 60<554.106 611.894> 285 60<638.106 695.894> 303 60<471.106 528.894 721.106 778.894> 410 60<471.106 528.894>
LayerCount: 2
Back
Fore
SplineSet
256 250 m 0xff82
 256 233 243 220 226 220 c 0
 209 220 196 233 196 250 c 0
 196 267 209 280 226 280 c 0
 243 280 256 267 256 250 c 0xff82
274 333 m 0xff42
 274 316 261 303 244 303 c 0
 227 303 214 316 214 333 c 0
 214 350 227 363 244 363 c 0
 261 363 274 350 274 333 c 0xff42
292 417 m 0xff22
 292 400 279 387 262 387 c 0
 245 387 232 400 232 417 c 0
 232 434 245 447 262 447 c 0
 279 447 292 434 292 417 c 0xff22
470 500 m 0
 470 483 457 470 440 470 c 0
 423 470 410 483 410 500 c 0
 410 517 423 530 440 530 c 0
 457 530 470 517 470 500 c 0
363 500 m 0xff06
 363 483 350 470 333 470 c 0
 316 470 303 483 303 500 c 0
 303 517 316 530 333 530 c 0
 350 530 363 517 363 500 c 0xff06
257 500 m 0
 257 483 244 470 227 470 c 0
 210 470 197 483 197 500 c 0
 197 517 210 530 227 530 c 0
 244 530 257 517 257 500 c 0
150 500 m 0
 150 483 137 470 120 470 c 0
 103 470 90 483 90 500 c 0
 90 517 103 530 120 530 c 0
 137 530 150 517 150 500 c 0
327 583 m 0xff12
 327 566 314 553 297 553 c 0
 280 553 267 566 267 583 c 0
 267 600 280 613 297 613 c 0
 314 613 327 600 327 583 c 0xff12
345 667 m 0xff0a
 345 650 332 637 315 637 c 0
 298 637 285 650 285 667 c 0
 285 684 298 697 315 697 c 0
 332 697 345 684 345 667 c 0xff0a
363 750 m 0xff06
 363 733 350 720 333 720 c 0
 316 720 303 733 303 750 c 0
 303 767 316 780 333 780 c 0
 350 780 363 767 363 750 c 0xff06
EndSplineSet
EndChar

StartChar: glyph43
Encoding: 8364 8364 43
Width: 600
VWidth: 0
UnlinkRmOvrlpSave: 1
Flags: W
HStem: 220 60<215.106 272.894 322.106 379.894> 303 60<180.106 237.894 393.106 450.894> 387 60<91.1064 148.894 198.106 255.894 304.106 361.894> 470 60<216.106 273.894> 553 60<126.106 183.894 233.106 290.894 339.106 396.894> 637 60<251.106 308.894 464.106 521.894> 720 60<322.106 379.894 429.106 486.894>
VStem: 90 60<388.106 445.894> 125 60<554.106 611.894> 179 60<304.106 361.894> 197 60<388.106 445.894> 214 60<221.106 278.894 471.312 528.688> 232 60<554.106 611.894> 250 60<638.106 695.894> 303 60<388.106 445.894> 321 60<221.106 278.894 721.106 778.894> 338 60<554.106 611.894> 392 60<304.106 361.894> 428 60<721.106 778.894> 463 60<638.106 695.894>
LayerCount: 2
Back
Fore
SplineSet
381 250 m 0xfe01
 381 233 368 220 351 220 c 0
 334 220 321 233 321 250 c 0
 321 267 334 280 351 280 c 0
 368 280 381 267 381 250 c 0xfe01
274 250 m 0xfe10
 274 233 261 220 244 220 c 0
 227 220 214 233 214 250 c 0
 214 267 227 280 244 280 c 0
 261 280 274 267 274 250 c 0xfe10
452 333 m 0xfe0040
 452 316 439 303 422 303 c 0
 405 303 392 316 392 333 c 0
 392 350 405 363 422 363 c 0
 439 363 452 350 452 333 c 0xfe0040
239 333 m 0xfe40
 239 316 226 303 209 303 c 0
 192 303 179 316 179 333 c 0
 179 350 192 363 209 363 c 0
 226 363 239 350 239 333 c 0xfe40
363 417 m 0xfe02
 363 400 350 387 333 387 c 0
 316 387 303 400 303 417 c 0
 303 434 316 447 333 447 c 0
 350 447 363 434 363 417 c 0xfe02
257 417 m 0xfe20
 257 400 244 387 227 387 c 0
 210 387 197 400 197 417 c 0
 197 434 210 447 227 447 c 0
 244 447 257 434 257 417 c 0xfe20
150 417 m 0xff
 150 400 137 387 120 387 c 0
 103 387 90 400 90 417 c 0
 90 434 103 447 120 447 c 0
 137 447 150 434 150 417 c 0xff
275 500 m 0
 275 483 262 470 245 470 c 0
 228 470 215 483 215 500 c 0
 215 517 228 530 245 530 c 0
 262 530 275 517 275 500 c 0
398 583 m 0xfe0080
 398 566 385 553 368 553 c 0
 351 553 338 566 338 583 c 0
 338 600 351 613 368 613 c 0
 385 613 398 600 398 583 c 0xfe0080
292 583 m 0xfe08
 292 566 279 553 262 553 c 0
 245 553 232 566 232 583 c 0
 232 600 245 613 262 613 c 0
 279 613 292 600 292 583 c 0xfe08
185 583 m 0xfe80
 185 566 172 553 155 553 c 0
 138 553 125 566 125 583 c 0
 125 600 138 613 155 613 c 0
 172 613 185 600 185 583 c 0xfe80
523 667 m 0xfe0010
 523 650 510 637 493 637 c 0
 476 637 463 650 463 667 c 0
 463 684 476 697 493 697 c 0
 510 697 523 684 523 667 c 0xfe0010
310 667 m 0xfe04
 310 650 297 637 280 637 c 0
 263 637 250 650 250 667 c 0
 250 684 263 697 280 697 c 0
 297 697 310 684 310 667 c 0xfe04
488 750 m 0xfe0020
 488 733 475 720 458 720 c 0
 441 720 428 733 428 750 c 0
 428 767 441 780 458 780 c 0
 475 780 488 767 488 750 c 0xfe0020
381 750 m 0xfe01
 381 733 368 720 351 720 c 0
 334 720 321 733 321 750 c 0
 321 767 334 780 351 780 c 0
 368 780 381 767 381 750 c 0xfe01
EndSplineSet
EndChar

StartChar: slash
Encoding: 47 47 44
Width: 600
VWidth: 0
UnlinkRmOvrlpSave: 1
Flags: W
HStem: 220 60<91.1064 148.894> 303 60<162.106 219.894> 387 60<234.106 291.894> 470 60<305.106 362.894> 553 60<375.106 432.894> 637 60<447.106 504.894> 720 60<518.106 575.894>
VStem: 90 60<221.106 278.894> 161 60<304.106 361.894> 233 60<388.106 445.894> 304 60<471.106 528.894> 374 60<554.106 611.894> 446 60<638.106 695.894> 517 60<721.106 778.894>
LayerCount: 2
Back
Fore
SplineSet
150 250 m 0
 150 233 137 220 120 220 c 0
 103 220 90 233 90 250 c 0
 90 267 103 280 120 280 c 0
 137 280 150 267 150 250 c 0
221 333 m 0
 221 316 208 303 191 303 c 0
 174 303 161 316 161 333 c 0
 161 350 174 363 191 363 c 0
 208 363 221 350 221 333 c 0
293 417 m 0
 293 400 280 387 263 387 c 0
 246 387 233 400 233 417 c 0
 233 434 246 447 263 447 c 0
 280 447 293 434 293 417 c 0
364 500 m 0
 364 483 351 470 334 470 c 0
 317 470 304 483 304 500 c 0
 304 517 317 530 334 530 c 0
 351 530 364 517 364 500 c 0
434 583 m 0
 434 566 421 553 404 553 c 0
 387 553 374 566 374 583 c 0
 374 600 387 613 404 613 c 0
 421 613 434 600 434 583 c 0
506 667 m 0
 506 650 493 637 476 637 c 0
 459 637 446 650 446 667 c 0
 446 684 459 697 476 697 c 0
 493 697 506 684 506 667 c 0
577 750 m 0
 577 733 564 720 547 720 c 0
 530 720 517 733 517 750 c 0
 517 767 530 780 547 780 c 0
 564 780 577 767 577 750 c 0
EndSplineSet
EndChar

StartChar: glyph45
Encoding: 305 305 45
Width: 600
VWidth: 0
UnlinkRmOvrlpSave: 1
Flags: W
HStem: 220 60<91.1064 148.894 198.106 255.894 305.106 362.894> 303 60<216.106 273.894> 387 60<234.106 291.894> 470 60<252.106 309.894> 553 60<162.106 219.894 269.106 326.894>
VStem: 90 60<221.106 278.894> 161 60<554.106 611.894> 197 60<221.106 278.894> 215 60<304.106 361.894> 233 60<388.106 445.894> 251 60<471.106 528.894> 268 60<554.106 611.894> 304 60<221.106 278.894>
LayerCount: 2
Back
Fore
SplineSet
364 250 m 0xfc08
 364 233 351 220 334 220 c 0
 317 220 304 233 304 250 c 0
 304 267 317 280 334 280 c 0
 351 280 364 267 364 250 c 0xfc08
257 250 m 0xfd
 257 233 244 220 227 220 c 0
 210 220 197 233 197 250 c 0
 197 267 210 280 227 280 c 0
 244 280 257 267 257 250 c 0xfd
150 250 m 0
 150 233 137 220 120 220 c 0
 103 220 90 233 90 250 c 0
 90 267 103 280 120 280 c 0
 137 280 150 267 150 250 c 0
275 333 m 0xfc80
 275 316 262 303 245 303 c 0
 228 303 215 316 215 333 c 0
 215 350 228 363 245 363 c 0
 262 363 275 350 275 333 c 0xfc80
293 417 m 0xfc40
 293 400 280 387 263 387 c 0
 246 387 233 400 233 417 c 0
 233 434 246 447 263 447 c 0
 280 447 293 434 293 417 c 0xfc40
311 500 m 0xfc20
 311 483 298 470 281 470 c 0
 264 470 251 483 251 500 c 0
 251 517 264 530 281 530 c 0
 298 530 311 517 311 500 c 0xfc20
328 583 m 0xfc10
 328 566 315 553 298 553 c 0
 281 553 268 566 268 583 c 0
 268 600 281 613 298 613 c 0
 315 613 328 600 328 583 c 0xfc10
221 583 m 0xfe
 221 566 208 553 191 553 c 0
 174 553 161 566 161 583 c 0
 161 600 174 613 191 613 c 0
 208 613 221 600 221 583 c 0xfe
EndSplineSet
EndChar

StartChar: degree
Encoding: 176 176 46
Width: 600
VWidth: 0
UnlinkRmOvrlpSave: 1
Flags: W
HStem: 553 60<127.106 184.894 233.106 290.894> 637 60<91.1064 148.894 305.106 362.894> 720 60<163.106 220.894 269.106 326.894>
VStem: 90 60<638.106 695.894> 126 60<554.106 611.894> 162 60<721.106 778.894> 232 60<554.106 611.894> 268 60<721.106 778.894> 304 60<638.106 695.894>
LayerCount: 2
Back
Fore
SplineSet
292 583 m 0xe2
 292 566 279 553 262 553 c 0
 245 553 232 566 232 583 c 0
 232 600 245 613 262 613 c 0
 279 613 292 600 292 583 c 0xe2
186 583 m 0xe8
 186 566 173 553 156 553 c 0
 139 553 126 566 126 583 c 0
 126 600 139 613 156 613 c 0
 173 613 186 600 186 583 c 0xe8
364 667 m 0xe080
 364 650 351 637 334 637 c 0
 317 637 304 650 304 667 c 0
 304 684 317 697 334 697 c 0
 351 697 364 684 364 667 c 0xe080
150 667 m 0xf0
 150 650 137 637 120 637 c 0
 103 637 90 650 90 667 c 0
 90 684 103 697 120 697 c 0
 137 697 150 684 150 667 c 0xf0
328 750 m 0xe1
 328 733 315 720 298 720 c 0
 281 720 268 733 268 750 c 0
 268 767 281 780 298 780 c 0
 315 780 328 767 328 750 c 0xe1
222 750 m 0xe4
 222 733 209 720 192 720 c 0
 175 720 162 733 162 750 c 0
 162 767 175 780 192 780 c 0
 209 780 222 767 222 750 c 0xe4
EndSplineSet
EndChar

StartChar: three
Encoding: 51 51 47
Width: 600
VWidth: 0
UnlinkRmOvrlpSave: 1
Flags: W
HStem: 220 60<126.106 183.894 233.106 290.894 340.106 397.894> 303 60<91.1064 148.894 411.106 468.894> 387 60<429.106 486.894> 470 60<287.106 344.894 394.106 451.894> 553 60<357.106 414.894> 637 60<429.106 486.894> 720 60<180.106 237.894 287.106 344.894 393.106 450.894 500.106 557.894>
VStem: 90 60<304.106 361.894> 125 60<221.106 278.894> 179 60<721.106 778.894> 232 60<221.106 278.894> 286 60<471.106 528.894 721.106 778.894> 339 60<221.106 278.894> 356 60<554.106 611.894> 393 60<471.106 528.894 721.312 778.688> 410 60<304.106 361.894> 428 60<388.106 445.894 638.106 695.894> 499 60<721.106 778.894>
LayerCount: 2
Back
Fore
SplineSet
399 250 m 0xfe0840
 399 233 386 220 369 220 c 0
 352 220 339 233 339 250 c 0
 339 267 352 280 369 280 c 0
 386 280 399 267 399 250 c 0xfe0840
292 250 m 0xfe2040
 292 233 279 220 262 220 c 0
 245 220 232 233 232 250 c 0
 232 267 245 280 262 280 c 0
 279 280 292 267 292 250 c 0xfe2040
185 250 m 0xfe8040
 185 233 172 220 155 220 c 0
 138 220 125 233 125 250 c 0
 125 267 138 280 155 280 c 0
 172 280 185 267 185 250 c 0xfe8040
470 333 m 0xfe0140
 470 316 457 303 440 303 c 0
 423 303 410 316 410 333 c 0
 410 350 423 363 440 363 c 0
 457 363 470 350 470 333 c 0xfe0140
150 333 m 0xff0040
 150 316 137 303 120 303 c 0
 103 303 90 316 90 333 c 0
 90 350 103 363 120 363 c 0
 137 363 150 350 150 333 c 0xff0040
488 417 m 0xfe00c0
 488 400 475 387 458 387 c 0
 441 387 428 400 428 417 c 0
 428 434 441 447 458 447 c 0
 475 447 488 434 488 417 c 0xfe00c0
453 500 m 0xfe0240
 453 483 440 470 423 470 c 0
 406 470 393 483 393 500 c 0
 393 517 406 530 423 530 c 0
 440 530 453 517 453 500 c 0xfe0240
346 500 m 0xfe1040
 346 483 333 470 316 470 c 0
 299 470 286 483 286 500 c 0
 286 517 299 530 316 530 c 0
 333 530 346 517 346 500 c 0xfe1040
416 583 m 0xfe0440
 416 566 403 553 386 553 c 0
 369 553 356 566 356 583 c 0
 356 600 369 613 386 613 c 0
 403 613 416 600 416 583 c 0xfe0440
488 667 m 0xfe00c0
 488 650 475 637 458 637 c 0
 441 637 428 650 428 667 c 0
 428 684 441 697 458 697 c 0
 475 697 488 684 488 667 c 0xfe00c0
559 750 m 0
 559 733 546 720 529 720 c 0
 512 720 499 733 499 750 c 0
 499 767 512 780 529 780 c 0
 546 780 559 767 559 750 c 0
452 750 m 0
 452 733 439 720 422 720 c 0
 405 720 392 733 392 750 c 0
 392 767 405 780 422 780 c 0
 439 780 452 767 452 750 c 0
346 750 m 0xfe1040
 346 733 333 720 316 720 c 0
 299 720 286 733 286 750 c 0
 286 767 299 780 316 780 c 0
 333 780 346 767 346 750 c 0xfe1040
239 750 m 0xfe4040
 239 733 226 720 209 720 c 0
 192 720 179 733 179 750 c 0
 179 767 192 780 209 780 c 0
 226 780 239 767 239 750 c 0xfe4040
EndSplineSet
EndChar

StartChar: seven
Encoding: 55 55 48
Width: 600
VWidth: 0
UnlinkRmOvrlpSave: 1
Flags: W
HStem: 220 60<91.1064 148.894> 303 60<163.106 220.894> 387 60<234.106 291.894> 470 60<305.106 362.894> 553 60<376.106 433.894> 637 60<447.106 504.894> 720 60<145.106 202.894 252.106 309.894 358.106 415.894 465.106 522.894>
VStem: 90 60<221.106 278.894> 144 60<721.106 778.894> 162 60<304.106 361.894> 233 60<388.106 445.894> 251 60<721.106 778.894> 304 60<471.106 528.894> 357 60<721.106 778.894> 375 60<554.106 611.894> 446 60<638.106 695.894> 464 60<721.106 778.894>
LayerCount: 2
Back
Fore
SplineSet
150 250 m 0xff
 150 233 137 220 120 220 c 0
 103 220 90 233 90 250 c 0
 90 267 103 280 120 280 c 0
 137 280 150 267 150 250 c 0xff
222 333 m 0xfe40
 222 316 209 303 192 303 c 0
 175 303 162 316 162 333 c 0
 162 350 175 363 192 363 c 0
 209 363 222 350 222 333 c 0xfe40
293 417 m 0xfe20
 293 400 280 387 263 387 c 0
 246 387 233 400 233 417 c 0
 233 434 246 447 263 447 c 0
 280 447 293 434 293 417 c 0xfe20
364 500 m 0xfe08
 364 483 351 470 334 470 c 0
 317 470 304 483 304 500 c 0
 304 517 317 530 334 530 c 0
 351 530 364 517 364 500 c 0xfe08
435 583 m 0xfe02
 435 566 422 553 405 553 c 0
 388 553 375 566 375 583 c 0
 375 600 388 613 405 613 c 0
 422 613 435 600 435 583 c 0xfe02
506 667 m 0xfe01
 506 650 493 637 476 637 c 0
 459 637 446 650 446 667 c 0
 446 684 459 697 476 697 c 0
 493 697 506 684 506 667 c 0xfe01
524 750 m 0xfe0080
 524 733 511 720 494 720 c 0
 477 720 464 733 464 750 c 0
 464 767 477 780 494 780 c 0
 511 780 524 767 524 750 c 0xfe0080
417 750 m 0xfe04
 417 733 404 720 387 720 c 0
 370 720 357 733 357 750 c 0
 357 767 370 780 387 780 c 0
 404 780 417 767 417 750 c 0xfe04
311 750 m 0xfe10
 311 733 298 720 281 720 c 0
 264 720 251 733 251 750 c 0
 251 767 264 780 281 780 c 0
 298 780 311 767 311 750 c 0xfe10
204 750 m 0xfe80
 204 733 191 720 174 720 c 0
 157 720 144 733 144 750 c 0
 144 767 157 780 174 780 c 0
 191 780 204 767 204 750 c 0xfe80
EndSplineSet
EndChar

StartChar: semicolon
Encoding: 59 59 49
Width: 600
VWidth: 0
UnlinkRmOvrlpSave: 1
Flags: W
HStem: 220 60<91.1064 148.894> 303 60<162.106 219.894> 387 60<127.106 184.894 233.106 290.894> 470 60<145.106 202.894 251.106 308.894> 637 60<180.106 237.894 286.106 343.894> 720 60<251.106 308.894>
VStem: 90 60<221.106 278.894> 126 60<388.106 445.894> 144 60<471.106 528.894> 161 60<304.106 361.894> 179 60<638.106 695.894> 232 60<388.106 445.894> 250 60<471.106 528.894 721.106 778.894> 285 60<638.106 695.894>
LayerCount: 2
Back
Fore
SplineSet
150 250 m 0xfe
 150 233 137 220 120 220 c 0
 103 220 90 233 90 250 c 0
 90 267 103 280 120 280 c 0
 137 280 150 267 150 250 c 0xfe
221 333 m 0xfc40
 221 316 208 303 191 303 c 0
 174 303 161 316 161 333 c 0
 161 350 174 363 191 363 c 0
 208 363 221 350 221 333 c 0xfc40
292 417 m 0xfc10
 292 400 279 387 262 387 c 0
 245 387 232 400 232 417 c 0
 232 434 245 447 262 447 c 0
 279 447 292 434 292 417 c 0xfc10
186 417 m 0xfd
 186 400 173 387 156 387 c 0
 139 387 126 400 126 417 c 0
 126 434 139 447 156 447 c 0
 173 447 186 434 186 417 c 0xfd
310 500 m 0xfc08
 310 483 297 470 280 470 c 0
 263 470 250 483 250 500 c 0
 250 517 263 530 280 530 c 0
 297 530 310 517 310 500 c 0xfc08
204 500 m 0xfc80
 204 483 191 470 174 470 c 0
 157 470 144 483 144 500 c 0
 144 517 157 530 174 530 c 0
 191 530 204 517 204 500 c 0xfc80
345 667 m 0xfc04
 345 650 332 637 315 637 c 0
 298 637 285 650 285 667 c 0
 285 684 298 697 315 697 c 0
 332 697 345 684 345 667 c 0xfc04
239 667 m 0xfc20
 239 650 226 637 209 637 c 0
 192 637 179 650 179 667 c 0
 179 684 192 697 209 697 c 0
 226 697 239 684 239 667 c 0xfc20
310 750 m 0xfc08
 310 733 297 720 280 720 c 0
 263 720 250 733 250 750 c 0
 250 767 263 780 280 780 c 0
 297 780 310 767 310 750 c 0xfc08
EndSplineSet
EndChar

StartChar: question
Encoding: 63 63 50
Width: 600
VWidth: 0
UnlinkRmOvrlpSave: 1
Flags: W
HStem: 220 60<162.106 219.894> 387 60<198.106 255.894> 470 60<216.106 273.894> 553 60<233.106 290.894 340.106 397.894> 637 60<91.1064 148.894 411.106 468.894> 720 60<162.106 219.894 269.106 326.894 376.106 433.894>
VStem: 90 60<638.106 695.894> 161 60<221.106 278.894 721.106 778.894> 197 60<388.106 445.894> 215 60<471.106 528.894> 232 60<554.106 611.894> 268 60<721.106 778.894> 339 60<554.106 611.894> 375 60<721.106 778.894> 410 60<638.106 695.894>
LayerCount: 2
Back
Fore
SplineSet
221 250 m 0xff
 221 233 208 220 191 220 c 0
 174 220 161 233 161 250 c 0
 161 267 174 280 191 280 c 0
 208 280 221 267 221 250 c 0xff
257 417 m 0xfe80
 257 400 244 387 227 387 c 0
 210 387 197 400 197 417 c 0
 197 434 210 447 227 447 c 0
 244 447 257 434 257 417 c 0xfe80
275 500 m 0xfe40
 275 483 262 470 245 470 c 0
 228 470 215 483 215 500 c 0
 215 517 228 530 245 530 c 0
 262 530 275 517 275 500 c 0xfe40
399 583 m 0xfe08
 399 566 386 553 369 553 c 0
 352 553 339 566 339 583 c 0
 339 600 352 613 369 613 c 0
 386 613 399 600 399 583 c 0xfe08
292 583 m 0xfe20
 292 566 279 553 262 553 c 0
 245 553 232 566 232 583 c 0
 232 600 245 613 262 613 c 0
 279 613 292 600 292 583 c 0xfe20
470 667 m 0xfe02
 470 650 457 637 440 637 c 0
 423 637 410 650 410 667 c 0
 410 684 423 697 440 697 c 0
 457 697 470 684 470 667 c 0xfe02
150 667 m 0
 150 650 137 637 120 637 c 0
 103 637 90 650 90 667 c 0
 90 684 103 697 120 697 c 0
 137 697 150 684 150 667 c 0
435 750 m 0xfe04
 435 733 422 720 405 720 c 0
 388 720 375 733 375 750 c 0
 375 767 388 780 405 780 c 0
 422 780 435 767 435 750 c 0xfe04
328 750 m 0xfe10
 328 733 315 720 298 720 c 0
 281 720 268 733 268 750 c 0
 268 767 281 780 298 780 c 0
 315 780 328 767 328 750 c 0xfe10
221 750 m 0xff
 221 733 208 720 191 720 c 0
 174 720 161 733 161 750 c 0
 161 767 174 780 191 780 c 0
 208 780 221 767 221 750 c 0xff
EndSplineSet
EndChar

StartChar: Agrave
Encoding: 192 192 51
Width: 600
VWidth: 0
UnlinkRmOvrlpSave: 1
Flags: W
HStem: 220 60<91.1064 148.894 411.106 468.894> 303 60<109.106 166.894 216.106 273.894 322.106 379.894 429.106 486.894> 387 60<180.106 237.894 394.106 451.894> 470 60<252.106 309.894 358.106 415.894> 553 60<322.106 379.894> 637 60<393.106 450.894> 720 60<358.106 415.894>
VStem: 90 60<221.106 278.894> 108 60<304.106 361.894> 179 60<388.106 445.894> 215 60<304.106 361.894> 251 60<471.106 528.894> 321 60<304.106 361.894 554.106 611.894> 357 60<471.106 528.894 721.106 778.894> 393 60<388.106 445.894 638.312 695.688> 410 60<221.106 278.894> 428 60<304.106 361.894>
LayerCount: 2
Back
Fore
SplineSet
470 250 m 0xfe01
 470 233 457 220 440 220 c 0
 423 220 410 233 410 250 c 0
 410 267 423 280 440 280 c 0
 457 280 470 267 470 250 c 0xfe01
150 250 m 0xff
 150 233 137 220 120 220 c 0
 103 220 90 233 90 250 c 0
 90 267 103 280 120 280 c 0
 137 280 150 267 150 250 c 0xff
488 333 m 0xfe0080
 488 316 475 303 458 303 c 0
 441 303 428 316 428 333 c 0
 428 350 441 363 458 363 c 0
 475 363 488 350 488 333 c 0xfe0080
381 333 m 0xfe08
 381 316 368 303 351 303 c 0
 334 303 321 316 321 333 c 0
 321 350 334 363 351 363 c 0
 368 363 381 350 381 333 c 0xfe08
275 333 m 0xfe20
 275 316 262 303 245 303 c 0
 228 303 215 316 215 333 c 0
 215 350 228 363 245 363 c 0
 262 363 275 350 275 333 c 0xfe20
168 333 m 0xfe80
 168 316 155 303 138 303 c 0
 121 303 108 316 108 333 c 0
 108 350 121 363 138 363 c 0
 155 363 168 350 168 333 c 0xfe80
453 417 m 0xfe02
 453 400 440 387 423 387 c 0
 406 387 393 400 393 417 c 0
 393 434 406 447 423 447 c 0
 440 447 453 434 453 417 c 0xfe02
239 417 m 0xfe40
 239 400 226 387 209 387 c 0
 192 387 179 400 179 417 c 0
 179 434 192 447 209 447 c 0
 226 447 239 434 239 417 c 0xfe40
417 500 m 0xfe04
 417 483 404 470 387 470 c 0
 370 470 357 483 357 500 c 0
 357 517 370 530 387 530 c 0
 404 530 417 517 417 500 c 0xfe04
311 500 m 0xfe10
 311 483 298 470 281 470 c 0
 264 470 251 483 251 500 c 0
 251 517 264 530 281 530 c 0
 298 530 311 517 311 500 c 0xfe10
381 583 m 0xfe08
 381 566 368 553 351 553 c 0
 334 553 321 566 321 583 c 0
 321 600 334 613 351 613 c 0
 368 613 381 600 381 583 c 0xfe08
452 667 m 0
 452 650 439 637 422 637 c 0
 405 637 392 650 392 667 c 0
 392 684 405 697 422 697 c 0
 439 697 452 684 452 667 c 0
417 750 m 0xfe04
 417 733 404 720 387 720 c 0
 370 720 357 733 357 750 c 0
 357 767 370 780 387 780 c 0
 404 780 417 767 417 750 c 0xfe04
EndSplineSet
EndChar

StartChar: C
Encoding: 67 67 52
Width: 600
VWidth: 0
UnlinkRmOvrlpSave: 1
Flags: W
HStem: 220 60<126.106 183.894 233.106 290.894 340.106 397.894> 303 60<91.1064 148.894 411.106 468.894> 387 60<109.106 166.894> 470 60<127.106 184.894> 553 60<144.106 201.894> 637 60<162.106 219.894 482.106 539.894> 720 60<233.106 290.894 340.106 397.894 447.106 504.894>
VStem: 90 60<304.106 361.894> 108 60<388.106 445.894> 125 60<221.106 278.894 471.312 528.688> 143 60<554.106 611.894> 161 60<638.106 695.894> 232 60<221.106 278.894 721.106 778.894> 339 60<221.106 278.894 721.106 778.894> 410 60<304.106 361.894> 446 60<721.106 778.894> 481 60<638.106 695.894>
LayerCount: 2
Back
Fore
SplineSet
399 250 m 0xfe0c
 399 233 386 220 369 220 c 0
 352 220 339 233 339 250 c 0
 339 267 352 280 369 280 c 0
 386 280 399 267 399 250 c 0xfe0c
292 250 m 0
 292 233 279 220 262 220 c 0
 245 220 232 233 232 250 c 0
 232 267 245 280 262 280 c 0
 279 280 292 267 292 250 c 0
185 250 m 0xfe4c
 185 233 172 220 155 220 c 0
 138 220 125 233 125 250 c 0
 125 267 138 280 155 280 c 0
 172 280 185 267 185 250 c 0xfe4c
470 333 m 0xfe0e
 470 316 457 303 440 303 c 0
 423 303 410 316 410 333 c 0
 410 350 423 363 440 363 c 0
 457 363 470 350 470 333 c 0xfe0e
150 333 m 0xff0c
 150 316 137 303 120 303 c 0
 103 303 90 316 90 333 c 0
 90 350 103 363 120 363 c 0
 137 363 150 350 150 333 c 0xff0c
168 417 m 0xfe8c
 168 400 155 387 138 387 c 0
 121 387 108 400 108 417 c 0
 108 434 121 447 138 447 c 0
 155 447 168 434 168 417 c 0xfe8c
186 500 m 0
 186 483 173 470 156 470 c 0
 139 470 126 483 126 500 c 0
 126 517 139 530 156 530 c 0
 173 530 186 517 186 500 c 0
203 583 m 0xfe2c
 203 566 190 553 173 553 c 0
 156 553 143 566 143 583 c 0
 143 600 156 613 173 613 c 0
 190 613 203 600 203 583 c 0xfe2c
541 667 m 0xfe0c80
 541 650 528 637 511 637 c 0
 494 637 481 650 481 667 c 0
 481 684 494 697 511 697 c 0
 528 697 541 684 541 667 c 0xfe0c80
221 667 m 0xfe1c
 221 650 208 637 191 637 c 0
 174 637 161 650 161 667 c 0
 161 684 174 697 191 697 c 0
 208 697 221 684 221 667 c 0xfe1c
506 750 m 0xfe0d
 506 733 493 720 476 720 c 0
 459 720 446 733 446 750 c 0
 446 767 459 780 476 780 c 0
 493 780 506 767 506 750 c 0xfe0d
399 750 m 0
 399 733 386 720 369 720 c 0
 352 720 339 733 339 750 c 0
 339 767 352 780 369 780 c 0
 386 780 399 767 399 750 c 0
292 750 m 0
 292 733 279 720 262 720 c 0
 245 720 232 733 232 750 c 0
 232 767 245 780 262 780 c 0
 279 780 292 767 292 750 c 0
EndSplineSet
EndChar

StartChar: Adieresis
Encoding: 196 196 53
Width: 600
VWidth: 0
UnlinkRmOvrlpSave: 1
Flags: W
HStem: 220 60<91.1064 148.894 411.106 468.894> 303 60<109.106 166.894 429.106 486.894> 387 60<127.106 184.894 234.106 291.894 340.106 397.894 447.106 504.894> 470 60<198.106 255.894 412.106 469.894> 553 60<269.106 326.894 375.106 432.894> 637 60<340.106 397.894> 720 60<251.106 308.894 465.106 522.894>
VStem: 90 60<221.106 278.894> 108 60<304.106 361.894> 126 60<388.106 445.894> 197 60<471.106 528.894> 233 60<388.106 445.894> 250 60<721.106 778.894> 268 60<554.106 611.894> 339 60<388.106 445.894 638.106 695.894> 374 60<554.106 611.894> 410 60<221.106 278.894 471.312 528.688> 428 60<304.106 361.894> 446 60<388.106 445.894> 464 60<721.106 778.894>
LayerCount: 2
Back
Fore
SplineSet
470 250 m 0xfe0080
 470 233 457 220 440 220 c 0
 423 220 410 233 410 250 c 0
 410 267 423 280 440 280 c 0
 457 280 470 267 470 250 c 0xfe0080
150 250 m 0xff
 150 233 137 220 120 220 c 0
 103 220 90 233 90 250 c 0
 90 267 103 280 120 280 c 0
 137 280 150 267 150 250 c 0xff
488 333 m 0xfe0040
 488 316 475 303 458 303 c 0
 441 303 428 316 428 333 c 0
 428 350 441 363 458 363 c 0
 475 363 488 350 488 333 c 0xfe0040
168 333 m 0xfe80
 168 316 155 303 138 303 c 0
 121 303 108 316 108 333 c 0
 108 350 121 363 138 363 c 0
 155 363 168 350 168 333 c 0xfe80
506 417 m 0xfe0020
 506 400 493 387 476 387 c 0
 459 387 446 400 446 417 c 0
 446 434 459 447 476 447 c 0
 493 447 506 434 506 417 c 0xfe0020
399 417 m 0xfe02
 399 400 386 387 369 387 c 0
 352 387 339 400 339 417 c 0
 339 434 352 447 369 447 c 0
 386 447 399 434 399 417 c 0xfe02
293 417 m 0xfe10
 293 400 280 387 263 387 c 0
 246 387 233 400 233 417 c 0
 233 434 246 447 263 447 c 0
 280 447 293 434 293 417 c 0xfe10
186 417 m 0xfe40
 186 400 173 387 156 387 c 0
 139 387 126 400 126 417 c 0
 126 434 139 447 156 447 c 0
 173 447 186 434 186 417 c 0xfe40
471 500 m 0
 471 483 458 470 441 470 c 0
 424 470 411 483 411 500 c 0
 411 517 424 530 441 530 c 0
 458 530 471 517 471 500 c 0
257 500 m 0xfe20
 257 483 244 470 227 470 c 0
 210 470 197 483 197 500 c 0
 197 517 210 530 227 530 c 0
 244 530 257 517 257 500 c 0xfe20
434 583 m 0xfe01
 434 566 421 553 404 553 c 0
 387 553 374 566 374 583 c 0
 374 600 387 613 404 613 c 0
 421 613 434 600 434 583 c 0xfe01
328 583 m 0xfe04
 328 566 315 553 298 553 c 0
 281 553 268 566 268 583 c 0
 268 600 281 613 298 613 c 0
 315 613 328 600 328 583 c 0xfe04
399 667 m 0xfe02
 399 650 386 637 369 637 c 0
 352 637 339 650 339 667 c 0
 339 684 352 697 369 697 c 0
 386 697 399 684 399 667 c 0xfe02
524 750 m 0xfe0010
 524 733 511 720 494 720 c 0
 477 720 464 733 464 750 c 0
 464 767 477 780 494 780 c 0
 511 780 524 767 524 750 c 0xfe0010
310 750 m 0xfe08
 310 733 297 720 280 720 c 0
 263 720 250 733 250 750 c 0
 250 767 263 780 280 780 c 0
 297 780 310 767 310 750 c 0xfe08
EndSplineSet
EndChar

StartChar: G
Encoding: 71 71 54
Width: 600
VWidth: 0
UnlinkRmOvrlpSave: 1
Flags: W
HStem: 220 60<126.106 183.894 233.106 290.894 340.106 397.894> 303 60<91.1064 148.894 411.106 468.894> 387 60<109.106 166.894 429.106 486.894> 470 60<127.106 184.894 340.106 397.894 447.106 504.894> 553 60<144.106 201.894> 637 60<162.106 219.894 482.106 539.894> 720 60<233.106 290.894 340.106 397.894 447.106 504.894>
VStem: 90 60<304.106 361.894> 108 60<388.106 445.894> 125 60<221.106 278.894 471.312 528.688> 143 60<554.106 611.894> 161 60<638.106 695.894> 232 60<221.106 278.894 721.106 778.894> 339 60<221.106 278.894 471.106 528.894 721.106 778.894> 410 60<304.106 361.894> 428 60<388.106 445.894> 446 60<471.106 528.894 721.106 778.894> 481 60<638.106 695.894>
LayerCount: 2
Back
Fore
SplineSet
399 250 m 0xfe0c
 399 233 386 220 369 220 c 0
 352 220 339 233 339 250 c 0
 339 267 352 280 369 280 c 0
 386 280 399 267 399 250 c 0xfe0c
292 250 m 0
 292 233 279 220 262 220 c 0
 245 220 232 233 232 250 c 0
 232 267 245 280 262 280 c 0
 279 280 292 267 292 250 c 0
185 250 m 0xfe4c
 185 233 172 220 155 220 c 0
 138 220 125 233 125 250 c 0
 125 267 138 280 155 280 c 0
 172 280 185 267 185 250 c 0xfe4c
470 333 m 0xfe0e
 470 316 457 303 440 303 c 0
 423 303 410 316 410 333 c 0
 410 350 423 363 440 363 c 0
 457 363 470 350 470 333 c 0xfe0e
150 333 m 0xff0c
 150 316 137 303 120 303 c 0
 103 303 90 316 90 333 c 0
 90 350 103 363 120 363 c 0
 137 363 150 350 150 333 c 0xff0c
488 417 m 0xfe0d
 488 400 475 387 458 387 c 0
 441 387 428 400 428 417 c 0
 428 434 441 447 458 447 c 0
 475 447 488 434 488 417 c 0xfe0d
168 417 m 0xfe8c
 168 400 155 387 138 387 c 0
 121 387 108 400 108 417 c 0
 108 434 121 447 138 447 c 0
 155 447 168 434 168 417 c 0xfe8c
506 500 m 0xfe0c80
 506 483 493 470 476 470 c 0
 459 470 446 483 446 500 c 0
 446 517 459 530 476 530 c 0
 493 530 506 517 506 500 c 0xfe0c80
399 500 m 0
 399 483 386 470 369 470 c 0
 352 470 339 483 339 500 c 0
 339 517 352 530 369 530 c 0
 386 530 399 517 399 500 c 0
186 500 m 0
 186 483 173 470 156 470 c 0
 139 470 126 483 126 500 c 0
 126 517 139 530 156 530 c 0
 173 530 186 517 186 500 c 0
203 583 m 0xfe2c
 203 566 190 553 173 553 c 0
 156 553 143 566 143 583 c 0
 143 600 156 613 173 613 c 0
 190 613 203 600 203 583 c 0xfe2c
541 667 m 0xfe0c40
 541 650 528 637 511 637 c 0
 494 637 481 650 481 667 c 0
 481 684 494 697 511 697 c 0
 528 697 541 684 541 667 c 0xfe0c40
221 667 m 0xfe1c
 221 650 208 637 191 637 c 0
 174 637 161 650 161 667 c 0
 161 684 174 697 191 697 c 0
 208 697 221 684 221 667 c 0xfe1c
506 750 m 0xfe0c80
 506 733 493 720 476 720 c 0
 459 720 446 733 446 750 c 0
 446 767 459 780 476 780 c 0
 493 780 506 767 506 750 c 0xfe0c80
399 750 m 0
 399 733 386 720 369 720 c 0
 352 720 339 733 339 750 c 0
 339 767 352 780 369 780 c 0
 386 780 399 767 399 750 c 0
292 750 m 0
 292 733 279 720 262 720 c 0
 245 720 232 733 232 750 c 0
 232 767 245 780 262 780 c 0
 279 780 292 767 292 750 c 0
EndSplineSet
EndChar

StartChar: Egrave
Encoding: 200 200 55
Width: 600
VWidth: 0
UnlinkRmOvrlpSave: 1
Flags: W
HStem: 220 60<91.1064 148.894 198.106 255.894 304.106 361.894 411.106 468.894> 303 60<109.106 166.894> 387 60<127.106 184.894 234.106 291.894 340.106 397.894> 470 60<145.106 202.894> 553 60<162.106 219.894 269.106 326.894 375.106 432.894 482.106 539.894> 637 60<393.106 450.894> 720 60<358.106 415.894>
VStem: 90 60<221.106 278.894> 108 60<304.106 361.894> 126 60<388.106 445.894> 144 60<471.106 528.894> 161 60<554.106 611.894> 197 60<221.106 278.894> 233 60<388.106 445.894> 268 60<554.106 611.894> 303 60<221.106 278.894> 339 60<388.106 445.894> 357 60<721.106 778.894> 374 60<554.106 611.894> 392 60<638.106 695.894> 410 60<221.106 278.894> 481 60<554.106 611.894>
LayerCount: 2
Back
Fore
SplineSet
470 250 m 0xfe000c
 470 233 457 220 440 220 c 0
 423 220 410 233 410 250 c 0
 410 267 423 280 440 280 c 0
 457 280 470 267 470 250 c 0xfe000c
363 250 m 0xfe0104
 363 233 350 220 333 220 c 0
 316 220 303 233 303 250 c 0
 303 267 316 280 333 280 c 0
 350 280 363 267 363 250 c 0xfe0104
257 250 m 0xfe0804
 257 233 244 220 227 220 c 0
 210 220 197 233 197 250 c 0
 197 267 210 280 227 280 c 0
 244 280 257 267 257 250 c 0xfe0804
150 250 m 0xff0004
 150 233 137 220 120 220 c 0
 103 220 90 233 90 250 c 0
 90 267 103 280 120 280 c 0
 137 280 150 267 150 250 c 0xff0004
168 333 m 0xfe8004
 168 316 155 303 138 303 c 0
 121 303 108 316 108 333 c 0
 108 350 121 363 138 363 c 0
 155 363 168 350 168 333 c 0xfe8004
399 417 m 0xfe0084
 399 400 386 387 369 387 c 0
 352 387 339 400 339 417 c 0
 339 434 352 447 369 447 c 0
 386 447 399 434 399 417 c 0xfe0084
293 417 m 0xfe0404
 293 400 280 387 263 387 c 0
 246 387 233 400 233 417 c 0
 233 434 246 447 263 447 c 0
 280 447 293 434 293 417 c 0xfe0404
186 417 m 0xfe4004
 186 400 173 387 156 387 c 0
 139 387 126 400 126 417 c 0
 126 434 139 447 156 447 c 0
 173 447 186 434 186 417 c 0xfe4004
204 500 m 0xfe2004
 204 483 191 470 174 470 c 0
 157 470 144 483 144 500 c 0
 144 517 157 530 174 530 c 0
 191 530 204 517 204 500 c 0xfe2004
541 583 m 0
 541 566 528 553 511 553 c 0
 494 553 481 566 481 583 c 0
 481 600 494 613 511 613 c 0
 528 613 541 600 541 583 c 0
434 583 m 0xfe0024
 434 566 421 553 404 553 c 0
 387 553 374 566 374 583 c 0
 374 600 387 613 404 613 c 0
 421 613 434 600 434 583 c 0xfe0024
328 583 m 0xfe0204
 328 566 315 553 298 553 c 0
 281 553 268 566 268 583 c 0
 268 600 281 613 298 613 c 0
 315 613 328 600 328 583 c 0xfe0204
221 583 m 0xfe1004
 221 566 208 553 191 553 c 0
 174 553 161 566 161 583 c 0
 161 600 174 613 191 613 c 0
 208 613 221 600 221 583 c 0xfe1004
452 667 m 0xfe0014
 452 650 439 637 422 637 c 0
 405 637 392 650 392 667 c 0
 392 684 405 697 422 697 c 0
 439 697 452 684 452 667 c 0xfe0014
417 750 m 0xfe0044
 417 733 404 720 387 720 c 0
 370 720 357 733 357 750 c 0
 357 767 370 780 387 780 c 0
 404 780 417 767 417 750 c 0xfe0044
EndSplineSet
EndChar

StartChar: K
Encoding: 75 75 56
Width: 600
VWidth: 0
UnlinkRmOvrlpSave: 1
Flags: W
HStem: 220 60<91.1064 148.894 411.106 468.894> 303 60<109.106 166.894 376.106 433.894> 387 60<127.106 184.894 340.106 397.894> 470 60<145.106 202.894 305.106 362.894> 553 60<162.106 219.894 269.106 326.894> 637 60<180.106 237.894 393.106 450.894> 720 60<198.106 255.894 518.106 575.894>
VStem: 90 60<221.106 278.894> 108 60<304.106 361.894> 126 60<388.106 445.894> 144 60<471.106 528.894> 161 60<554.106 611.894> 179 60<638.106 695.894> 197 60<721.106 778.894> 268 60<554.106 611.894> 304 60<471.106 528.894> 339 60<388.106 445.894> 375 60<304.106 361.894> 392 60<638.106 695.894> 410 60<221.106 278.894> 517 60<721.106 778.894>
LayerCount: 2
Back
Fore
SplineSet
470 250 m 0xfe0018
 470 233 457 220 440 220 c 0
 423 220 410 233 410 250 c 0
 410 267 423 280 440 280 c 0
 457 280 470 267 470 250 c 0xfe0018
150 250 m 0xff0008
 150 233 137 220 120 220 c 0
 103 220 90 233 90 250 c 0
 90 267 103 280 120 280 c 0
 137 280 150 267 150 250 c 0xff0008
435 333 m 0xfe0048
 435 316 422 303 405 303 c 0
 388 303 375 316 375 333 c 0
 375 350 388 363 405 363 c 0
 422 363 435 350 435 333 c 0xfe0048
168 333 m 0xfe8008
 168 316 155 303 138 303 c 0
 121 303 108 316 108 333 c 0
 108 350 121 363 138 363 c 0
 155 363 168 350 168 333 c 0xfe8008
399 417 m 0xfe0088
 399 400 386 387 369 387 c 0
 352 387 339 400 339 417 c 0
 339 434 352 447 369 447 c 0
 386 447 399 434 399 417 c 0xfe0088
186 417 m 0xfe4008
 186 400 173 387 156 387 c 0
 139 387 126 400 126 417 c 0
 126 434 139 447 156 447 c 0
 173 447 186 434 186 417 c 0xfe4008
364 500 m 0xfe0108
 364 483 351 470 334 470 c 0
 317 470 304 483 304 500 c 0
 304 517 317 530 334 530 c 0
 351 530 364 517 364 500 c 0xfe0108
204 500 m 0xfe2008
 204 483 191 470 174 470 c 0
 157 470 144 483 144 500 c 0
 144 517 157 530 174 530 c 0
 191 530 204 517 204 500 c 0xfe2008
328 583 m 0xfe0208
 328 566 315 553 298 553 c 0
 281 553 268 566 268 583 c 0
 268 600 281 613 298 613 c 0
 315 613 328 600 328 583 c 0xfe0208
221 583 m 0xfe1008
 221 566 208 553 191 553 c 0
 174 553 161 566 161 583 c 0
 161 600 174 613 191 613 c 0
 208 613 221 600 221 583 c 0xfe1008
452 667 m 0xfe0028
 452 650 439 637 422 637 c 0
 405 637 392 650 392 667 c 0
 392 684 405 697 422 697 c 0
 439 697 452 684 452 667 c 0xfe0028
239 667 m 0xfe0808
 239 650 226 637 209 637 c 0
 192 637 179 650 179 667 c 0
 179 684 192 697 209 697 c 0
 226 697 239 684 239 667 c 0xfe0808
577 750 m 0
 577 733 564 720 547 720 c 0
 530 720 517 733 517 750 c 0
 517 767 530 780 547 780 c 0
 564 780 577 767 577 750 c 0
257 750 m 0xfe0408
 257 733 244 720 227 720 c 0
 210 720 197 733 197 750 c 0
 197 767 210 780 227 780 c 0
 244 780 257 767 257 750 c 0xfe0408
EndSplineSet
EndChar

StartChar: O
Encoding: 79 79 57
Width: 600
VWidth: 0
UnlinkRmOvrlpSave: 1
Flags: W
HStem: 220 60<126.106 183.894 233.106 290.894 340.106 397.894> 303 60<91.1064 148.894 411.106 468.894> 387 60<109.106 166.894 429.106 486.894> 470 60<127.106 184.894 447.106 504.894> 553 60<144.106 201.894 464.106 521.894> 637 60<162.106 219.894 482.106 539.894> 720 60<233.106 290.894 340.106 397.894 447.106 504.894>
VStem: 90 60<304.106 361.894> 108 60<388.106 445.894> 125 60<221.106 278.894 471.312 528.688> 143 60<554.106 611.894> 161 60<638.106 695.894> 232 60<221.106 278.894 721.106 778.894> 339 60<221.106 278.894 721.106 778.894> 410 60<304.106 361.894> 428 60<388.106 445.894> 446 60<471.106 528.894 721.106 778.894> 463 60<554.106 611.894> 481 60<638.106 695.894>
LayerCount: 2
Back
Fore
SplineSet
399 250 m 0xfe0c
 399 233 386 220 369 220 c 0
 352 220 339 233 339 250 c 0
 339 267 352 280 369 280 c 0
 386 280 399 267 399 250 c 0xfe0c
292 250 m 0
 292 233 279 220 262 220 c 0
 245 220 232 233 232 250 c 0
 232 267 245 280 262 280 c 0
 279 280 292 267 292 250 c 0
185 250 m 0xfe4c
 185 233 172 220 155 220 c 0
 138 220 125 233 125 250 c 0
 125 267 138 280 155 280 c 0
 172 280 185 267 185 250 c 0xfe4c
470 333 m 0xfe0e
 470 316 457 303 440 303 c 0
 423 303 410 316 410 333 c 0
 410 350 423 363 440 363 c 0
 457 363 470 350 470 333 c 0xfe0e
150 333 m 0xff0c
 150 316 137 303 120 303 c 0
 103 303 90 316 90 333 c 0
 90 350 103 363 120 363 c 0
 137 363 150 350 150 333 c 0xff0c
488 417 m 0xfe0d
 488 400 475 387 458 387 c 0
 441 387 428 400 428 417 c 0
 428 434 441 447 458 447 c 0
 475 447 488 434 488 417 c 0xfe0d
168 417 m 0xfe8c
 168 400 155 387 138 387 c 0
 121 387 108 400 108 417 c 0
 108 434 121 447 138 447 c 0
 155 447 168 434 168 417 c 0xfe8c
506 500 m 0xfe0c80
 506 483 493 470 476 470 c 0
 459 470 446 483 446 500 c 0
 446 517 459 530 476 530 c 0
 493 530 506 517 506 500 c 0xfe0c80
186 500 m 0
 186 483 173 470 156 470 c 0
 139 470 126 483 126 500 c 0
 126 517 139 530 156 530 c 0
 173 530 186 517 186 500 c 0
523 583 m 0xfe0c40
 523 566 510 553 493 553 c 0
 476 553 463 566 463 583 c 0
 463 600 476 613 493 613 c 0
 510 613 523 600 523 583 c 0xfe0c40
203 583 m 0xfe2c
 203 566 190 553 173 553 c 0
 156 553 143 566 143 583 c 0
 143 600 156 613 173 613 c 0
 190 613 203 600 203 583 c 0xfe2c
541 667 m 0xfe0c20
 541 650 528 637 511 637 c 0
 494 637 481 650 481 667 c 0
 481 684 494 697 511 697 c 0
 528 697 541 684 541 667 c 0xfe0c20
221 667 m 0xfe1c
 221 650 208 637 191 637 c 0
 174 637 161 650 161 667 c 0
 161 684 174 697 191 697 c 0
 208 697 221 684 221 667 c 0xfe1c
506 750 m 0xfe0c80
 506 733 493 720 476 720 c 0
 459 720 446 733 446 750 c 0
 446 767 459 780 476 780 c 0
 493 780 506 767 506 750 c 0xfe0c80
399 750 m 0
 399 733 386 720 369 720 c 0
 352 720 339 733 339 750 c 0
 339 767 352 780 369 780 c 0
 386 780 399 767 399 750 c 0
292 750 m 0
 292 733 279 720 262 720 c 0
 245 720 232 733 232 750 c 0
 232 767 245 780 262 780 c 0
 279 780 292 767 292 750 c 0
EndSplineSet
EndChar

StartChar: S
Encoding: 83 83 58
Width: 600
VWidth: 0
UnlinkRmOvrlpSave: 1
Flags: W
HStem: 220 60<126.106 183.894 233.106 290.894 340.106 397.894> 303 60<91.1064 148.894 411.106 468.894> 387 60<429.106 486.894> 470 60<180.106 237.894 287.106 344.894 394.106 451.894> 553 60<144.106 201.894> 637 60<162.106 219.894 482.106 539.894> 720 60<233.106 290.894 340.106 397.894 447.106 504.894>
VStem: 90 60<304.106 361.894> 125 60<221.106 278.894> 143 60<554.106 611.894> 161 60<638.106 695.894> 179 60<471.106 528.894> 232 60<221.106 278.894 721.106 778.894> 286 60<471.106 528.894> 339 60<221.106 278.894 721.106 778.894> 393 60<471.106 528.894> 410 60<304.106 361.894> 428 60<388.106 445.894> 446 60<721.106 778.894> 481 60<638.106 695.894>
LayerCount: 2
Back
Fore
SplineSet
399 250 m 0xfe02
 399 233 386 220 369 220 c 0
 352 220 339 233 339 250 c 0
 339 267 352 280 369 280 c 0
 386 280 399 267 399 250 c 0xfe02
292 250 m 0xfe08
 292 233 279 220 262 220 c 0
 245 220 232 233 232 250 c 0
 232 267 245 280 262 280 c 0
 279 280 292 267 292 250 c 0xfe08
185 250 m 0xfe80
 185 233 172 220 155 220 c 0
 138 220 125 233 125 250 c 0
 125 267 138 280 155 280 c 0
 172 280 185 267 185 250 c 0xfe80
470 333 m 0xfe0080
 470 316 457 303 440 303 c 0
 423 303 410 316 410 333 c 0
 410 350 423 363 440 363 c 0
 457 363 470 350 470 333 c 0xfe0080
150 333 m 0xff
 150 316 137 303 120 303 c 0
 103 303 90 316 90 333 c 0
 90 350 103 363 120 363 c 0
 137 363 150 350 150 333 c 0xff
488 417 m 0xfe0040
 488 400 475 387 458 387 c 0
 441 387 428 400 428 417 c 0
 428 434 441 447 458 447 c 0
 475 447 488 434 488 417 c 0xfe0040
453 500 m 0xfe01
 453 483 440 470 423 470 c 0
 406 470 393 483 393 500 c 0
 393 517 406 530 423 530 c 0
 440 530 453 517 453 500 c 0xfe01
346 500 m 0xfe04
 346 483 333 470 316 470 c 0
 299 470 286 483 286 500 c 0
 286 517 299 530 316 530 c 0
 333 530 346 517 346 500 c 0xfe04
239 500 m 0xfe10
 239 483 226 470 209 470 c 0
 192 470 179 483 179 500 c 0
 179 517 192 530 209 530 c 0
 226 530 239 517 239 500 c 0xfe10
203 583 m 0xfe40
 203 566 190 553 173 553 c 0
 156 553 143 566 143 583 c 0
 143 600 156 613 173 613 c 0
 190 613 203 600 203 583 c 0xfe40
541 667 m 0xfe0010
 541 650 528 637 511 637 c 0
 494 637 481 650 481 667 c 0
 481 684 494 697 511 697 c 0
 528 697 541 684 541 667 c 0xfe0010
221 667 m 0xfe20
 221 650 208 637 191 637 c 0
 174 637 161 650 161 667 c 0
 161 684 174 697 191 697 c 0
 208 697 221 684 221 667 c 0xfe20
506 750 m 0xfe0020
 506 733 493 720 476 720 c 0
 459 720 446 733 446 750 c 0
 446 767 459 780 476 780 c 0
 493 780 506 767 506 750 c 0xfe0020
399 750 m 0xfe02
 399 733 386 720 369 720 c 0
 352 720 339 733 339 750 c 0
 339 767 352 780 369 780 c 0
 386 780 399 767 399 750 c 0xfe02
292 750 m 0xfe08
 292 733 279 720 262 720 c 0
 245 720 232 733 232 750 c 0
 232 767 245 780 262 780 c 0
 279 780 292 767 292 750 c 0xfe08
EndSplineSet
EndChar

StartChar: W
Encoding: 87 87 59
Width: 600
VWidth: 0
UnlinkRmOvrlpSave: 1
Flags: W
HStem: 220 60<126.106 183.894 340.106 397.894> 303 60<91.1064 148.894 198.106 255.894 304.106 361.894 411.106 468.894> 387 60<109.106 166.894 269.106 326.894 429.106 486.894> 470 60<127.106 184.894 287.106 344.894 447.106 504.894> 553 60<144.106 201.894 464.106 521.894> 637 60<162.106 219.894 482.106 539.894> 720 60<180.106 237.894 500.106 557.894>
VStem: 90 60<304.106 361.894> 108 60<388.106 445.894> 125 60<221.106 278.894 471.312 528.688> 143 60<554.106 611.894> 161 60<638.106 695.894> 179 60<721.106 778.894> 197 60<304.106 361.894> 268 60<388.106 445.894> 286 60<471.106 528.894> 303 60<304.106 361.894> 339 60<221.106 278.894> 410 60<304.106 361.894> 428 60<388.106 445.894> 446 60<471.106 528.894> 463 60<554.106 611.894> 481 60<638.106 695.894> 499 60<721.106 778.894>
LayerCount: 2
Back
Fore
SplineSet
399 250 m 0xfe0040
 399 233 386 220 369 220 c 0
 352 220 339 233 339 250 c 0
 339 267 352 280 369 280 c 0
 386 280 399 267 399 250 c 0xfe0040
185 250 m 0xfe40
 185 233 172 220 155 220 c 0
 138 220 125 233 125 250 c 0
 125 267 138 280 155 280 c 0
 172 280 185 267 185 250 c 0xfe40
470 333 m 0xfe0020
 470 316 457 303 440 303 c 0
 423 303 410 316 410 333 c 0
 410 350 423 363 440 363 c 0
 457 363 470 350 470 333 c 0xfe0020
363 333 m 0xfe0080
 363 316 350 303 333 303 c 0
 316 303 303 316 303 333 c 0
 303 350 316 363 333 363 c 0
 350 363 363 350 363 333 c 0xfe0080
257 333 m 0xfe04
 257 316 244 303 227 303 c 0
 210 303 197 316 197 333 c 0
 197 350 210 363 227 363 c 0
 244 363 257 350 257 333 c 0xfe04
150 333 m 0xff
 150 316 137 303 120 303 c 0
 103 303 90 316 90 333 c 0
 90 350 103 363 120 363 c 0
 137 363 150 350 150 333 c 0xff
488 417 m 0xfe0010
 488 400 475 387 458 387 c 0
 441 387 428 400 428 417 c 0
 428 434 441 447 458 447 c 0
 475 447 488 434 488 417 c 0xfe0010
328 417 m 0xfe02
 328 400 315 387 298 387 c 0
 281 387 268 400 268 417 c 0
 268 434 281 447 298 447 c 0
 315 447 328 434 328 417 c 0xfe02
168 417 m 0xfe80
 168 400 155 387 138 387 c 0
 121 387 108 400 108 417 c 0
 108 434 121 447 138 447 c 0
 155 447 168 434 168 417 c 0xfe80
506 500 m 0xfe0008
 506 483 493 470 476 470 c 0
 459 470 446 483 446 500 c 0
 446 517 459 530 476 530 c 0
 493 530 506 517 506 500 c 0xfe0008
346 500 m 0xfe01
 346 483 333 470 316 470 c 0
 299 470 286 483 286 500 c 0
 286 517 299 530 316 530 c 0
 333 530 346 517 346 500 c 0xfe01
186 500 m 0
 186 483 173 470 156 470 c 0
 139 470 126 483 126 500 c 0
 126 517 139 530 156 530 c 0
 173 530 186 517 186 500 c 0
523 583 m 0xfe0004
 523 566 510 553 493 553 c 0
 476 553 463 566 463 583 c 0
 463 600 476 613 493 613 c 0
 510 613 523 600 523 583 c 0xfe0004
203 583 m 0xfe20
 203 566 190 553 173 553 c 0
 156 553 143 566 143 583 c 0
 143 600 156 613 173 613 c 0
 190 613 203 600 203 583 c 0xfe20
541 667 m 0xfe0002
 541 650 528 637 511 637 c 0
 494 637 481 650 481 667 c 0
 481 684 494 697 511 697 c 0
 528 697 541 684 541 667 c 0xfe0002
221 667 m 0xfe10
 221 650 208 637 191 637 c 0
 174 637 161 650 161 667 c 0
 161 684 174 697 191 697 c 0
 208 697 221 684 221 667 c 0xfe10
559 750 m 0xfe0001
 559 733 546 720 529 720 c 0
 512 720 499 733 499 750 c 0
 499 767 512 780 529 780 c 0
 546 780 559 767 559 750 c 0xfe0001
239 750 m 0xfe08
 239 733 226 720 209 720 c 0
 192 720 179 733 179 750 c 0
 179 767 192 780 209 780 c 0
 226 780 239 767 239 750 c 0xfe08
EndSplineSet
EndChar

StartChar: Oslash
Encoding: 216 216 60
Width: 600
VWidth: 0
UnlinkRmOvrlpSave: 1
Flags: W
HStem: 220 60<162.106 219.894 268.106 325.894> 303 60<126.106 183.894 340.106 397.894> 387 60<91.1064 148.894 198.106 255.894 411.106 468.894> 470 60<109.106 166.894 269.106 326.894 429.106 486.894> 553 60<126.106 183.894 339.106 396.894 446.106 503.894> 637 60<197.106 254.894 411.106 468.894> 720 60<269.106 326.894 375.106 432.894>
VStem: 90 60<388.106 445.894> 108 60<471.106 528.894> 125 60<304.106 361.894 554.106 611.894> 161 60<221.106 278.894> 197 60<388.106 445.894 638.312 695.688> 268 60<221.312 278.688 471.106 528.894 721.106 778.894> 339 60<304.106 361.894 554.312 611.688> 374 60<721.106 778.894> 410 60<388.106 445.894 638.106 695.894> 428 60<471.106 528.894> 445 60<554.106 611.894>
LayerCount: 2
Back
Fore
SplineSet
327 250 m 0xfe08
 327 233 314 220 297 220 c 0
 280 220 267 233 267 250 c 0
 267 267 280 280 297 280 c 0
 314 280 327 267 327 250 c 0xfe08
221 250 m 0xfe28
 221 233 208 220 191 220 c 0
 174 220 161 233 161 250 c 0
 161 267 174 280 191 280 c 0
 208 280 221 267 221 250 c 0xfe28
399 333 m 0xfe0c
 399 316 386 303 369 303 c 0
 352 303 339 316 339 333 c 0
 339 350 352 363 369 363 c 0
 386 363 399 350 399 333 c 0xfe0c
185 333 m 0xfe48
 185 316 172 303 155 303 c 0
 138 303 125 316 125 333 c 0
 125 350 138 363 155 363 c 0
 172 363 185 350 185 333 c 0xfe48
470 417 m 0xfe09
 470 400 457 387 440 387 c 0
 423 387 410 400 410 417 c 0
 410 434 423 447 440 447 c 0
 457 447 470 434 470 417 c 0xfe09
257 417 m 0xfe18
 257 400 244 387 227 387 c 0
 210 387 197 400 197 417 c 0
 197 434 210 447 227 447 c 0
 244 447 257 434 257 417 c 0xfe18
150 417 m 0xff08
 150 400 137 387 120 387 c 0
 103 387 90 400 90 417 c 0
 90 434 103 447 120 447 c 0
 137 447 150 434 150 417 c 0xff08
488 500 m 0xfe0880
 488 483 475 470 458 470 c 0
 441 470 428 483 428 500 c 0
 428 517 441 530 458 530 c 0
 475 530 488 517 488 500 c 0xfe0880
328 500 m 0
 328 483 315 470 298 470 c 0
 281 470 268 483 268 500 c 0
 268 517 281 530 298 530 c 0
 315 530 328 517 328 500 c 0
168 500 m 0xfe88
 168 483 155 470 138 470 c 0
 121 470 108 483 108 500 c 0
 108 517 121 530 138 530 c 0
 155 530 168 517 168 500 c 0xfe88
505 583 m 0xfe0840
 505 566 492 553 475 553 c 0
 458 553 445 566 445 583 c 0
 445 600 458 613 475 613 c 0
 492 613 505 600 505 583 c 0xfe0840
398 583 m 0
 398 566 385 553 368 553 c 0
 351 553 338 566 338 583 c 0
 338 600 351 613 368 613 c 0
 385 613 398 600 398 583 c 0
185 583 m 0xfe48
 185 566 172 553 155 553 c 0
 138 553 125 566 125 583 c 0
 125 600 138 613 155 613 c 0
 172 613 185 600 185 583 c 0xfe48
470 667 m 0xfe09
 470 650 457 637 440 637 c 0
 423 637 410 650 410 667 c 0
 410 684 423 697 440 697 c 0
 457 697 470 684 470 667 c 0xfe09
256 667 m 0
 256 650 243 637 226 637 c 0
 209 637 196 650 196 667 c 0
 196 684 209 697 226 697 c 0
 243 697 256 684 256 667 c 0
434 750 m 0xfe0a
 434 733 421 720 404 720 c 0
 387 720 374 733 374 750 c 0
 374 767 387 780 404 780 c 0
 421 780 434 767 434 750 c 0xfe0a
328 750 m 0
 328 733 315 720 298 720 c 0
 281 720 268 733 268 750 c 0
 268 767 281 780 298 780 c 0
 315 780 328 767 328 750 c 0
EndSplineSet
EndChar

StartChar: bracketleft
Encoding: 91 91 61
Width: 600
VWidth: 0
UnlinkRmOvrlpSave: 1
Flags: W
HStem: 220 60<91.1064 148.894 198.106 255.894 305.106 362.894> 303 60<109.106 166.894> 387 60<127.106 184.894> 470 60<145.106 202.894> 553 60<162.106 219.894> 637 60<180.106 237.894> 720 60<198.106 255.894 305.106 362.894 412.106 469.894>
VStem: 90 60<221.106 278.894> 108 60<304.106 361.894> 126 60<388.106 445.894> 144 60<471.106 528.894> 161 60<554.106 611.894> 179 60<638.106 695.894> 197 60<221.106 278.894 721.106 778.894> 304 60<221.106 278.894 721.106 778.894> 411 60<721.106 778.894>
LayerCount: 2
Back
Fore
SplineSet
364 250 m 0xfe03
 364 233 351 220 334 220 c 0
 317 220 304 233 304 250 c 0
 304 267 317 280 334 280 c 0
 351 280 364 267 364 250 c 0xfe03
257 250 m 0xfe07
 257 233 244 220 227 220 c 0
 210 220 197 233 197 250 c 0
 197 267 210 280 227 280 c 0
 244 280 257 267 257 250 c 0xfe07
150 250 m 0xff03
 150 233 137 220 120 220 c 0
 103 220 90 233 90 250 c 0
 90 267 103 280 120 280 c 0
 137 280 150 267 150 250 c 0xff03
168 333 m 0xfe83
 168 316 155 303 138 303 c 0
 121 303 108 316 108 333 c 0
 108 350 121 363 138 363 c 0
 155 363 168 350 168 333 c 0xfe83
186 417 m 0xfe43
 186 400 173 387 156 387 c 0
 139 387 126 400 126 417 c 0
 126 434 139 447 156 447 c 0
 173 447 186 434 186 417 c 0xfe43
204 500 m 0xfe23
 204 483 191 470 174 470 c 0
 157 470 144 483 144 500 c 0
 144 517 157 530 174 530 c 0
 191 530 204 517 204 500 c 0xfe23
221 583 m 0xfe13
 221 566 208 553 191 553 c 0
 174 553 161 566 161 583 c 0
 161 600 174 613 191 613 c 0
 208 613 221 600 221 583 c 0xfe13
239 667 m 0xfe0b
 239 650 226 637 209 637 c 0
 192 637 179 650 179 667 c 0
 179 684 192 697 209 697 c 0
 226 697 239 684 239 667 c 0xfe0b
471 750 m 0
 471 733 458 720 441 720 c 0
 424 720 411 733 411 750 c 0
 411 767 424 780 441 780 c 0
 458 780 471 767 471 750 c 0
364 750 m 0
 364 733 351 720 334 720 c 0
 317 720 304 733 304 750 c 0
 304 767 317 780 334 780 c 0
 351 780 364 767 364 750 c 0
257 750 m 0xfe07
 257 733 244 720 227 720 c 0
 210 720 197 733 197 750 c 0
 197 767 210 780 227 780 c 0
 244 780 257 767 257 750 c 0xfe07
EndSplineSet
EndChar

StartChar: Udieresis
Encoding: 220 220 62
Width: 600
VWidth: 0
UnlinkRmOvrlpSave: 1
Flags: W
HStem: 220 60<126.106 183.894 233.106 290.894 340.106 397.894> 303 60<91.1064 148.894 411.106 468.894> 387 60<109.106 166.894 429.106 486.894> 470 60<127.106 184.894 447.106 504.894> 553 60<144.106 201.894 464.106 521.894> 720 60<180.106 237.894 500.106 557.894>
VStem: 90 60<304.106 361.894> 108 60<388.106 445.894> 125 60<221.106 278.894 471.312 528.688> 143 60<554.106 611.894> 179 60<721.106 778.894> 232 60<221.106 278.894> 339 60<221.106 278.894> 410 60<304.106 361.894> 428 60<388.106 445.894> 446 60<471.106 528.894> 463 60<554.106 611.894> 499 60<721.106 778.894>
LayerCount: 2
Back
Fore
SplineSet
399 250 m 0xfc08
 399 233 386 220 369 220 c 0
 352 220 339 233 339 250 c 0
 339 267 352 280 369 280 c 0
 386 280 399 267 399 250 c 0xfc08
292 250 m 0xfc18
 292 233 279 220 262 220 c 0
 245 220 232 233 232 250 c 0
 232 267 245 280 262 280 c 0
 279 280 292 267 292 250 c 0xfc18
185 250 m 0xfc88
 185 233 172 220 155 220 c 0
 138 220 125 233 125 250 c 0
 125 267 138 280 155 280 c 0
 172 280 185 267 185 250 c 0xfc88
470 333 m 0xfc0c
 470 316 457 303 440 303 c 0
 423 303 410 316 410 333 c 0
 410 350 423 363 440 363 c 0
 457 363 470 350 470 333 c 0xfc0c
150 333 m 0xfe08
 150 316 137 303 120 303 c 0
 103 303 90 316 90 333 c 0
 90 350 103 363 120 363 c 0
 137 363 150 350 150 333 c 0xfe08
488 417 m 0xfc0a
 488 400 475 387 458 387 c 0
 441 387 428 400 428 417 c 0
 428 434 441 447 458 447 c 0
 475 447 488 434 488 417 c 0xfc0a
168 417 m 0xfd08
 168 400 155 387 138 387 c 0
 121 387 108 400 108 417 c 0
 108 434 121 447 138 447 c 0
 155 447 168 434 168 417 c 0xfd08
506 500 m 0xfc09
 506 483 493 470 476 470 c 0
 459 470 446 483 446 500 c 0
 446 517 459 530 476 530 c 0
 493 530 506 517 506 500 c 0xfc09
186 500 m 0
 186 483 173 470 156 470 c 0
 139 470 126 483 126 500 c 0
 126 517 139 530 156 530 c 0
 173 530 186 517 186 500 c 0
523 583 m 0xfc0880
 523 566 510 553 493 553 c 0
 476 553 463 566 463 583 c 0
 463 600 476 613 493 613 c 0
 510 613 523 600 523 583 c 0xfc0880
203 583 m 0xfc48
 203 566 190 553 173 553 c 0
 156 553 143 566 143 583 c 0
 143 600 156 613 173 613 c 0
 190 613 203 600 203 583 c 0xfc48
559 750 m 0xfc0840
 559 733 546 720 529 720 c 0
 512 720 499 733 499 750 c 0
 499 767 512 780 529 780 c 0
 546 780 559 767 559 750 c 0xfc0840
239 750 m 0xfc28
 239 733 226 720 209 720 c 0
 192 720 179 733 179 750 c 0
 179 767 192 780 209 780 c 0
 226 780 239 767 239 750 c 0xfc28
EndSplineSet
EndChar

StartChar: underscore
Encoding: 95 95 63
Width: 600
VWidth: 0
UnlinkRmOvrlpSave: 1
Flags: W
HStem: 220 60<91.1064 148.894 198.106 255.894 304.106 361.894 411.106 468.894>
VStem: 90 60<221.106 278.894> 197 60<221.106 278.894> 303 60<221.106 278.894> 410 60<221.106 278.894>
LayerCount: 2
Back
Fore
SplineSet
470 250 m 0
 470 233 457 220 440 220 c 0
 423 220 410 233 410 250 c 0
 410 267 423 280 440 280 c 0
 457 280 470 267 470 250 c 0
363 250 m 0
 363 233 350 220 333 220 c 0
 316 220 303 233 303 250 c 0
 303 267 316 280 333 280 c 0
 350 280 363 267 363 250 c 0
257 250 m 0
 257 233 244 220 227 220 c 0
 210 220 197 233 197 250 c 0
 197 267 210 280 227 280 c 0
 244 280 257 267 257 250 c 0
150 250 m 0
 150 233 137 220 120 220 c 0
 103 220 90 233 90 250 c 0
 90 267 103 280 120 280 c 0
 137 280 150 267 150 250 c 0
EndSplineSet
EndChar

StartChar: glyph64
Encoding: 567 567 64
Width: 600
VWidth: 0
UnlinkRmOvrlpSave: 1
Flags: W
HStem: 220 60<126.106 183.894 233.106 290.894 340.106 397.894> 303 60<91.1064 148.894 411.106 468.894> 387 60<429.106 486.894> 470 60<447.106 504.894> 553 60<464.106 521.894>
VStem: 90 60<304.106 361.894> 125 60<221.106 278.894> 232 60<221.106 278.894> 339 60<221.106 278.894> 410 60<304.106 361.894> 428 60<388.106 445.894> 446 60<471.106 528.894> 463 60<554.106 611.894>
LayerCount: 2
Back
Fore
SplineSet
399 250 m 0xf980
 399 233 386 220 369 220 c 0
 352 220 339 233 339 250 c 0
 339 267 352 280 369 280 c 0
 386 280 399 267 399 250 c 0xf980
292 250 m 0
 292 233 279 220 262 220 c 0
 245 220 232 233 232 250 c 0
 232 267 245 280 262 280 c 0
 279 280 292 267 292 250 c 0
185 250 m 0xfb80
 185 233 172 220 155 220 c 0
 138 220 125 233 125 250 c 0
 125 267 138 280 155 280 c 0
 172 280 185 267 185 250 c 0xfb80
470 333 m 0xf9c0
 470 316 457 303 440 303 c 0
 423 303 410 316 410 333 c 0
 410 350 423 363 440 363 c 0
 457 363 470 350 470 333 c 0xf9c0
150 333 m 0xfd80
 150 316 137 303 120 303 c 0
 103 303 90 316 90 333 c 0
 90 350 103 363 120 363 c 0
 137 363 150 350 150 333 c 0xfd80
488 417 m 0xf9a0
 488 400 475 387 458 387 c 0
 441 387 428 400 428 417 c 0
 428 434 441 447 458 447 c 0
 475 447 488 434 488 417 c 0xf9a0
506 500 m 0xf990
 506 483 493 470 476 470 c 0
 459 470 446 483 446 500 c 0
 446 517 459 530 476 530 c 0
 493 530 506 517 506 500 c 0xf990
523 583 m 0xf988
 523 566 510 553 493 553 c 0
 476 553 463 566 463 583 c 0
 463 600 476 613 493 613 c 0
 510 613 523 600 523 583 c 0xf988
EndSplineSet
EndChar

StartChar: agrave
Encoding: 224 224 65
Width: 600
VWidth: 0
UnlinkRmOvrlpSave: 1
Flags: W
HStem: 220 60<126.106 183.894 233.106 290.894 340.106 397.894> 303 60<91.1064 148.894 411.106 468.894> 387 60<162.106 219.894 269.106 326.894 376.106 433.894> 470 60<447.106 504.894> 553 60<197.106 254.894 304.106 361.894 411.106 468.894> 637 60<375.106 432.894> 720 60<340.106 397.894>
VStem: 90 60<304.106 361.894> 125 60<221.106 278.894> 161 60<388.106 445.894> 196 60<554.106 611.894> 232 60<221.106 278.894> 268 60<388.106 445.894> 303 60<554.106 611.894> 339 60<221.106 278.894 721.106 778.894> 375 60<388.106 445.894 638.312 695.688> 410 60<304.106 361.894 554.106 611.894> 446 60<471.106 528.894>
LayerCount: 2
Back
Fore
SplineSet
399 250 m 0xfe02
 399 233 386 220 369 220 c 0
 352 220 339 233 339 250 c 0
 339 267 352 280 369 280 c 0
 386 280 399 267 399 250 c 0xfe02
292 250 m 0xfe10
 292 233 279 220 262 220 c 0
 245 220 232 233 232 250 c 0
 232 267 245 280 262 280 c 0
 279 280 292 267 292 250 c 0xfe10
185 250 m 0xfe80
 185 233 172 220 155 220 c 0
 138 220 125 233 125 250 c 0
 125 267 138 280 155 280 c 0
 172 280 185 267 185 250 c 0xfe80
470 333 m 0xfe0080
 470 316 457 303 440 303 c 0
 423 303 410 316 410 333 c 0
 410 350 423 363 440 363 c 0
 457 363 470 350 470 333 c 0xfe0080
150 333 m 0xff
 150 316 137 303 120 303 c 0
 103 303 90 316 90 333 c 0
 90 350 103 363 120 363 c 0
 137 363 150 350 150 333 c 0xff
435 417 m 0xfe01
 435 400 422 387 405 387 c 0
 388 387 375 400 375 417 c 0
 375 434 388 447 405 447 c 0
 422 447 435 434 435 417 c 0xfe01
328 417 m 0xfe08
 328 400 315 387 298 387 c 0
 281 387 268 400 268 417 c 0
 268 434 281 447 298 447 c 0
 315 447 328 434 328 417 c 0xfe08
221 417 m 0xfe40
 221 400 208 387 191 387 c 0
 174 387 161 400 161 417 c 0
 161 434 174 447 191 447 c 0
 208 447 221 434 221 417 c 0xfe40
506 500 m 0xfe0040
 506 483 493 470 476 470 c 0
 459 470 446 483 446 500 c 0
 446 517 459 530 476 530 c 0
 493 530 506 517 506 500 c 0xfe0040
470 583 m 0xfe0080
 470 566 457 553 440 553 c 0
 423 553 410 566 410 583 c 0
 410 600 423 613 440 613 c 0
 457 613 470 600 470 583 c 0xfe0080
363 583 m 0xfe04
 363 566 350 553 333 553 c 0
 316 553 303 566 303 583 c 0
 303 600 316 613 333 613 c 0
 350 613 363 600 363 583 c 0xfe04
256 583 m 0xfe20
 256 566 243 553 226 553 c 0
 209 553 196 566 196 583 c 0
 196 600 209 613 226 613 c 0
 243 613 256 600 256 583 c 0xfe20
434 667 m 0
 434 650 421 637 404 637 c 0
 387 637 374 650 374 667 c 0
 374 684 387 697 404 697 c 0
 421 697 434 684 434 667 c 0
399 750 m 0xfe02
 399 733 386 720 369 720 c 0
 352 720 339 733 339 750 c 0
 339 767 352 780 369 780 c 0
 386 780 399 767 399 750 c 0xfe02
EndSplineSet
EndChar

StartChar: c
Encoding: 99 99 66
Width: 600
VWidth: 0
UnlinkRmOvrlpSave: 1
Flags: W
HStem: 220 60<126.106 183.894 233.106 290.894 340.106 397.894> 303 60<91.1064 148.894> 387 60<109.106 166.894> 470 60<127.106 184.894 447.106 504.894> 553 60<197.106 254.894 304.106 361.894 411.106 468.894>
VStem: 90 60<304.106 361.894> 108 60<388.106 445.894> 125 60<221.106 278.894 471.312 528.688> 196 60<554.106 611.894> 232 60<221.106 278.894> 303 60<554.106 611.894> 339 60<221.106 278.894> 410 60<554.106 611.894> 446 60<471.106 528.894>
LayerCount: 2
Back
Fore
SplineSet
399 250 m 0xf810
 399 233 386 220 369 220 c 0
 352 220 339 233 339 250 c 0
 339 267 352 280 369 280 c 0
 386 280 399 267 399 250 c 0xf810
292 250 m 0xf840
 292 233 279 220 262 220 c 0
 245 220 232 233 232 250 c 0
 232 267 245 280 262 280 c 0
 279 280 292 267 292 250 c 0xf840
185 250 m 0xf9
 185 233 172 220 155 220 c 0
 138 220 125 233 125 250 c 0
 125 267 138 280 155 280 c 0
 172 280 185 267 185 250 c 0xf9
150 333 m 0xfc
 150 316 137 303 120 303 c 0
 103 303 90 316 90 333 c 0
 90 350 103 363 120 363 c 0
 137 363 150 350 150 333 c 0xfc
168 417 m 0xfa
 168 400 155 387 138 387 c 0
 121 387 108 400 108 417 c 0
 108 434 121 447 138 447 c 0
 155 447 168 434 168 417 c 0xfa
506 500 m 0xf804
 506 483 493 470 476 470 c 0
 459 470 446 483 446 500 c 0
 446 517 459 530 476 530 c 0
 493 530 506 517 506 500 c 0xf804
186 500 m 0
 186 483 173 470 156 470 c 0
 139 470 126 483 126 500 c 0
 126 517 139 530 156 530 c 0
 173 530 186 517 186 500 c 0
470 583 m 0xf808
 470 566 457 553 440 553 c 0
 423 553 410 566 410 583 c 0
 410 600 423 613 440 613 c 0
 457 613 470 600 470 583 c 0xf808
363 583 m 0xf820
 363 566 350 553 333 553 c 0
 316 553 303 566 303 583 c 0
 303 600 316 613 333 613 c 0
 350 613 363 600 363 583 c 0xf820
256 583 m 0xf880
 256 566 243 553 226 553 c 0
 209 553 196 566 196 583 c 0
 196 600 209 613 226 613 c 0
 243 613 256 600 256 583 c 0xf880
EndSplineSet
EndChar

StartChar: adieresis
Encoding: 228 228 67
Width: 600
VWidth: 0
UnlinkRmOvrlpSave: 1
Flags: W
HStem: 220 60<126.106 183.894 233.106 290.894 340.106 397.894> 303 60<91.1064 148.894 411.106 468.894> 387 60<162.106 219.894 269.106 326.894 376.106 433.894> 470 60<447.106 504.894> 553 60<197.106 254.894 304.106 361.894 411.106 468.894> 720 60<233.106 290.894 447.106 504.894>
VStem: 90 60<304.106 361.894> 125 60<221.106 278.894> 161 60<388.106 445.894> 196 60<554.106 611.894> 232 60<221.106 278.894 721.106 778.894> 268 60<388.106 445.894> 303 60<554.106 611.894> 339 60<221.106 278.894> 375 60<388.106 445.894> 410 60<304.106 361.894 554.106 611.894> 446 60<471.106 528.894 721.106 778.894>
LayerCount: 2
Back
Fore
SplineSet
399 250 m 0xfc04
 399 233 386 220 369 220 c 0
 352 220 339 233 339 250 c 0
 339 267 352 280 369 280 c 0
 386 280 399 267 399 250 c 0xfc04
292 250 m 0xfc20
 292 233 279 220 262 220 c 0
 245 220 232 233 232 250 c 0
 232 267 245 280 262 280 c 0
 279 280 292 267 292 250 c 0xfc20
185 250 m 0xfd
 185 233 172 220 155 220 c 0
 138 220 125 233 125 250 c 0
 125 267 138 280 155 280 c 0
 172 280 185 267 185 250 c 0xfd
470 333 m 0xfc01
 470 316 457 303 440 303 c 0
 423 303 410 316 410 333 c 0
 410 350 423 363 440 363 c 0
 457 363 470 350 470 333 c 0xfc01
150 333 m 0xfe
 150 316 137 303 120 303 c 0
 103 303 90 316 90 333 c 0
 90 350 103 363 120 363 c 0
 137 363 150 350 150 333 c 0xfe
435 417 m 0xfc02
 435 400 422 387 405 387 c 0
 388 387 375 400 375 417 c 0
 375 434 388 447 405 447 c 0
 422 447 435 434 435 417 c 0xfc02
328 417 m 0xfc10
 328 400 315 387 298 387 c 0
 281 387 268 400 268 417 c 0
 268 434 281 447 298 447 c 0
 315 447 328 434 328 417 c 0xfc10
221 417 m 0xfc80
 221 400 208 387 191 387 c 0
 174 387 161 400 161 417 c 0
 161 434 174 447 191 447 c 0
 208 447 221 434 221 417 c 0xfc80
506 500 m 0xfc0080
 506 483 493 470 476 470 c 0
 459 470 446 483 446 500 c 0
 446 517 459 530 476 530 c 0
 493 530 506 517 506 500 c 0xfc0080
470 583 m 0xfc01
 470 566 457 553 440 553 c 0
 423 553 410 566 410 583 c 0
 410 600 423 613 440 613 c 0
 457 613 470 600 470 583 c 0xfc01
363 583 m 0xfc08
 363 566 350 553 333 553 c 0
 316 553 303 566 303 583 c 0
 303 600 316 613 333 613 c 0
 350 613 363 600 363 583 c 0xfc08
256 583 m 0xfc40
 256 566 243 553 226 553 c 0
 209 553 196 566 196 583 c 0
 196 600 209 613 226 613 c 0
 243 613 256 600 256 583 c 0xfc40
506 750 m 0xfc0080
 506 733 493 720 476 720 c 0
 459 720 446 733 446 750 c 0
 446 767 459 780 476 780 c 0
 493 780 506 767 506 750 c 0xfc0080
292 750 m 0xfc20
 292 733 279 720 262 720 c 0
 245 720 232 733 232 750 c 0
 232 767 245 780 262 780 c 0
 279 780 292 767 292 750 c 0xfc20
EndSplineSet
EndChar

StartChar: g
Encoding: 103 103 68
Width: 600
VWidth: 0
UnlinkRmOvrlpSave: 1
Flags: W
HStem: 220 60<91.1064 148.894 198.106 255.894 304.106 361.894 411.106 468.894> 303 60<429.106 486.894> 387 60<180.106 237.894 287.106 344.894 394.106 451.894> 470 60<145.106 202.894 465.106 522.894> 553 60<215.106 272.894 322.106 379.894 429.106 486.894> 637 60<500.106 557.894>
VStem: 90 60<221.106 278.894> 144 60<471.106 528.894> 179 60<388.106 445.894> 197 60<221.106 278.894> 214 60<554.106 611.894> 286 60<388.106 445.894> 303 60<221.106 278.894> 321 60<554.106 611.894> 393 60<388.106 445.894> 410 60<221.106 278.894> 428 60<304.106 361.894 554.106 611.894> 464 60<471.106 528.894> 499 60<638.106 695.894>
LayerCount: 2
Back
Fore
SplineSet
470 250 m 0xfc01
 470 233 457 220 440 220 c 0
 423 220 410 233 410 250 c 0
 410 267 423 280 440 280 c 0
 457 280 470 267 470 250 c 0xfc01
363 250 m 0xfc08
 363 233 350 220 333 220 c 0
 316 220 303 233 303 250 c 0
 303 267 316 280 333 280 c 0
 350 280 363 267 363 250 c 0xfc08
257 250 m 0xfc40
 257 233 244 220 227 220 c 0
 210 220 197 233 197 250 c 0
 197 267 210 280 227 280 c 0
 244 280 257 267 257 250 c 0xfc40
150 250 m 0xfe
 150 233 137 220 120 220 c 0
 103 220 90 233 90 250 c 0
 90 267 103 280 120 280 c 0
 137 280 150 267 150 250 c 0xfe
488 333 m 0xfc0080
 488 316 475 303 458 303 c 0
 441 303 428 316 428 333 c 0
 428 350 441 363 458 363 c 0
 475 363 488 350 488 333 c 0xfc0080
453 417 m 0xfc02
 453 400 440 387 423 387 c 0
 406 387 393 400 393 417 c 0
 393 434 406 447 423 447 c 0
 440 447 453 434 453 417 c 0xfc02
346 417 m 0xfc10
 346 400 333 387 316 387 c 0
 299 387 286 400 286 417 c 0
 286 434 299 447 316 447 c 0
 333 447 346 434 346 417 c 0xfc10
239 417 m 0xfc80
 239 400 226 387 209 387 c 0
 192 387 179 400 179 417 c 0
 179 434 192 447 209 447 c 0
 226 447 239 434 239 417 c 0xfc80
524 500 m 0xfc0040
 524 483 511 470 494 470 c 0
 477 470 464 483 464 500 c 0
 464 517 477 530 494 530 c 0
 511 530 524 517 524 500 c 0xfc0040
204 500 m 0xfd
 204 483 191 470 174 470 c 0
 157 470 144 483 144 500 c 0
 144 517 157 530 174 530 c 0
 191 530 204 517 204 500 c 0xfd
488 583 m 0xfc0080
 488 566 475 553 458 553 c 0
 441 553 428 566 428 583 c 0
 428 600 441 613 458 613 c 0
 475 613 488 600 488 583 c 0xfc0080
381 583 m 0xfc04
 381 566 368 553 351 553 c 0
 334 553 321 566 321 583 c 0
 321 600 334 613 351 613 c 0
 368 613 381 600 381 583 c 0xfc04
274 583 m 0xfc20
 274 566 261 553 244 553 c 0
 227 553 214 566 214 583 c 0
 214 600 227 613 244 613 c 0
 261 613 274 600 274 583 c 0xfc20
559 667 m 0xfc0020
 559 650 546 637 529 637 c 0
 512 637 499 650 499 667 c 0
 499 684 512 697 529 697 c 0
 546 697 559 684 559 667 c 0xfc0020
EndSplineSet
EndChar

StartChar: egrave
Encoding: 232 232 69
Width: 600
VWidth: 0
UnlinkRmOvrlpSave: 1
Flags: W
HStem: 220 60<126.106 183.894 233.106 290.894 340.106 397.894> 303 60<91.1064 148.894> 387 60<109.106 166.894 216.106 273.894 322.106 379.894 429.106 486.894> 470 60<127.106 184.894 447.106 504.894> 553 60<197.106 254.894 304.106 361.894 411.106 468.894> 637 60<375.106 432.894> 720 60<340.106 397.894>
VStem: 90 60<304.106 361.894> 108 60<388.106 445.894> 125 60<221.106 278.894 471.312 528.688> 196 60<554.106 611.894> 215 60<388.106 445.894> 232 60<221.106 278.894> 303 60<554.106 611.894> 321 60<388.106 445.894> 339 60<221.106 278.894 721.106 778.894> 374 60<638.106 695.894> 410 60<554.106 611.894> 428 60<388.106 445.894> 446 60<471.106 528.894>
LayerCount: 2
Back
Fore
SplineSet
399 250 m 0xfe01
 399 233 386 220 369 220 c 0
 352 220 339 233 339 250 c 0
 339 267 352 280 369 280 c 0
 386 280 399 267 399 250 c 0xfe01
292 250 m 0xfe08
 292 233 279 220 262 220 c 0
 245 220 232 233 232 250 c 0
 232 267 245 280 262 280 c 0
 279 280 292 267 292 250 c 0xfe08
185 250 m 0xfe40
 185 233 172 220 155 220 c 0
 138 220 125 233 125 250 c 0
 125 267 138 280 155 280 c 0
 172 280 185 267 185 250 c 0xfe40
150 333 m 0xff
 150 316 137 303 120 303 c 0
 103 303 90 316 90 333 c 0
 90 350 103 363 120 363 c 0
 137 363 150 350 150 333 c 0xff
488 417 m 0xfe0020
 488 400 475 387 458 387 c 0
 441 387 428 400 428 417 c 0
 428 434 441 447 458 447 c 0
 475 447 488 434 488 417 c 0xfe0020
381 417 m 0xfe02
 381 400 368 387 351 387 c 0
 334 387 321 400 321 417 c 0
 321 434 334 447 351 447 c 0
 368 447 381 434 381 417 c 0xfe02
275 417 m 0xfe10
 275 400 262 387 245 387 c 0
 228 387 215 400 215 417 c 0
 215 434 228 447 245 447 c 0
 262 447 275 434 275 417 c 0xfe10
168 417 m 0xfe80
 168 400 155 387 138 387 c 0
 121 387 108 400 108 417 c 0
 108 434 121 447 138 447 c 0
 155 447 168 434 168 417 c 0xfe80
506 500 m 0xfe0010
 506 483 493 470 476 470 c 0
 459 470 446 483 446 500 c 0
 446 517 459 530 476 530 c 0
 493 530 506 517 506 500 c 0xfe0010
186 500 m 0
 186 483 173 470 156 470 c 0
 139 470 126 483 126 500 c 0
 126 517 139 530 156 530 c 0
 173 530 186 517 186 500 c 0
470 583 m 0xfe0040
 470 566 457 553 440 553 c 0
 423 553 410 566 410 583 c 0
 410 600 423 613 440 613 c 0
 457 613 470 600 470 583 c 0xfe0040
363 583 m 0xfe04
 363 566 350 553 333 553 c 0
 316 553 303 566 303 583 c 0
 303 600 316 613 333 613 c 0
 350 613 363 600 363 583 c 0xfe04
256 583 m 0xfe20
 256 566 243 553 226 553 c 0
 209 553 196 566 196 583 c 0
 196 600 209 613 226 613 c 0
 243 613 256 600 256 583 c 0xfe20
434 667 m 0xfe0080
 434 650 421 637 404 637 c 0
 387 637 374 650 374 667 c 0
 374 684 387 697 404 697 c 0
 421 697 434 684 434 667 c 0xfe0080
399 750 m 0xfe01
 399 733 386 720 369 720 c 0
 352 720 339 733 339 750 c 0
 339 767 352 780 369 780 c 0
 386 780 399 767 399 750 c 0xfe01
EndSplineSet
EndChar

StartChar: k
Encoding: 107 107 70
Width: 600
VWidth: 0
UnlinkRmOvrlpSave: 1
Flags: W
HStem: 220 60<91.1064 148.894 411.106 468.894> 303 60<109.106 166.894 322.106 379.894> 387 60<127.106 184.894 234.106 291.894> 470 60<145.106 202.894 305.106 362.894> 553 60<162.106 219.894 375.106 432.894> 637 60<180.106 237.894> 720 60<198.106 255.894>
VStem: 90 60<221.106 278.894> 108 60<304.106 361.894> 126 60<388.106 445.894> 144 60<471.106 528.894> 161 60<554.106 611.894> 179 60<638.106 695.894> 197 60<721.106 778.894> 233 60<388.106 445.894> 304 60<471.106 528.894> 321 60<304.106 361.894> 374 60<554.106 611.894> 410 60<221.106 278.894>
LayerCount: 2
Back
Fore
SplineSet
470 250 m 0xfe0020
 470 233 457 220 440 220 c 0
 423 220 410 233 410 250 c 0
 410 267 423 280 440 280 c 0
 457 280 470 267 470 250 c 0xfe0020
150 250 m 0xff
 150 233 137 220 120 220 c 0
 103 220 90 233 90 250 c 0
 90 267 103 280 120 280 c 0
 137 280 150 267 150 250 c 0xff
381 333 m 0xfe0080
 381 316 368 303 351 303 c 0
 334 303 321 316 321 333 c 0
 321 350 334 363 351 363 c 0
 368 363 381 350 381 333 c 0xfe0080
168 333 m 0xfe80
 168 316 155 303 138 303 c 0
 121 303 108 316 108 333 c 0
 108 350 121 363 138 363 c 0
 155 363 168 350 168 333 c 0xfe80
293 417 m 0xfe02
 293 400 280 387 263 387 c 0
 246 387 233 400 233 417 c 0
 233 434 246 447 263 447 c 0
 280 447 293 434 293 417 c 0xfe02
186 417 m 0xfe40
 186 400 173 387 156 387 c 0
 139 387 126 400 126 417 c 0
 126 434 139 447 156 447 c 0
 173 447 186 434 186 417 c 0xfe40
364 500 m 0xfe01
 364 483 351 470 334 470 c 0
 317 470 304 483 304 500 c 0
 304 517 317 530 334 530 c 0
 351 530 364 517 364 500 c 0xfe01
204 500 m 0xfe20
 204 483 191 470 174 470 c 0
 157 470 144 483 144 500 c 0
 144 517 157 530 174 530 c 0
 191 530 204 517 204 500 c 0xfe20
434 583 m 0xfe0040
 434 566 421 553 404 553 c 0
 387 553 374 566 374 583 c 0
 374 600 387 613 404 613 c 0
 421 613 434 600 434 583 c 0xfe0040
221 583 m 0xfe10
 221 566 208 553 191 553 c 0
 174 553 161 566 161 583 c 0
 161 600 174 613 191 613 c 0
 208 613 221 600 221 583 c 0xfe10
239 667 m 0xfe08
 239 650 226 637 209 637 c 0
 192 637 179 650 179 667 c 0
 179 684 192 697 209 697 c 0
 226 697 239 684 239 667 c 0xfe08
257 750 m 0xfe04
 257 733 244 720 227 720 c 0
 210 720 197 733 197 750 c 0
 197 767 210 780 227 780 c 0
 244 780 257 767 257 750 c 0xfe04
EndSplineSet
EndChar

StartChar: o
Encoding: 111 111 71
Width: 600
VWidth: 0
UnlinkRmOvrlpSave: 1
Flags: W
HStem: 220 60<126.106 183.894 233.106 290.894 340.106 397.894> 303 60<91.1064 148.894 411.106 468.894> 387 60<109.106 166.894 429.106 486.894> 470 60<127.106 184.894 447.106 504.894> 553 60<197.106 254.894 304.106 361.894 411.106 468.894>
VStem: 90 60<304.106 361.894> 108 60<388.106 445.894> 125 60<221.106 278.894 471.312 528.688> 196 60<554.106 611.894> 232 60<221.106 278.894> 303 60<554.106 611.894> 339 60<221.106 278.894> 410 60<304.106 361.894 554.106 611.894> 428 60<388.106 445.894> 446 60<471.106 528.894>
LayerCount: 2
Back
Fore
SplineSet
399 250 m 0xf810
 399 233 386 220 369 220 c 0
 352 220 339 233 339 250 c 0
 339 267 352 280 369 280 c 0
 386 280 399 267 399 250 c 0xf810
292 250 m 0xf840
 292 233 279 220 262 220 c 0
 245 220 232 233 232 250 c 0
 232 267 245 280 262 280 c 0
 279 280 292 267 292 250 c 0xf840
185 250 m 0xf9
 185 233 172 220 155 220 c 0
 138 220 125 233 125 250 c 0
 125 267 138 280 155 280 c 0
 172 280 185 267 185 250 c 0xf9
470 333 m 0xf808
 470 316 457 303 440 303 c 0
 423 303 410 316 410 333 c 0
 410 350 423 363 440 363 c 0
 457 363 470 350 470 333 c 0xf808
150 333 m 0xfc
 150 316 137 303 120 303 c 0
 103 303 90 316 90 333 c 0
 90 350 103 363 120 363 c 0
 137 363 150 350 150 333 c 0xfc
488 417 m 0xf804
 488 400 475 387 458 387 c 0
 441 387 428 400 428 417 c 0
 428 434 441 447 458 447 c 0
 475 447 488 434 488 417 c 0xf804
168 417 m 0xfa
 168 400 155 387 138 387 c 0
 121 387 108 400 108 417 c 0
 108 434 121 447 138 447 c 0
 155 447 168 434 168 417 c 0xfa
506 500 m 0xf802
 506 483 493 470 476 470 c 0
 459 470 446 483 446 500 c 0
 446 517 459 530 476 530 c 0
 493 530 506 517 506 500 c 0xf802
186 500 m 0
 186 483 173 470 156 470 c 0
 139 470 126 483 126 500 c 0
 126 517 139 530 156 530 c 0
 173 530 186 517 186 500 c 0
470 583 m 0xf808
 470 566 457 553 440 553 c 0
 423 553 410 566 410 583 c 0
 410 600 423 613 440 613 c 0
 457 613 470 600 470 583 c 0xf808
363 583 m 0xf820
 363 566 350 553 333 553 c 0
 316 553 303 566 303 583 c 0
 303 600 316 613 333 613 c 0
 350 613 363 600 363 583 c 0xf820
256 583 m 0xf880
 256 566 243 553 226 553 c 0
 209 553 196 566 196 583 c 0
 196 600 209 613 226 613 c 0
 243 613 256 600 256 583 c 0xf880
EndSplineSet
EndChar

StartChar: s
Encoding: 115 115 72
Width: 600
VWidth: 0
UnlinkRmOvrlpSave: 1
Flags: W
HStem: 220 60<91.1064 148.894 198.106 255.894 305.106 362.894> 303 60<376.106 433.894> 387 60<127.106 184.894 234.106 291.894 341.106 398.894> 470 60<92.1064 149.894> 553 60<162.106 219.894 269.106 326.894 376.106 433.894>
VStem: 90 60<221.106 278.894 471.312 528.688> 126 60<388.106 445.894> 161 60<554.106 611.894> 197 60<221.106 278.894> 233 60<388.106 445.894> 268 60<554.106 611.894> 304 60<221.106 278.894> 340 60<388.106 445.894> 375 60<304.106 361.894 554.106 611.894>
LayerCount: 2
Back
Fore
SplineSet
364 250 m 0xf810
 364 233 351 220 334 220 c 0
 317 220 304 233 304 250 c 0
 304 267 317 280 334 280 c 0
 351 280 364 267 364 250 c 0xf810
257 250 m 0xf880
 257 233 244 220 227 220 c 0
 210 220 197 233 197 250 c 0
 197 267 210 280 227 280 c 0
 244 280 257 267 257 250 c 0xf880
150 250 m 0xfc
 150 233 137 220 120 220 c 0
 103 220 90 233 90 250 c 0
 90 267 103 280 120 280 c 0
 137 280 150 267 150 250 c 0xfc
435 333 m 0xf804
 435 316 422 303 405 303 c 0
 388 303 375 316 375 333 c 0
 375 350 388 363 405 363 c 0
 422 363 435 350 435 333 c 0xf804
400 417 m 0xf808
 400 400 387 387 370 387 c 0
 353 387 340 400 340 417 c 0
 340 434 353 447 370 447 c 0
 387 447 400 434 400 417 c 0xf808
293 417 m 0xf840
 293 400 280 387 263 387 c 0
 246 387 233 400 233 417 c 0
 233 434 246 447 263 447 c 0
 280 447 293 434 293 417 c 0xf840
186 417 m 0xfa
 186 400 173 387 156 387 c 0
 139 387 126 400 126 417 c 0
 126 434 139 447 156 447 c 0
 173 447 186 434 186 417 c 0xfa
151 500 m 0
 151 483 138 470 121 470 c 0
 104 470 91 483 91 500 c 0
 91 517 104 530 121 530 c 0
 138 530 151 517 151 500 c 0
435 583 m 0xf804
 435 566 422 553 405 553 c 0
 388 553 375 566 375 583 c 0
 375 600 388 613 405 613 c 0
 422 613 435 600 435 583 c 0xf804
328 583 m 0xf820
 328 566 315 553 298 553 c 0
 281 553 268 566 268 583 c 0
 268 600 281 613 298 613 c 0
 315 613 328 600 328 583 c 0xf820
221 583 m 0xf9
 221 566 208 553 191 553 c 0
 174 553 161 566 161 583 c 0
 161 600 174 613 191 613 c 0
 208 613 221 600 221 583 c 0xf9
EndSplineSet
EndChar

StartChar: glyph73
Encoding: 373 373 73
Width: 600
VWidth: 0
UnlinkRmOvrlpSave: 1
Flags: W
HStem: 220 60<126.106 183.894 340.106 397.894> 303 60<91.1064 148.894 198.106 255.894 304.106 361.894 411.106 468.894> 387 60<109.106 166.894 269.106 326.894 429.106 486.894> 470 60<127.106 184.894 447.106 504.894> 637 60<215.106 272.894 429.106 486.894> 720 60<287.106 344.894 393.106 450.894>
VStem: 90 60<304.106 361.894> 108 60<388.106 445.894> 125 60<221.106 278.894 471.312 528.688> 197 60<304.106 361.894> 214 60<638.106 695.894> 268 60<388.106 445.894> 286 60<721.106 778.894> 303 60<304.106 361.894> 339 60<221.106 278.894> 392 60<721.106 778.894> 410 60<304.106 361.894> 428 60<388.106 445.894 638.106 695.894> 446 60<471.106 528.894>
LayerCount: 2
Back
Fore
SplineSet
399 250 m 0xfc02
 399 233 386 220 369 220 c 0
 352 220 339 233 339 250 c 0
 339 267 352 280 369 280 c 0
 386 280 399 267 399 250 c 0xfc02
185 250 m 0xfc80
 185 233 172 220 155 220 c 0
 138 220 125 233 125 250 c 0
 125 267 138 280 155 280 c 0
 172 280 185 267 185 250 c 0xfc80
470 333 m 0xfc0080
 470 316 457 303 440 303 c 0
 423 303 410 316 410 333 c 0
 410 350 423 363 440 363 c 0
 457 363 470 350 470 333 c 0xfc0080
363 333 m 0xfc04
 363 316 350 303 333 303 c 0
 316 303 303 316 303 333 c 0
 303 350 316 363 333 363 c 0
 350 363 363 350 363 333 c 0xfc04
257 333 m 0xfc40
 257 316 244 303 227 303 c 0
 210 303 197 316 197 333 c 0
 197 350 210 363 227 363 c 0
 244 363 257 350 257 333 c 0xfc40
150 333 m 0xfe
 150 316 137 303 120 303 c 0
 103 303 90 316 90 333 c 0
 90 350 103 363 120 363 c 0
 137 363 150 350 150 333 c 0xfe
488 417 m 0xfc0040
 488 400 475 387 458 387 c 0
 441 387 428 400 428 417 c 0
 428 434 441 447 458 447 c 0
 475 447 488 434 488 417 c 0xfc0040
328 417 m 0xfc10
 328 400 315 387 298 387 c 0
 281 387 268 400 268 417 c 0
 268 434 281 447 298 447 c 0
 315 447 328 434 328 417 c 0xfc10
168 417 m 0xfd
 168 400 155 387 138 387 c 0
 121 387 108 400 108 417 c 0
 108 434 121 447 138 447 c 0
 155 447 168 434 168 417 c 0xfd
506 500 m 0xfc0020
 506 483 493 470 476 470 c 0
 459 470 446 483 446 500 c 0
 446 517 459 530 476 530 c 0
 493 530 506 517 506 500 c 0xfc0020
186 500 m 0
 186 483 173 470 156 470 c 0
 139 470 126 483 126 500 c 0
 126 517 139 530 156 530 c 0
 173 530 186 517 186 500 c 0
488 667 m 0xfc0040
 488 650 475 637 458 637 c 0
 441 637 428 650 428 667 c 0
 428 684 441 697 458 697 c 0
 475 697 488 684 488 667 c 0xfc0040
274 667 m 0xfc20
 274 650 261 637 244 637 c 0
 227 637 214 650 214 667 c 0
 214 684 227 697 244 697 c 0
 261 697 274 684 274 667 c 0xfc20
452 750 m 0xfc01
 452 733 439 720 422 720 c 0
 405 720 392 733 392 750 c 0
 392 767 405 780 422 780 c 0
 439 780 452 767 452 750 c 0xfc01
346 750 m 0xfc08
 346 733 333 720 316 720 c 0
 299 720 286 733 286 750 c 0
 286 767 299 780 316 780 c 0
 333 780 346 767 346 750 c 0xfc08
EndSplineSet
EndChar

StartChar: w
Encoding: 119 119 74
Width: 600
VWidth: 0
UnlinkRmOvrlpSave: 1
Flags: W
HStem: 220 60<126.106 183.894 340.106 397.894> 303 60<91.1064 148.894 198.106 255.894 304.106 361.894 411.106 468.894> 387 60<109.106 166.894 269.106 326.894 429.106 486.894> 470 60<127.106 184.894 447.106 504.894> 553 60<144.106 201.894 464.106 521.894>
VStem: 90 60<304.106 361.894> 108 60<388.106 445.894> 125 60<221.106 278.894 471.312 528.688> 143 60<554.106 611.894> 197 60<304.106 361.894> 268 60<388.106 445.894> 303 60<304.106 361.894> 339 60<221.106 278.894> 410 60<304.106 361.894> 428 60<388.106 445.894> 446 60<471.106 528.894> 463 60<554.106 611.894>
LayerCount: 2
Back
Fore
SplineSet
399 250 m 0xf808
 399 233 386 220 369 220 c 0
 352 220 339 233 339 250 c 0
 339 267 352 280 369 280 c 0
 386 280 399 267 399 250 c 0xf808
185 250 m 0xf9
 185 233 172 220 155 220 c 0
 138 220 125 233 125 250 c 0
 125 267 138 280 155 280 c 0
 172 280 185 267 185 250 c 0xf9
470 333 m 0xf804
 470 316 457 303 440 303 c 0
 423 303 410 316 410 333 c 0
 410 350 423 363 440 363 c 0
 457 363 470 350 470 333 c 0xf804
363 333 m 0xf810
 363 316 350 303 333 303 c 0
 316 303 303 316 303 333 c 0
 303 350 316 363 333 363 c 0
 350 363 363 350 363 333 c 0xf810
257 333 m 0xf840
 257 316 244 303 227 303 c 0
 210 303 197 316 197 333 c 0
 197 350 210 363 227 363 c 0
 244 363 257 350 257 333 c 0xf840
150 333 m 0xfc
 150 316 137 303 120 303 c 0
 103 303 90 316 90 333 c 0
 90 350 103 363 120 363 c 0
 137 363 150 350 150 333 c 0xfc
488 417 m 0xf802
 488 400 475 387 458 387 c 0
 441 387 428 400 428 417 c 0
 428 434 441 447 458 447 c 0
 475 447 488 434 488 417 c 0xf802
328 417 m 0xf820
 328 400 315 387 298 387 c 0
 281 387 268 400 268 417 c 0
 268 434 281 447 298 447 c 0
 315 447 328 434 328 417 c 0xf820
168 417 m 0xfa
 168 400 155 387 138 387 c 0
 121 387 108 400 108 417 c 0
 108 434 121 447 138 447 c 0
 155 447 168 434 168 417 c 0xfa
506 500 m 0xf801
 506 483 493 470 476 470 c 0
 459 470 446 483 446 500 c 0
 446 517 459 530 476 530 c 0
 493 530 506 517 506 500 c 0xf801
186 500 m 0
 186 483 173 470 156 470 c 0
 139 470 126 483 126 500 c 0
 126 517 139 530 156 530 c 0
 173 530 186 517 186 500 c 0
523 583 m 0xf80080
 523 566 510 553 493 553 c 0
 476 553 463 566 463 583 c 0
 463 600 476 613 493 613 c 0
 510 613 523 600 523 583 c 0xf80080
203 583 m 0xf880
 203 566 190 553 173 553 c 0
 156 553 143 566 143 583 c 0
 143 600 156 613 173 613 c 0
 190 613 203 600 203 583 c 0xf880
EndSplineSet
EndChar

StartChar: oslash
Encoding: 248 248 75
Width: 600
VWidth: 0
UnlinkRmOvrlpSave: 1
Flags: W
HStem: 220 60<126.106 183.894 233.106 290.894 340.106 397.894> 303 60<91.1064 148.894 198.106 255.894 411.106 468.894> 387 60<109.106 166.894 269.106 326.894 429.106 486.894> 470 60<127.106 184.894 340.106 397.894 447.106 504.894> 553 60<197.106 254.894 304.106 361.894 411.106 468.894>
VStem: 90 60<304.106 361.894> 108 60<388.106 445.894> 125 60<221.106 278.894 471.312 528.688> 197 60<304.106 361.894 554.312 611.688> 232 60<221.106 278.894> 268 60<388.106 445.894> 303 60<554.106 611.894> 339 60<221.106 278.894 471.106 528.894> 410 60<304.106 361.894 554.106 611.894> 428 60<388.106 445.894> 446 60<471.106 528.894>
LayerCount: 2
Back
Fore
SplineSet
399 250 m 0xf808
 399 233 386 220 369 220 c 0
 352 220 339 233 339 250 c 0
 339 267 352 280 369 280 c 0
 386 280 399 267 399 250 c 0xf808
292 250 m 0xf840
 292 233 279 220 262 220 c 0
 245 220 232 233 232 250 c 0
 232 267 245 280 262 280 c 0
 279 280 292 267 292 250 c 0xf840
185 250 m 0xf9
 185 233 172 220 155 220 c 0
 138 220 125 233 125 250 c 0
 125 267 138 280 155 280 c 0
 172 280 185 267 185 250 c 0xf9
470 333 m 0xf804
 470 316 457 303 440 303 c 0
 423 303 410 316 410 333 c 0
 410 350 423 363 440 363 c 0
 457 363 470 350 470 333 c 0xf804
257 333 m 0xf880
 257 316 244 303 227 303 c 0
 210 303 197 316 197 333 c 0
 197 350 210 363 227 363 c 0
 244 363 257 350 257 333 c 0xf880
150 333 m 0xfc
 150 316 137 303 120 303 c 0
 103 303 90 316 90 333 c 0
 90 350 103 363 120 363 c 0
 137 363 150 350 150 333 c 0xfc
488 417 m 0xf802
 488 400 475 387 458 387 c 0
 441 387 428 400 428 417 c 0
 428 434 441 447 458 447 c 0
 475 447 488 434 488 417 c 0xf802
328 417 m 0xf820
 328 400 315 387 298 387 c 0
 281 387 268 400 268 417 c 0
 268 434 281 447 298 447 c 0
 315 447 328 434 328 417 c 0xf820
168 417 m 0xfa
 168 400 155 387 138 387 c 0
 121 387 108 400 108 417 c 0
 108 434 121 447 138 447 c 0
 155 447 168 434 168 417 c 0xfa
506 500 m 0xf801
 506 483 493 470 476 470 c 0
 459 470 446 483 446 500 c 0
 446 517 459 530 476 530 c 0
 493 530 506 517 506 500 c 0xf801
399 500 m 0xf808
 399 483 386 470 369 470 c 0
 352 470 339 483 339 500 c 0
 339 517 352 530 369 530 c 0
 386 530 399 517 399 500 c 0xf808
186 500 m 0
 186 483 173 470 156 470 c 0
 139 470 126 483 126 500 c 0
 126 517 139 530 156 530 c 0
 173 530 186 517 186 500 c 0
470 583 m 0xf804
 470 566 457 553 440 553 c 0
 423 553 410 566 410 583 c 0
 410 600 423 613 440 613 c 0
 457 613 470 600 470 583 c 0xf804
363 583 m 0xf810
 363 566 350 553 333 553 c 0
 316 553 303 566 303 583 c 0
 303 600 316 613 333 613 c 0
 350 613 363 600 363 583 c 0xf810
256 583 m 0
 256 566 243 553 226 553 c 0
 209 553 196 566 196 583 c 0
 196 600 209 613 226 613 c 0
 243 613 256 600 256 583 c 0
EndSplineSet
EndChar

StartChar: braceleft
Encoding: 123 123 76
Width: 600
VWidth: 0
UnlinkRmOvrlpSave: 1
Flags: W
HStem: 220 60<250.106 307.894 357.106 414.894> 303 60<215.106 272.894> 387 60<233.106 290.894> 470 60<91.1064 148.894 198.106 255.894> 553 60<268.106 325.894> 637 60<286.106 343.894> 720 60<357.106 414.894 464.106 521.894>
VStem: 90 60<471.106 528.894> 197 60<471.106 528.894> 214 60<304.106 361.894> 232 60<388.106 445.894> 249 60<221.106 278.894> 267 60<554.106 611.894> 285 60<638.106 695.894> 356 60<221.106 278.894 721.106 778.894> 463 60<721.106 778.894>
LayerCount: 2
Back
Fore
SplineSet
416 250 m 0xff03
 416 233 403 220 386 220 c 0
 369 220 356 233 356 250 c 0
 356 267 369 280 386 280 c 0
 403 280 416 267 416 250 c 0xff03
309 250 m 0xff13
 309 233 296 220 279 220 c 0
 262 220 249 233 249 250 c 0
 249 267 262 280 279 280 c 0
 296 280 309 267 309 250 c 0xff13
274 333 m 0xff43
 274 316 261 303 244 303 c 0
 227 303 214 316 214 333 c 0
 214 350 227 363 244 363 c 0
 261 363 274 350 274 333 c 0xff43
292 417 m 0xff23
 292 400 279 387 262 387 c 0
 245 387 232 400 232 417 c 0
 232 434 245 447 262 447 c 0
 279 447 292 434 292 417 c 0xff23
257 500 m 0xff83
 257 483 244 470 227 470 c 0
 210 470 197 483 197 500 c 0
 197 517 210 530 227 530 c 0
 244 530 257 517 257 500 c 0xff83
150 500 m 0
 150 483 137 470 120 470 c 0
 103 470 90 483 90 500 c 0
 90 517 103 530 120 530 c 0
 137 530 150 517 150 500 c 0
327 583 m 0xff0b
 327 566 314 553 297 553 c 0
 280 553 267 566 267 583 c 0
 267 600 280 613 297 613 c 0
 314 613 327 600 327 583 c 0xff0b
345 667 m 0xff07
 345 650 332 637 315 637 c 0
 298 637 285 650 285 667 c 0
 285 684 298 697 315 697 c 0
 332 697 345 684 345 667 c 0xff07
523 750 m 0
 523 733 510 720 493 720 c 0
 476 720 463 733 463 750 c 0
 463 767 476 780 493 780 c 0
 510 780 523 767 523 750 c 0
416 750 m 0
 416 733 403 720 386 720 c 0
 369 720 356 733 356 750 c 0
 356 767 369 780 386 780 c 0
 403 780 416 767 416 750 c 0
EndSplineSet
EndChar

StartChar: udieresis
Encoding: 252 252 77
Width: 600
VWidth: 0
UnlinkRmOvrlpSave: 1
Flags: W
HStem: 220 60<180.106 237.894 286.106 343.894 393.106 450.894> 303 60<91.1064 148.894 411.106 468.894> 387 60<109.106 166.894 429.106 486.894> 470 60<127.106 184.894 447.106 504.894> 553 60<144.106 201.894 464.106 521.894> 720 60<233.106 290.894 447.106 504.894>
VStem: 90 60<304.106 361.894> 108 60<388.106 445.894> 126 60<471.106 528.894> 143 60<554.106 611.894> 179 60<221.106 278.894> 232 60<721.106 778.894> 285 60<221.106 278.894> 392 60<221.106 278.894> 410 60<304.106 361.894> 428 60<388.106 445.894> 446 60<471.106 528.894 721.106 778.894> 463 60<554.106 611.894>
LayerCount: 2
Back
Fore
SplineSet
452 250 m 0xfc04
 452 233 439 220 422 220 c 0
 405 220 392 233 392 250 c 0
 392 267 405 280 422 280 c 0
 439 280 452 267 452 250 c 0xfc04
345 250 m 0xfc08
 345 233 332 220 315 220 c 0
 298 220 285 233 285 250 c 0
 285 267 298 280 315 280 c 0
 332 280 345 267 345 250 c 0xfc08
239 250 m 0xfc20
 239 233 226 220 209 220 c 0
 192 220 179 233 179 250 c 0
 179 267 192 280 209 280 c 0
 226 280 239 267 239 250 c 0xfc20
470 333 m 0xfc02
 470 316 457 303 440 303 c 0
 423 303 410 316 410 333 c 0
 410 350 423 363 440 363 c 0
 457 363 470 350 470 333 c 0xfc02
150 333 m 0xfe
 150 316 137 303 120 303 c 0
 103 303 90 316 90 333 c 0
 90 350 103 363 120 363 c 0
 137 363 150 350 150 333 c 0xfe
488 417 m 0xfc01
 488 400 475 387 458 387 c 0
 441 387 428 400 428 417 c 0
 428 434 441 447 458 447 c 0
 475 447 488 434 488 417 c 0xfc01
168 417 m 0xfd
 168 400 155 387 138 387 c 0
 121 387 108 400 108 417 c 0
 108 434 121 447 138 447 c 0
 155 447 168 434 168 417 c 0xfd
506 500 m 0xfc0080
 506 483 493 470 476 470 c 0
 459 470 446 483 446 500 c 0
 446 517 459 530 476 530 c 0
 493 530 506 517 506 500 c 0xfc0080
186 500 m 0xfc80
 186 483 173 470 156 470 c 0
 139 470 126 483 126 500 c 0
 126 517 139 530 156 530 c 0
 173 530 186 517 186 500 c 0xfc80
523 583 m 0xfc0040
 523 566 510 553 493 553 c 0
 476 553 463 566 463 583 c 0
 463 600 476 613 493 613 c 0
 510 613 523 600 523 583 c 0xfc0040
203 583 m 0xfc40
 203 566 190 553 173 553 c 0
 156 553 143 566 143 583 c 0
 143 600 156 613 173 613 c 0
 190 613 203 600 203 583 c 0xfc40
506 750 m 0xfc0080
 506 733 493 720 476 720 c 0
 459 720 446 733 446 750 c 0
 446 767 459 780 476 780 c 0
 493 780 506 767 506 750 c 0xfc0080
292 750 m 0xfc10
 292 733 279 720 262 720 c 0
 245 720 232 733 232 750 c 0
 232 767 245 780 262 780 c 0
 279 780 292 767 292 750 c 0xfc10
EndSplineSet
EndChar

StartChar: glyph78
Encoding: 776 776 78
Width: 600
VWidth: 0
UnlinkRmOvrlpSave: 1
Flags: W
HStem: 720 60<91.1064 148.894 305.106 362.894>
VStem: 90 60<721.106 778.894> 304 60<721.106 778.894>
LayerCount: 2
Back
Fore
SplineSet
364 750 m 0
 364 733 351 720 334 720 c 0
 317 720 304 733 304 750 c 0
 304 767 317 780 334 780 c 0
 351 780 364 767 364 750 c 0
150 750 m 0
 150 733 137 720 120 720 c 0
 103 720 90 733 90 750 c 0
 90 767 103 780 120 780 c 0
 137 780 150 767 150 750 c 0
EndSplineSet
EndChar

StartChar: glyph79
Encoding: 9786 9786 79
Width: 600
VWidth: 0
UnlinkRmOvrlpSave: 1
Flags: W
HStem: 303 60<126.106 183.894 233.106 290.894 340.106 397.894> 387 60<91.1064 148.894 411.106 468.894> 637 60<197.106 254.894 411.106 468.894>
VStem: 90 60<388.106 445.894> 125 60<304.106 361.894> 196 60<638.106 695.894> 232 60<304.106 361.894> 339 60<304.106 361.894> 410 60<388.106 445.894 638.106 695.894>
LayerCount: 2
Back
Fore
SplineSet
399 333 m 0xe180
 399 316 386 303 369 303 c 0
 352 303 339 316 339 333 c 0
 339 350 352 363 369 363 c 0
 386 363 399 350 399 333 c 0xe180
292 333 m 0xe380
 292 316 279 303 262 303 c 0
 245 303 232 316 232 333 c 0
 232 350 245 363 262 363 c 0
 279 363 292 350 292 333 c 0xe380
185 333 m 0xe980
 185 316 172 303 155 303 c 0
 138 303 125 316 125 333 c 0
 125 350 138 363 155 363 c 0
 172 363 185 350 185 333 c 0xe980
470 417 m 0
 470 400 457 387 440 387 c 0
 423 387 410 400 410 417 c 0
 410 434 423 447 440 447 c 0
 457 447 470 434 470 417 c 0
150 417 m 0xf180
 150 400 137 387 120 387 c 0
 103 387 90 400 90 417 c 0
 90 434 103 447 120 447 c 0
 137 447 150 434 150 417 c 0xf180
470 667 m 0
 470 650 457 637 440 637 c 0
 423 637 410 650 410 667 c 0
 410 684 423 697 440 697 c 0
 457 697 470 684 470 667 c 0
256 667 m 0xe580
 256 650 243 637 226 637 c 0
 209 637 196 650 196 667 c 0
 196 684 209 697 226 697 c 0
 243 697 256 684 256 667 c 0xe580
EndSplineSet
EndChar

StartChar: glyph80
Encoding: 8595 8595 80
Width: 600
VWidth: 0
UnlinkRmOvrlpSave: 1
Flags: W
HStem: 220 60<215.106 272.894> 303 60<126.106 183.894 233.106 290.894 340.106 397.894> 387 60<91.1064 148.894 251.106 308.894 411.106 468.894> 470 60<269.106 326.894> 553 60<286.106 343.894> 637 60<304.106 361.894> 720 60<322.106 379.894>
VStem: 90 60<388.106 445.894> 125 60<304.106 361.894> 214 60<221.106 278.894> 232 60<304.106 361.894> 250 60<388.106 445.894> 268 60<471.106 528.894> 285 60<554.106 611.894> 303 60<638.106 695.894> 321 60<721.106 778.894> 339 60<304.106 361.894> 410 60<388.106 445.894>
LayerCount: 2
Back
Fore
SplineSet
274 250 m 0xfe4040
 274 233 261 220 244 220 c 0
 227 220 214 233 214 250 c 0
 214 267 227 280 244 280 c 0
 261 280 274 267 274 250 c 0xfe4040
399 333 m 0xfe00c0
 399 316 386 303 369 303 c 0
 352 303 339 316 339 333 c 0
 339 350 352 363 369 363 c 0
 386 363 399 350 399 333 c 0xfe00c0
292 333 m 0xfe2040
 292 316 279 303 262 303 c 0
 245 303 232 316 232 333 c 0
 232 350 245 363 262 363 c 0
 279 363 292 350 292 333 c 0xfe2040
185 333 m 0xfe8040
 185 316 172 303 155 303 c 0
 138 303 125 316 125 333 c 0
 125 350 138 363 155 363 c 0
 172 363 185 350 185 333 c 0xfe8040
470 417 m 0
 470 400 457 387 440 387 c 0
 423 387 410 400 410 417 c 0
 410 434 423 447 440 447 c 0
 457 447 470 434 470 417 c 0
310 417 m 0xfe1040
 310 400 297 387 280 387 c 0
 263 387 250 400 250 417 c 0
 250 434 263 447 280 447 c 0
 297 447 310 434 310 417 c 0xfe1040
150 417 m 0xff0040
 150 400 137 387 120 387 c 0
 103 387 90 400 90 417 c 0
 90 434 103 447 120 447 c 0
 137 447 150 434 150 417 c 0xff0040
328 500 m 0xfe0840
 328 483 315 470 298 470 c 0
 281 470 268 483 268 500 c 0
 268 517 281 530 298 530 c 0
 315 530 328 517 328 500 c 0xfe0840
345 583 m 0xfe0440
 345 566 332 553 315 553 c 0
 298 553 285 566 285 583 c 0
 285 600 298 613 315 613 c 0
 332 613 345 600 345 583 c 0xfe0440
363 667 m 0xfe0240
 363 650 350 637 333 637 c 0
 316 637 303 650 303 667 c 0
 303 684 316 697 333 697 c 0
 350 697 363 684 363 667 c 0xfe0240
381 750 m 0xfe0140
 381 733 368 720 351 720 c 0
 334 720 321 733 321 750 c 0
 321 767 334 780 351 780 c 0
 368 780 381 767 381 750 c 0xfe0140
EndSplineSet
EndChar

StartChar: quotedbl
Encoding: 34 34 81
Width: 600
VWidth: 0
UnlinkRmOvrlpSave: 1
Flags: W
HStem: 553 60<91.1064 148.894 197.106 254.894> 637 60<109.106 166.894 215.106 272.894> 720 60<127.106 184.894 233.106 290.894>
VStem: 90 60<554.106 611.894> 108 60<638.106 695.894> 126 60<721.106 778.894> 196 60<554.106 611.894> 214 60<638.106 695.894> 232 60<721.106 778.894>
LayerCount: 2
Back
Fore
SplineSet
256 583 m 0xe2
 256 566 243 553 226 553 c 0
 209 553 196 566 196 583 c 0
 196 600 209 613 226 613 c 0
 243 613 256 600 256 583 c 0xe2
150 583 m 0xf0
 150 566 137 553 120 553 c 0
 103 553 90 566 90 583 c 0
 90 600 103 613 120 613 c 0
 137 613 150 600 150 583 c 0xf0
274 667 m 0xe1
 274 650 261 637 244 637 c 0
 227 637 214 650 214 667 c 0
 214 684 227 697 244 697 c 0
 261 697 274 684 274 667 c 0xe1
168 667 m 0xe8
 168 650 155 637 138 637 c 0
 121 637 108 650 108 667 c 0
 108 684 121 697 138 697 c 0
 155 697 168 684 168 667 c 0xe8
292 750 m 0xe080
 292 733 279 720 262 720 c 0
 245 720 232 733 232 750 c 0
 232 767 245 780 262 780 c 0
 279 780 292 767 292 750 c 0xe080
186 750 m 0xe4
 186 733 173 720 156 720 c 0
 139 720 126 733 126 750 c 0
 126 767 139 780 156 780 c 0
 173 780 186 767 186 750 c 0xe4
EndSplineSet
EndChar

StartChar: ampersand
Encoding: 38 38 82
Width: 600
VWidth: 0
UnlinkRmOvrlpSave: 1
Flags: W
HStem: 220 60<126.106 183.894 233.106 290.894 340.106 397.894> 303 60<91.1064 148.894 304.106 361.894> 387 60<162.106 219.894 269.106 326.894 376.106 433.894> 470 60<234.106 291.894> 553 60<197.106 254.894 304.106 361.894> 637 60<162.106 219.894 375.106 432.894> 720 60<233.106 290.894 340.106 397.894>
VStem: 90 60<304.106 361.894> 125 60<221.106 278.894> 161 60<388.106 445.894 638.106 695.894> 196 60<554.106 611.894> 232 60<221.106 278.894 471.312 528.688 721.106 778.894> 268 60<388.106 445.894> 303 60<304.106 361.894 554.106 611.894> 339 60<221.106 278.894 721.106 778.894> 375 60<388.106 445.894 638.312 695.688>
LayerCount: 2
Back
Fore
SplineSet
399 250 m 0xfe02
 399 233 386 220 369 220 c 0
 352 220 339 233 339 250 c 0
 339 267 352 280 369 280 c 0
 386 280 399 267 399 250 c 0xfe02
292 250 m 0xfe10
 292 233 279 220 262 220 c 0
 245 220 232 233 232 250 c 0
 232 267 245 280 262 280 c 0
 279 280 292 267 292 250 c 0xfe10
185 250 m 0xfe80
 185 233 172 220 155 220 c 0
 138 220 125 233 125 250 c 0
 125 267 138 280 155 280 c 0
 172 280 185 267 185 250 c 0xfe80
363 333 m 0xfe04
 363 316 350 303 333 303 c 0
 316 303 303 316 303 333 c 0
 303 350 316 363 333 363 c 0
 350 363 363 350 363 333 c 0xfe04
150 333 m 0xff
 150 316 137 303 120 303 c 0
 103 303 90 316 90 333 c 0
 90 350 103 363 120 363 c 0
 137 363 150 350 150 333 c 0xff
435 417 m 0xfe01
 435 400 422 387 405 387 c 0
 388 387 375 400 375 417 c 0
 375 434 388 447 405 447 c 0
 422 447 435 434 435 417 c 0xfe01
328 417 m 0xfe08
 328 400 315 387 298 387 c 0
 281 387 268 400 268 417 c 0
 268 434 281 447 298 447 c 0
 315 447 328 434 328 417 c 0xfe08
221 417 m 0xfe40
 221 400 208 387 191 387 c 0
 174 387 161 400 161 417 c 0
 161 434 174 447 191 447 c 0
 208 447 221 434 221 417 c 0xfe40
293 500 m 0
 293 483 280 470 263 470 c 0
 246 470 233 483 233 500 c 0
 233 517 246 530 263 530 c 0
 280 530 293 517 293 500 c 0
363 583 m 0xfe04
 363 566 350 553 333 553 c 0
 316 553 303 566 303 583 c 0
 303 600 316 613 333 613 c 0
 350 613 363 600 363 583 c 0xfe04
256 583 m 0xfe20
 256 566 243 553 226 553 c 0
 209 553 196 566 196 583 c 0
 196 600 209 613 226 613 c 0
 243 613 256 600 256 583 c 0xfe20
434 667 m 0
 434 650 421 637 404 637 c 0
 387 637 374 650 374 667 c 0
 374 684 387 697 404 697 c 0
 421 697 434 684 434 667 c 0
221 667 m 0xfe40
 221 650 208 637 191 637 c 0
 174 637 161 650 161 667 c 0
 161 684 174 697 191 697 c 0
 208 697 221 684 221 667 c 0xfe40
399 750 m 0xfe02
 399 733 386 720 369 720 c 0
 352 720 339 733 339 750 c 0
 339 767 352 780 369 780 c 0
 386 780 399 767 399 750 c 0xfe02
292 750 m 0xfe10
 292 733 279 720 262 720 c 0
 245 720 232 733 232 750 c 0
 232 767 245 780 262 780 c 0
 279 780 292 767 292 750 c 0xfe10
EndSplineSet
EndChar

StartChar: asterisk
Encoding: 42 42 83
Width: 600
VWidth: 0
UnlinkRmOvrlpSave: 1
Flags: W
HStem: 220 60<233.106 290.894> 303 60<91.1064 148.894 251.106 308.894 411.106 468.894> 387 60<162.106 219.894 269.106 326.894 376.106 433.894> 470 60<234.106 291.894 340.106 397.894> 553 60<197.106 254.894 304.106 361.894 411.106 468.894> 637 60<162.106 219.894 322.106 379.894 482.106 539.894> 720 60<340.106 397.894>
VStem: 90 60<304.106 361.894> 161 60<388.106 445.894 638.106 695.894> 196 60<554.106 611.894> 232 60<221.106 278.894 471.312 528.688> 250 60<304.106 361.894> 268 60<388.106 445.894> 303 60<554.106 611.894> 321 60<638.106 695.894> 339 60<471.106 528.894 721.106 778.894> 375 60<388.106 445.894> 410 60<304.106 361.894 554.106 611.894> 481 60<638.106 695.894>
LayerCount: 2
Back
Fore
SplineSet
292 250 m 0xff2020
 292 233 279 220 262 220 c 0
 245 220 232 233 232 250 c 0
 232 267 245 280 262 280 c 0
 279 280 292 267 292 250 c 0xff2020
470 333 m 0xff0060
 470 316 457 303 440 303 c 0
 423 303 410 316 410 333 c 0
 410 350 423 363 440 363 c 0
 457 363 470 350 470 333 c 0xff0060
310 333 m 0xff1020
 310 316 297 303 280 303 c 0
 263 303 250 316 250 333 c 0
 250 350 263 363 280 363 c 0
 297 363 310 350 310 333 c 0xff1020
150 333 m 0
 150 316 137 303 120 303 c 0
 103 303 90 316 90 333 c 0
 90 350 103 363 120 363 c 0
 137 363 150 350 150 333 c 0
435 417 m 0xff00a0
 435 400 422 387 405 387 c 0
 388 387 375 400 375 417 c 0
 375 434 388 447 405 447 c 0
 422 447 435 434 435 417 c 0xff00a0
328 417 m 0xff0820
 328 400 315 387 298 387 c 0
 281 387 268 400 268 417 c 0
 268 434 281 447 298 447 c 0
 315 447 328 434 328 417 c 0xff0820
221 417 m 0xff8020
 221 400 208 387 191 387 c 0
 174 387 161 400 161 417 c 0
 161 434 174 447 191 447 c 0
 208 447 221 434 221 417 c 0xff8020
399 500 m 0xff0120
 399 483 386 470 369 470 c 0
 352 470 339 483 339 500 c 0
 339 517 352 530 369 530 c 0
 386 530 399 517 399 500 c 0xff0120
293 500 m 0
 293 483 280 470 263 470 c 0
 246 470 233 483 233 500 c 0
 233 517 246 530 263 530 c 0
 280 530 293 517 293 500 c 0
470 583 m 0xff0060
 470 566 457 553 440 553 c 0
 423 553 410 566 410 583 c 0
 410 600 423 613 440 613 c 0
 457 613 470 600 470 583 c 0xff0060
363 583 m 0xff0420
 363 566 350 553 333 553 c 0
 316 553 303 566 303 583 c 0
 303 600 316 613 333 613 c 0
 350 613 363 600 363 583 c 0xff0420
256 583 m 0xff4020
 256 566 243 553 226 553 c 0
 209 553 196 566 196 583 c 0
 196 600 209 613 226 613 c 0
 243 613 256 600 256 583 c 0xff4020
541 667 m 0
 541 650 528 637 511 637 c 0
 494 637 481 650 481 667 c 0
 481 684 494 697 511 697 c 0
 528 697 541 684 541 667 c 0
381 667 m 0xff0220
 381 650 368 637 351 637 c 0
 334 637 321 650 321 667 c 0
 321 684 334 697 351 697 c 0
 368 697 381 684 381 667 c 0xff0220
221 667 m 0xff8020
 221 650 208 637 191 637 c 0
 174 637 161 650 161 667 c 0
 161 684 174 697 191 697 c 0
 208 697 221 684 221 667 c 0xff8020
399 750 m 0xff0120
 399 733 386 720 369 720 c 0
 352 720 339 733 339 750 c 0
 339 767 352 780 369 780 c 0
 386 780 399 767 399 750 c 0xff0120
EndSplineSet
EndChar

StartChar: period
Encoding: 46 46 84
Width: 600
VWidth: 0
UnlinkRmOvrlpSave: 1
Flags: W
HStem: 220 60<126.106 183.894> 303 60<91.1064 148.894 197.106 254.894> 387 60<162.106 219.894>
VStem: 90 60<304.106 361.894> 125 60<221.106 278.894> 161 60<388.106 445.894> 196 60<304.106 361.894>
LayerCount: 2
Back
Fore
SplineSet
185 250 m 0xe8
 185 233 172 220 155 220 c 0
 138 220 125 233 125 250 c 0
 125 267 138 280 155 280 c 0
 172 280 185 267 185 250 c 0xe8
256 333 m 0xe2
 256 316 243 303 226 303 c 0
 209 303 196 316 196 333 c 0
 196 350 209 363 226 363 c 0
 243 363 256 350 256 333 c 0xe2
150 333 m 0xf0
 150 316 137 303 120 303 c 0
 103 303 90 316 90 333 c 0
 90 350 103 363 120 363 c 0
 137 363 150 350 150 333 c 0xf0
221 417 m 0xe4
 221 400 208 387 191 387 c 0
 174 387 161 400 161 417 c 0
 161 434 174 447 191 447 c 0
 208 447 221 434 221 417 c 0xe4
EndSplineSet
EndChar

StartChar: plusminus
Encoding: 177 177 85
Width: 600
VWidth: 0
UnlinkRmOvrlpSave: 1
Flags: W
HStem: 303 60<91.1064 148.894 198.106 255.894 304.106 361.894 411.106 468.894> 470 60<287.106 344.894> 553 60<144.106 201.894 251.106 308.894 357.106 414.894 464.106 521.894> 637 60<322.106 379.894> 720 60<340.106 397.894>
VStem: 90 60<304.106 361.894> 143 60<554.106 611.894> 197 60<304.106 361.894> 250 60<554.106 611.894> 286 60<471.106 528.894> 303 60<304.106 361.894> 321 60<638.106 695.894> 339 60<721.106 778.894> 356 60<554.106 611.894> 410 60<304.106 361.894> 463 60<554.106 611.894>
LayerCount: 2
Back
Fore
SplineSet
470 333 m 0xf802
 470 316 457 303 440 303 c 0
 423 303 410 316 410 333 c 0
 410 350 423 363 440 363 c 0
 457 363 470 350 470 333 c 0xf802
363 333 m 0xf820
 363 316 350 303 333 303 c 0
 316 303 303 316 303 333 c 0
 303 350 316 363 333 363 c 0
 350 363 363 350 363 333 c 0xf820
257 333 m 0xf9
 257 316 244 303 227 303 c 0
 210 303 197 316 197 333 c 0
 197 350 210 363 227 363 c 0
 244 363 257 350 257 333 c 0xf9
150 333 m 0xfc
 150 316 137 303 120 303 c 0
 103 303 90 316 90 333 c 0
 90 350 103 363 120 363 c 0
 137 363 150 350 150 333 c 0xfc
346 500 m 0xf840
 346 483 333 470 316 470 c 0
 299 470 286 483 286 500 c 0
 286 517 299 530 316 530 c 0
 333 530 346 517 346 500 c 0xf840
523 583 m 0xf801
 523 566 510 553 493 553 c 0
 476 553 463 566 463 583 c 0
 463 600 476 613 493 613 c 0
 510 613 523 600 523 583 c 0xf801
416 583 m 0xf804
 416 566 403 553 386 553 c 0
 369 553 356 566 356 583 c 0
 356 600 369 613 386 613 c 0
 403 613 416 600 416 583 c 0xf804
310 583 m 0xf880
 310 566 297 553 280 553 c 0
 263 553 250 566 250 583 c 0
 250 600 263 613 280 613 c 0
 297 613 310 600 310 583 c 0xf880
203 583 m 0xfa
 203 566 190 553 173 553 c 0
 156 553 143 566 143 583 c 0
 143 600 156 613 173 613 c 0
 190 613 203 600 203 583 c 0xfa
381 667 m 0xf810
 381 650 368 637 351 637 c 0
 334 637 321 650 321 667 c 0
 321 684 334 697 351 697 c 0
 368 697 381 684 381 667 c 0xf810
399 750 m 0xf808
 399 733 386 720 369 720 c 0
 352 720 339 733 339 750 c 0
 339 767 352 780 369 780 c 0
 386 780 399 767 399 750 c 0xf808
EndSplineSet
EndChar

StartChar: two
Encoding: 50 50 86
Width: 600
VWidth: 0
UnlinkRmOvrlpSave: 1
Flags: W
HStem: 220 60<91.1064 148.894 198.106 255.894 304.106 361.894 411.106 468.894> 303 60<162.106 219.894> 387 60<287.106 344.894> 470 60<412.106 469.894> 553 60<482.106 539.894> 637 60<180.106 237.894 500.106 557.894> 720 60<251.106 308.894 358.106 415.894 465.106 522.894>
VStem: 90 60<221.106 278.894> 161 60<304.106 361.894> 179 60<638.106 695.894> 197 60<221.106 278.894> 250 60<721.106 778.894> 286 60<388.106 445.894> 303 60<221.106 278.894> 357 60<721.106 778.894> 410 60<221.106 278.894 471.312 528.688> 464 60<721.106 778.894> 481 60<554.106 611.894> 499 60<638.106 695.894>
LayerCount: 2
Back
Fore
SplineSet
470 250 m 0xff01
 470 233 457 220 440 220 c 0
 423 220 410 233 410 250 c 0
 410 267 423 280 440 280 c 0
 457 280 470 267 470 250 c 0xff01
363 250 m 0xff04
 363 233 350 220 333 220 c 0
 316 220 303 233 303 250 c 0
 303 267 316 280 333 280 c 0
 350 280 363 267 363 250 c 0xff04
257 250 m 0xff20
 257 233 244 220 227 220 c 0
 210 220 197 233 197 250 c 0
 197 267 210 280 227 280 c 0
 244 280 257 267 257 250 c 0xff20
150 250 m 0
 150 233 137 220 120 220 c 0
 103 220 90 233 90 250 c 0
 90 267 103 280 120 280 c 0
 137 280 150 267 150 250 c 0
221 333 m 0xff80
 221 316 208 303 191 303 c 0
 174 303 161 316 161 333 c 0
 161 350 174 363 191 363 c 0
 208 363 221 350 221 333 c 0xff80
346 417 m 0xff08
 346 400 333 387 316 387 c 0
 299 387 286 400 286 417 c 0
 286 434 299 447 316 447 c 0
 333 447 346 434 346 417 c 0xff08
471 500 m 0
 471 483 458 470 441 470 c 0
 424 470 411 483 411 500 c 0
 411 517 424 530 441 530 c 0
 458 530 471 517 471 500 c 0
541 583 m 0xff0040
 541 566 528 553 511 553 c 0
 494 553 481 566 481 583 c 0
 481 600 494 613 511 613 c 0
 528 613 541 600 541 583 c 0xff0040
559 667 m 0xff0020
 559 650 546 637 529 637 c 0
 512 637 499 650 499 667 c 0
 499 684 512 697 529 697 c 0
 546 697 559 684 559 667 c 0xff0020
239 667 m 0xff40
 239 650 226 637 209 637 c 0
 192 637 179 650 179 667 c 0
 179 684 192 697 209 697 c 0
 226 697 239 684 239 667 c 0xff40
524 750 m 0xff0080
 524 733 511 720 494 720 c 0
 477 720 464 733 464 750 c 0
 464 767 477 780 494 780 c 0
 511 780 524 767 524 750 c 0xff0080
417 750 m 0xff02
 417 733 404 720 387 720 c 0
 370 720 357 733 357 750 c 0
 357 767 370 780 387 780 c 0
 404 780 417 767 417 750 c 0xff02
310 750 m 0xff10
 310 733 297 720 280 720 c 0
 263 720 250 733 250 750 c 0
 250 767 263 780 280 780 c 0
 297 780 310 767 310 750 c 0xff10
EndSplineSet
EndChar

StartChar: mu
Encoding: 181 181 87
Width: 600
VWidth: 0
UnlinkRmOvrlpSave: 1
Flags: W
HStem: 220 60<91.1064 148.894> 303 60<109.106 166.894> 387 60<127.106 184.894 234.106 291.894 340.106 397.894 447.106 504.894> 470 60<145.106 202.894 412.106 469.894> 553 60<162.106 219.894 429.106 486.894>
VStem: 90 60<221.106 278.894> 108 60<304.106 361.894> 126 60<388.106 445.894> 144 60<471.106 528.894> 161 60<554.106 611.894> 233 60<388.106 445.894> 339 60<388.106 445.894> 411 60<471.106 528.894> 428 60<554.106 611.894> 446 60<388.106 445.894>
LayerCount: 2
Back
Fore
SplineSet
150 250 m 0xfc30
 150 233 137 220 120 220 c 0
 103 220 90 233 90 250 c 0
 90 267 103 280 120 280 c 0
 137 280 150 267 150 250 c 0xfc30
168 333 m 0xfa30
 168 316 155 303 138 303 c 0
 121 303 108 316 108 333 c 0
 108 350 121 363 138 363 c 0
 155 363 168 350 168 333 c 0xfa30
506 417 m 0xf832
 506 400 493 387 476 387 c 0
 459 387 446 400 446 417 c 0
 446 434 459 447 476 447 c 0
 493 447 506 434 506 417 c 0xf832
399 417 m 0
 399 400 386 387 369 387 c 0
 352 387 339 400 339 417 c 0
 339 434 352 447 369 447 c 0
 386 447 399 434 399 417 c 0
293 417 m 0
 293 400 280 387 263 387 c 0
 246 387 233 400 233 417 c 0
 233 434 246 447 263 447 c 0
 280 447 293 434 293 417 c 0
186 417 m 0xf930
 186 400 173 387 156 387 c 0
 139 387 126 400 126 417 c 0
 126 434 139 447 156 447 c 0
 173 447 186 434 186 417 c 0xf930
471 500 m 0xf838
 471 483 458 470 441 470 c 0
 424 470 411 483 411 500 c 0
 411 517 424 530 441 530 c 0
 458 530 471 517 471 500 c 0xf838
204 500 m 0xf8b0
 204 483 191 470 174 470 c 0
 157 470 144 483 144 500 c 0
 144 517 157 530 174 530 c 0
 191 530 204 517 204 500 c 0xf8b0
488 583 m 0xf834
 488 566 475 553 458 553 c 0
 441 553 428 566 428 583 c 0
 428 600 441 613 458 613 c 0
 475 613 488 600 488 583 c 0xf834
221 583 m 0xf870
 221 566 208 553 191 553 c 0
 174 553 161 566 161 583 c 0
 161 600 174 613 191 613 c 0
 208 613 221 600 221 583 c 0xf870
EndSplineSet
EndChar

StartChar: six
Encoding: 54 54 88
Width: 600
VWidth: 0
UnlinkRmOvrlpSave: 1
Flags: W
HStem: 220 60<126.106 183.894 233.106 290.894 340.106 397.894> 303 60<91.1064 148.894 411.106 468.894> 387 60<109.106 166.894 429.106 486.894> 470 60<180.106 237.894 287.106 344.894 394.106 451.894> 553 60<251.106 308.894> 637 60<322.106 379.894> 720 60<393.106 450.894>
VStem: 90 60<304.106 361.894> 108 60<388.106 445.894> 125 60<221.106 278.894> 179 60<471.106 528.894> 232 60<221.106 278.894> 250 60<554.106 611.894> 286 60<471.106 528.894> 321 60<638.106 695.894> 339 60<221.106 278.894> 393 60<471.106 528.894 721.312 778.688> 410 60<304.106 361.894> 428 60<388.106 445.894>
LayerCount: 2
Back
Fore
SplineSet
399 250 m 0xfe01
 399 233 386 220 369 220 c 0
 352 220 339 233 339 250 c 0
 339 267 352 280 369 280 c 0
 386 280 399 267 399 250 c 0xfe01
292 250 m 0xfe10
 292 233 279 220 262 220 c 0
 245 220 232 233 232 250 c 0
 232 267 245 280 262 280 c 0
 279 280 292 267 292 250 c 0xfe10
185 250 m 0xfe40
 185 233 172 220 155 220 c 0
 138 220 125 233 125 250 c 0
 125 267 138 280 155 280 c 0
 172 280 185 267 185 250 c 0xfe40
470 333 m 0xfe0040
 470 316 457 303 440 303 c 0
 423 303 410 316 410 333 c 0
 410 350 423 363 440 363 c 0
 457 363 470 350 470 333 c 0xfe0040
150 333 m 0xff
 150 316 137 303 120 303 c 0
 103 303 90 316 90 333 c 0
 90 350 103 363 120 363 c 0
 137 363 150 350 150 333 c 0xff
488 417 m 0xfe0020
 488 400 475 387 458 387 c 0
 441 387 428 400 428 417 c 0
 428 434 441 447 458 447 c 0
 475 447 488 434 488 417 c 0xfe0020
168 417 m 0xfe80
 168 400 155 387 138 387 c 0
 121 387 108 400 108 417 c 0
 108 434 121 447 138 447 c 0
 155 447 168 434 168 417 c 0xfe80
453 500 m 0xfe0080
 453 483 440 470 423 470 c 0
 406 470 393 483 393 500 c 0
 393 517 406 530 423 530 c 0
 440 530 453 517 453 500 c 0xfe0080
346 500 m 0xfe04
 346 483 333 470 316 470 c 0
 299 470 286 483 286 500 c 0
 286 517 299 530 316 530 c 0
 333 530 346 517 346 500 c 0xfe04
239 500 m 0xfe20
 239 483 226 470 209 470 c 0
 192 470 179 483 179 500 c 0
 179 517 192 530 209 530 c 0
 226 530 239 517 239 500 c 0xfe20
310 583 m 0xfe08
 310 566 297 553 280 553 c 0
 263 553 250 566 250 583 c 0
 250 600 263 613 280 613 c 0
 297 613 310 600 310 583 c 0xfe08
381 667 m 0xfe02
 381 650 368 637 351 637 c 0
 334 637 321 650 321 667 c 0
 321 684 334 697 351 697 c 0
 368 697 381 684 381 667 c 0xfe02
452 750 m 0
 452 733 439 720 422 720 c 0
 405 720 392 733 392 750 c 0
 392 767 405 780 422 780 c 0
 439 780 452 767 452 750 c 0
EndSplineSet
EndChar

StartChar: colon
Encoding: 58 58 89
Width: 600
VWidth: 0
UnlinkRmOvrlpSave: 1
Flags: W
HStem: 220 60<126.106 183.894> 303 60<91.1064 148.894 197.106 254.894> 387 60<162.106 219.894> 553 60<197.106 254.894> 637 60<162.106 219.894 268.106 325.894> 720 60<233.106 290.894>
VStem: 90 60<304.106 361.894> 125 60<221.106 278.894> 161 60<388.106 445.894 638.106 695.894> 196 60<304.106 361.894 554.106 611.894> 232 60<721.106 778.894> 267 60<638.106 695.894>
LayerCount: 2
Back
Fore
SplineSet
185 250 m 0xfd
 185 233 172 220 155 220 c 0
 138 220 125 233 125 250 c 0
 125 267 138 280 155 280 c 0
 172 280 185 267 185 250 c 0xfd
256 333 m 0xfc40
 256 316 243 303 226 303 c 0
 209 303 196 316 196 333 c 0
 196 350 209 363 226 363 c 0
 243 363 256 350 256 333 c 0xfc40
150 333 m 0xfe
 150 316 137 303 120 303 c 0
 103 303 90 316 90 333 c 0
 90 350 103 363 120 363 c 0
 137 363 150 350 150 333 c 0xfe
221 417 m 0xfc80
 221 400 208 387 191 387 c 0
 174 387 161 400 161 417 c 0
 161 434 174 447 191 447 c 0
 208 447 221 434 221 417 c 0xfc80
256 583 m 0xfc40
 256 566 243 553 226 553 c 0
 209 553 196 566 196 583 c 0
 196 600 209 613 226 613 c 0
 243 613 256 600 256 583 c 0xfc40
327 667 m 0xfc10
 327 650 314 637 297 637 c 0
 280 637 267 650 267 667 c 0
 267 684 280 697 297 697 c 0
 314 697 327 684 327 667 c 0xfc10
221 667 m 0xfc80
 221 650 208 637 191 637 c 0
 174 637 161 650 161 667 c 0
 161 684 174 697 191 697 c 0
 208 697 221 684 221 667 c 0xfc80
292 750 m 0xfc20
 292 733 279 720 262 720 c 0
 245 720 232 733 232 750 c 0
 232 767 245 780 262 780 c 0
 279 780 292 767 292 750 c 0xfc20
EndSplineSet
EndChar

StartChar: greater
Encoding: 62 62 90
Width: 600
VWidth: 0
UnlinkRmOvrlpSave: 1
Flags: W
HStem: 220 60<91.1064 148.894> 303 60<216.106 273.894> 387 60<340.106 397.894> 470 60<465.106 522.894> 553 60<375.106 432.894> 637 60<287.106 344.894> 720 60<198.106 255.894>
VStem: 90 60<221.106 278.894> 197 60<721.106 778.894> 215 60<304.106 361.894> 286 60<638.106 695.894> 339 60<388.106 445.894> 374 60<554.106 611.894> 464 60<471.106 528.894>
LayerCount: 2
Back
Fore
SplineSet
150 250 m 0xff04
 150 233 137 220 120 220 c 0
 103 220 90 233 90 250 c 0
 90 267 103 280 120 280 c 0
 137 280 150 267 150 250 c 0xff04
275 333 m 0xff44
 275 316 262 303 245 303 c 0
 228 303 215 316 215 333 c 0
 215 350 228 363 245 363 c 0
 262 363 275 350 275 333 c 0xff44
399 417 m 0xff14
 399 400 386 387 369 387 c 0
 352 387 339 400 339 417 c 0
 339 434 352 447 369 447 c 0
 386 447 399 434 399 417 c 0xff14
524 500 m 0
 524 483 511 470 494 470 c 0
 477 470 464 483 464 500 c 0
 464 517 477 530 494 530 c 0
 511 530 524 517 524 500 c 0
434 583 m 0xff0c
 434 566 421 553 404 553 c 0
 387 553 374 566 374 583 c 0
 374 600 387 613 404 613 c 0
 421 613 434 600 434 583 c 0xff0c
346 667 m 0xff24
 346 650 333 637 316 637 c 0
 299 637 286 650 286 667 c 0
 286 684 299 697 316 697 c 0
 333 697 346 684 346 667 c 0xff24
257 750 m 0xff84
 257 733 244 720 227 720 c 0
 210 720 197 733 197 750 c 0
 197 767 210 780 227 780 c 0
 244 780 257 767 257 750 c 0xff84
EndSplineSet
EndChar

StartChar: Aacute
Encoding: 193 193 91
Width: 600
VWidth: 0
UnlinkRmOvrlpSave: 1
Flags: W
HStem: 220 60<91.1064 148.894 411.106 468.894> 303 60<109.106 166.894 216.106 273.894 322.106 379.894 429.106 486.894> 387 60<180.106 237.894 394.106 451.894> 470 60<252.106 309.894 358.106 415.894> 553 60<322.106 379.894> 637 60<340.106 397.894> 720 60<411.106 468.894>
VStem: 90 60<221.106 278.894> 108 60<304.106 361.894> 179 60<388.106 445.894> 215 60<304.106 361.894> 251 60<471.106 528.894> 321 60<304.106 361.894 554.106 611.894> 339 60<638.106 695.894> 357 60<471.106 528.894> 393 60<388.106 445.894> 410 60<221.106 278.894 721.106 778.894> 428 60<304.106 361.894>
LayerCount: 2
Back
Fore
SplineSet
470 250 m 0xfe0080
 470 233 457 220 440 220 c 0
 423 220 410 233 410 250 c 0
 410 267 423 280 440 280 c 0
 457 280 470 267 470 250 c 0xfe0080
150 250 m 0xff
 150 233 137 220 120 220 c 0
 103 220 90 233 90 250 c 0
 90 267 103 280 120 280 c 0
 137 280 150 267 150 250 c 0xff
488 333 m 0xfe0040
 488 316 475 303 458 303 c 0
 441 303 428 316 428 333 c 0
 428 350 441 363 458 363 c 0
 475 363 488 350 488 333 c 0xfe0040
381 333 m 0xfe08
 381 316 368 303 351 303 c 0
 334 303 321 316 321 333 c 0
 321 350 334 363 351 363 c 0
 368 363 381 350 381 333 c 0xfe08
275 333 m 0xfe20
 275 316 262 303 245 303 c 0
 228 303 215 316 215 333 c 0
 215 350 228 363 245 363 c 0
 262 363 275 350 275 333 c 0xfe20
168 333 m 0xfe80
 168 316 155 303 138 303 c 0
 121 303 108 316 108 333 c 0
 108 350 121 363 138 363 c 0
 155 363 168 350 168 333 c 0xfe80
453 417 m 0xfe01
 453 400 440 387 423 387 c 0
 406 387 393 400 393 417 c 0
 393 434 406 447 423 447 c 0
 440 447 453 434 453 417 c 0xfe01
239 417 m 0xfe40
 239 400 226 387 209 387 c 0
 192 387 179 400 179 417 c 0
 179 434 192 447 209 447 c 0
 226 447 239 434 239 417 c 0xfe40
417 500 m 0xfe02
 417 483 404 470 387 470 c 0
 370 470 357 483 357 500 c 0
 357 517 370 530 387 530 c 0
 404 530 417 517 417 500 c 0xfe02
311 500 m 0xfe10
 311 483 298 470 281 470 c 0
 264 470 251 483 251 500 c 0
 251 517 264 530 281 530 c 0
 298 530 311 517 311 500 c 0xfe10
381 583 m 0xfe08
 381 566 368 553 351 553 c 0
 334 553 321 566 321 583 c 0
 321 600 334 613 351 613 c 0
 368 613 381 600 381 583 c 0xfe08
399 667 m 0xfe04
 399 650 386 637 369 637 c 0
 352 637 339 650 339 667 c 0
 339 684 352 697 369 697 c 0
 386 697 399 684 399 667 c 0xfe04
470 750 m 0xfe0080
 470 733 457 720 440 720 c 0
 423 720 410 733 410 750 c 0
 410 767 423 780 440 780 c 0
 457 780 470 767 470 750 c 0xfe0080
EndSplineSet
EndChar

